<?xml version="1.0" encoding="utf-8"?>
<!-- Generator: Adobe Illustrator 16.0.0, SVG Export Plug-In . SVG Version: 6.00 Build 0)  -->
<!DOCTYPE svg PUBLIC "-//W3C//DTD SVG 1.1//EN" "http://www.w3.org/Graphics/SVG/1.1/DTD/svg11.dtd">
<svg version="1.1" id="Layer_1" xmlns="http://www.w3.org/2000/svg" xmlns:xlink="http://www.w3.org/1999/xlink" x="0px" y="0px"
	 width="640px" height="640px" viewBox="0 0 640 640" enable-background="new 0 0 640 640" xml:space="preserve">
<g id="Layer_2" display="none">
	
		<image display="inline" overflow="visible" enable-background="new    " width="1772" height="1508" xlink:href="C0A9FCB8.jpeg"  transform="matrix(0.24 0 0 0.24 -444.6335 122.9177)">
	</image>
</g>
<g id="LOGIN" display="none">
	<g display="inline">
		<path fill="#D81F37" d="M280.492,540.06c-5.53-2.783-6.989-7.49-6.814-13.197c0.195-6.302,0.044-12.604,0.044-18.906
			c0.005-11.084,3.04-14.095,14.194-14.101c61.398,0,122.801-0.059,184.201,0.052c10.138,0.023,18.127-3.309,22.44-12.534
			c1.64-3.5,2.395-7.718,2.399-11.606c0.127-99.842,0.066-199.689,0.138-299.53c0.008-15.313-10.921-24.3-24.982-24.229
			c-61.102,0.326-122.211,0.141-183.32,0.141c-1.313,0-2.633,0.047-3.946-0.019c-7.126-0.332-10.868-3.728-11.057-10.646
			c-0.23-8.299-0.036-16.61-0.067-24.922c-0.018-4.951,2.548-8.282,6.771-10.618c67.548,0,135.096,0,202.646,0
			c1.938,0.478,3.871,0.979,5.813,1.422c33.507,7.711,54.969,33.856,55.033,68.267c0.188,100.244,0.193,200.5-0.011,300.741
			c-0.059,29.542-14.055,51.104-41.395,63.772c-6.075,2.813-12.941,3.983-19.441,5.917C415.588,540.06,348.04,540.06,280.492,540.06
			z"/>
		<path fill="#214195" d="M265.069,264.013c0-2.072,0-3.61,0-5.154c0-13.605-0.043-27.217,0.016-40.822
			c0.047-10.974,7.077-14.938,16.735-9.477c60.049,33.984,120.089,67.971,180.13,101.962c10.016,5.672,9.944,13.338-0.169,19.057
			c-59.916,33.916-119.824,67.849-179.798,101.671c-2.533,1.434-5.711,2.646-8.532,2.539c-5.388-0.216-8.326-4.514-8.358-11.164
			c-0.07-13.605-0.023-27.218-0.023-40.829c0-1.707,0-3.407,0-5.83c-2.007,0-3.684,0-5.357,0c-50.148,0-100.295,0-150.443,0
			c-10.639-0.006-13.382-2.722-13.384-13.286c-0.009-28.504-0.026-57.016,0.035-85.52c0.006-2.545,0.009-5.3,0.952-7.589
			c1.988-4.806,6.372-5.604,11.244-5.598c50.438,0.063,100.878,0.04,151.316,0.04C261.149,264.013,262.861,264.013,265.069,264.013z
			"/>
	</g>
</g>
<g id="LOGOUT" display="none">
	<g display="inline">
		<path fill="#204395" d="M359.508,540.06c5.531-2.783,6.99-7.49,6.813-13.197c-0.194-6.302-0.043-12.604-0.043-18.906
			c-0.006-11.084-3.041-14.095-14.193-14.101c-61.399,0-122.801-0.059-184.202,0.052c-10.137,0.023-18.127-3.309-22.44-12.534
			c-1.64-3.5-2.395-7.718-2.398-11.606c-0.128-99.842-0.067-199.689-0.139-299.53c-0.008-15.313,10.922-24.3,24.982-24.229
			c61.102,0.326,122.211,0.141,183.321,0.141c1.313,0,2.633,0.047,3.944-0.019c7.127-0.332,10.868-3.728,11.058-10.646
			c0.229-8.299,0.036-16.61,0.067-24.922c0.019-4.951-2.549-8.282-6.771-10.618c-67.548,0-135.096,0-202.646,0
			c-1.938,0.478-3.87,0.979-5.813,1.422c-33.507,7.711-54.968,33.856-55.033,68.267c-0.187,100.244-0.193,200.5,0.011,300.741
			c0.059,29.542,14.056,51.104,41.395,63.772c6.076,2.813,12.941,3.983,19.441,5.917C224.412,540.06,291.96,540.06,359.508,540.06z"
			/>
		<path fill="#D81F37" d="M374.932,264.013c0-2.072,0-3.61,0-5.154c0-13.605,0.043-27.217-0.016-40.822
			c-0.047-10.974-7.076-14.938-16.736-9.477c-60.048,33.984-120.089,67.971-180.13,101.962c-10.015,5.672-9.944,13.338,0.169,19.057
			c59.916,33.916,119.825,67.849,179.799,101.671c2.533,1.434,5.711,2.646,8.533,2.539c5.387-0.216,8.325-4.514,8.357-11.164
			c0.069-13.605,0.022-27.218,0.022-40.829c0-1.707,0-3.407,0-5.83c2.006,0,3.684,0,5.357,0c50.147,0,100.296,0,150.442,0
			c10.639-0.006,13.383-2.722,13.385-13.286c0.01-28.504,0.026-57.016-0.035-85.52c-0.006-2.545-0.009-5.3-0.95-7.589
			c-1.99-4.806-6.372-5.604-11.244-5.598c-50.439,0.063-100.879,0.04-151.317,0.04C378.852,264.013,377.139,264.013,374.932,264.013
			z"/>
	</g>
</g>
<g id="SCHEME-MAN" display="none">
	<g display="inline">
		<g>
			<path fill="#D81F37" d="M197.519,88.842c0-9.692-0.014-18.66,0.004-27.629c0.017-7.774,2.797-10.644,10.386-10.646
				c58.328-0.021,116.657-0.029,174.987-0.029c7.813,0,10.697,3.006,10.685,10.947c-0.018,8.953-0.004,17.906-0.004,27.359
				c2.826,0,5.116,0,7.407,0c22.331,0,44.664-0.081,66.995,0.024c17.86,0.085,28.245,10.596,28.246,28.361
				c0.008,126.49,0.016,252.981-0.045,379.473c-0.002,4.466-0.129,9.085-1.237,13.364c-2.889,11.16-12.936,18.359-25.018,18.366
				c-69.494,0.037-138.988,0.026-208.483,0.031c-45.164,0.004-90.328,0.042-135.49-0.044c-4.456-0.01-9.099-0.112-13.328-1.315
				c-11.169-3.178-17.702-13.199-17.729-26.598c-0.071-34.83-0.019-69.662-0.019-104.493c0-91.66-0.019-183.322,0.05-274.982
				c0.003-4.629,0.104-9.429,1.282-13.852c3.066-11.528,13.077-18.271,26.633-18.331c21.665-0.099,43.33-0.016,64.996-0.01
				C190.824,88.844,193.811,88.842,197.519,88.842z M197.498,106.53c-1.588-0.16-2.708-0.37-3.827-0.371
				c-23.994-0.017-47.987-0.047-71.981,0.015c-6.75,0.018-9.469,2.931-9.484,9.948c-0.036,15.496,0.01,30.992,0.011,46.487
				c0.005,112.305,0.001,224.608,0.021,336.912c0.001,9.729,2.22,11.912,12.155,11.917c67.648,0.031,135.297,0.03,202.945,0.035
				c46.821,0.004,93.642-0.012,140.463,0.021c4.2,0.003,8.348-0.408,10.091-4.769c0.999-2.499,0.939-5.52,0.943-8.304
				c0.045-55.652,0.027-111.306,0.026-166.957c-0.002-71.314,0.011-142.629-0.018-213.942c-0.004-9.309-2.173-11.334-11.554-11.339
				c-22.493-0.013-44.987-0.028-67.48-0.043c-1.937-0.001-3.871,0-6.251,0c0,9.617,0.007,18.58-0.002,27.543
				c-0.008,7.968-2.793,10.757-10.806,10.759c-58.152,0.017-116.305,0.027-174.456,0.027c-7.854,0-10.81-3.013-10.8-10.854
				C197.505,124.662,197.498,115.706,197.498,106.53z M376.341,67.852c-54.114,0-107.813,0-161.419,0c0,20.037,0,39.733,0,59.364
				c54.009,0,107.584,0,161.419,0C376.341,107.377,376.341,87.795,376.341,67.852z"/>
			<path fill="none" d="M197.498,106.53c0,9.176,0.007,18.132-0.002,27.088c-0.009,7.841,2.945,10.854,10.8,10.854
				c58.151,0,116.304-0.012,174.456-0.027c8.013-0.002,10.798-2.791,10.806-10.759c0.009-8.963,0.002-17.925,0.002-27.543
				c2.38,0,4.315-0.001,6.251,0c22.493,0.015,44.987,0.03,67.481,0.043c9.38,0.005,11.549,2.03,11.553,11.339
				c0.028,71.313,0.016,142.628,0.018,213.942c0.001,55.651,0.019,111.305-0.026,166.957c-0.003,2.785,0.056,5.805-0.943,8.304
				c-1.743,4.359-5.891,4.771-10.091,4.769c-46.821-0.032-93.642-0.018-140.463-0.021c-67.648-0.005-135.297-0.004-202.945-0.035
				c-9.936-0.005-12.152-2.188-12.154-11.917c-0.021-112.304-0.018-224.607-0.021-336.912c-0.001-15.495-0.047-30.991-0.011-46.487
				c0.016-7.019,2.734-9.932,9.484-9.947c23.994-0.063,47.987-0.031,71.981-0.016C194.791,106.16,195.91,106.37,197.498,106.53z
				 M340.402,204.223c-10.151,0-20.307-0.005-30.459,0.001c-12.816,0.007-25.634-0.055-38.449,0.063
				c-6.789,0.063-10.902,5.341-8.773,11.207c1.741,4.797,5.717,5.935,10.432,5.923c25.967-0.06,51.934-0.021,77.9-0.021
				c19.142-0.001,38.284,0.022,57.426-0.035c7.071-0.021,11.63-5.335,9.637-11.136c-1.683-4.899-5.548-6.052-10.301-6.034
				C385.344,204.271,362.873,204.226,340.402,204.223z M340.609,419.318c0-0.014,0-0.027,0-0.04c-8.153,0-16.309-0.002-24.463,0
				c-14.811,0.004-29.622-0.069-44.432,0.052c-6.4,0.053-10.008,3.934-9.372,9.563c0.53,4.692,4.115,7.462,10.109,7.474
				c27.958,0.054,55.917,0.044,83.875,0.046c17.307,0.001,34.613,0.016,51.921-0.048c6.939-0.024,11.408-4.759,10.08-10.464
				c-1.003-4.307-4.236-6.559-9.822-6.567C385.875,419.299,363.242,419.318,340.609,419.318z M340.553,275.724
				c-22.332,0-44.664-0.02-66.996,0.033c-1.966,0.006-4.051,0.151-5.872,0.811c-3.91,1.415-5.671,4.501-5.328,8.618
				c0.349,4.175,2.742,6.69,6.838,7.432c1.624,0.293,3.316,0.288,4.978,0.289c35.664,0.031,71.328,0.053,106.991,0.053
				c9.665,0,19.334,0.086,28.992-0.184c5.013-0.141,8.235-3.67,8.328-8.218c0.091-4.473-3.138-8.08-7.941-8.724
				c-1.477-0.196-2.994-0.104-4.493-0.104C384.217,275.726,362.385,275.728,340.553,275.724z M340.422,364.504
				c0,0.01,0,0.02,0,0.028c22.803,0,45.605,0.028,68.408-0.019c6.555-0.014,10.873-4.847,9.51-10.397
				c-1.053-4.275-4.594-6.577-10.422-6.578c-45.106-0.009-90.214,0.001-135.321,0.021c-6.729,0.003-10.434,3.169-10.313,8.694
				c0.115,5.282,3.757,8.241,10.227,8.244C295.148,364.51,317.785,364.504,340.422,364.504z M188.274,282.792
				c-2.361-2.822-4.088-5.312-6.234-7.357c-3.798-3.621-8.551-3.492-11.996-0.002c-3.227,3.268-3.492,8.149-0.207,11.671
				c4.308,4.617,8.782,9.097,13.426,13.374c3.363,3.098,8.018,3.165,11.298-0.034c10.833-10.567,21.547-21.26,32.112-32.095
				c3.368-3.453,2.975-8.456-0.234-11.682c-3.205-3.22-8.023-3.391-11.717-0.34c-1.15,0.95-2.163,2.067-3.219,3.128
				C204.115,266.871,196.732,274.293,188.274,282.792z M188.235,354.547c-1.944-2.45-3.49-4.885-5.504-6.832
				c-4.259-4.121-9.239-4.194-12.784-0.51c-3.384,3.52-3.227,8.324,0.659,12.454c3.648,3.878,7.443,7.622,11.271,11.323
				c4.86,4.698,9.089,4.732,13.879-0.002c9.943-9.829,19.822-19.724,29.657-29.662c1.248-1.26,2.494-2.809,3.005-4.453
				c1.197-3.851,0.216-7.338-3.283-9.615c-4.104-2.673-7.923-1.774-11.262,1.564C205.641,337.048,197.437,345.307,188.235,354.547z
				 M188.485,211.268c-2.276-2.742-3.996-5.239-6.138-7.297c-3.81-3.659-9.208-3.577-12.485-0.115
				c-3.229,3.413-3.149,8.229,0.467,12.062c3.766,3.992,7.705,7.824,11.625,11.669c4.692,4.604,9.179,4.658,13.872,0.016
				c9.935-9.831,19.804-19.729,29.646-29.652c1.146-1.154,2.362-2.509,2.844-3.998c1.296-4.001,0.558-7.71-3.222-10.063
				c-3.854-2.399-7.65-1.937-10.887,1.321C205.895,193.571,197.637,201.987,188.485,211.268z"/>
			<path fill="#0B8442" d="M340.402,204.224c22.472,0.002,44.941,0.047,67.411-0.034c4.753-0.018,8.618,1.135,10.301,6.034
				c1.993,5.801-2.564,11.113-9.637,11.136c-19.142,0.059-38.284,0.034-57.426,0.035c-25.967,0.001-51.934-0.038-77.9,0.021
				c-4.715,0.012-8.689-1.126-10.432-5.923c-2.129-5.866,1.984-11.145,8.773-11.207c12.815-0.116,25.633-0.056,38.449-0.063
				C320.096,204.219,330.25,204.223,340.402,204.224z"/>
			<path fill="#0B8442" d="M340.609,419.318c22.634,0,45.267-0.021,67.897,0.016c5.586,0.009,8.819,2.261,9.822,6.566
				c1.328,5.705-3.141,10.438-10.08,10.464c-17.308,0.063-34.614,0.049-51.921,0.048c-27.959-0.002-55.917,0.008-83.875-0.046
				c-5.994-0.012-9.579-2.78-10.109-7.474c-0.637-5.63,2.972-9.511,9.372-9.563c14.81-0.12,29.621-0.048,44.432-0.052
				c8.154-0.002,16.31,0,24.463,0C340.609,419.291,340.609,419.305,340.609,419.318z"/>
			<path fill="#0B8442" d="M340.553,275.726c21.832,0.002,43.664,0,65.496,0.005c1.499,0,3.018-0.093,4.493,0.104
				c4.805,0.644,8.032,4.251,7.941,8.724c-0.093,4.548-3.315,8.077-8.328,8.218c-9.658,0.27-19.327,0.184-28.992,0.184
				c-35.663,0-71.327-0.021-106.991-0.053c-1.661-0.001-3.354,0.004-4.978-0.289c-4.096-0.74-6.489-3.257-6.838-7.432
				c-0.343-4.117,1.418-7.203,5.328-8.618c1.821-0.658,3.906-0.805,5.872-0.811C295.889,275.705,318.221,275.724,340.553,275.726z"
				/>
			<path fill="#0B8442" d="M340.422,364.504c-22.637,0-45.273,0.006-67.911-0.005c-6.47-0.003-10.11-2.962-10.227-8.244
				c-0.121-5.525,3.583-8.691,10.313-8.694c45.107-0.021,90.214-0.03,135.321-0.021c5.828,0.001,9.369,2.303,10.422,6.578
				c1.363,5.553-2.955,10.386-9.51,10.397c-22.803,0.047-45.605,0.019-68.408,0.019
				C340.422,364.522,340.422,364.513,340.422,364.504z"/>
			<path fill="#0B8442" d="M188.274,282.792c8.458-8.499,15.842-15.921,23.229-23.337c1.056-1.061,2.068-2.178,3.219-3.128
				c3.693-3.051,8.513-2.88,11.717,0.34c3.209,3.226,3.603,8.229,0.234,11.682c-10.565,10.835-21.279,21.526-32.112,32.095
				c-3.28,3.199-7.935,3.132-11.298,0.034c-4.644-4.277-9.119-8.757-13.426-13.374c-3.285-3.521-3.02-8.403,0.207-11.671
				c3.445-3.49,8.197-3.619,11.996,0.002C184.186,277.48,185.912,279.969,188.274,282.792z"/>
			<path fill="#0B8442" d="M188.235,354.547c9.202-9.239,17.406-17.499,25.64-25.731c3.338-3.34,7.156-4.237,11.262-1.563
				c3.499,2.276,4.48,5.765,3.283,9.614c-0.511,1.646-1.758,3.193-3.005,4.453c-9.834,9.938-19.713,19.833-29.657,29.662
				c-4.79,4.734-9.019,4.7-13.879,0.002c-3.829-3.701-7.624-7.445-11.271-11.323c-3.886-4.13-4.043-8.936-0.659-12.454
				c3.545-3.686,8.525-3.611,12.784,0.51C184.744,349.662,186.29,352.096,188.235,354.547z"/>
			<path fill="#0B8442" d="M188.485,211.268c9.152-9.28,17.41-17.696,25.722-26.061c3.236-3.258,7.033-3.722,10.887-1.321
				c3.779,2.354,4.519,6.063,3.222,10.063c-0.481,1.489-1.698,2.844-2.844,3.998c-9.843,9.924-19.711,19.821-29.646,29.652
				c-4.692,4.644-9.179,4.589-13.872-0.016c-3.92-3.845-7.858-7.677-11.625-11.669c-3.616-3.832-3.696-8.647-0.467-12.062
				c3.277-3.462,8.676-3.544,12.485,0.115C184.489,206.028,186.208,208.525,188.485,211.268z"/>
		</g>
		<g>
			<path fill="#214195" d="M438.308,589.463c-2.034-0.612-4.114-1.107-6.096-1.858c-5.413-2.054-9.85-5.441-13.155-10.209
				c-18.51-26.69-37.086-53.335-55.455-80.121c-8.816-12.855-1.447-31.109,13.532-34.03c5.195-1.014,9.842,0.504,13.865,3.872
				c8.649,7.239,17.238,14.55,25.944,21.721c1.088,0.896,2.755,1.567,4.127,1.523c1.96-0.063,2.984-1.95,2.987-4.511
				c0.006-13.063,0-26.125,0-39.188c0.001-20.188-0.031-40.374,0.017-60.561c0.033-13.934,11.278-24.77,25.507-24.699
				c13.371,0.064,24.368,11.329,24.365,24.96c-0.003,19.149-0.008,38.296-0.011,57.444c0,3.499,0.755,4.518,4.123,5.19
				c15.966,3.198,31.924,6.444,47.915,9.511c11.397,2.185,19.519,11.462,19.156,23.02c-0.319,10.149-1.264,20.277-1.955,30.413
				c-0.652,9.545-1.319,19.088-2.016,28.631c-0.814,11.167-1.395,22.359-2.6,33.486c-0.854,7.858-5.78,12.733-13.342,14.938
				c-0.331,0.097-0.628,0.308-0.939,0.466C495.621,589.463,466.965,589.463,438.308,589.463z"/>
		</g>
	</g>
</g>
<g id="IMPORT-FILES" display="none">
	<g display="inline">
		<g>
			<path fill="#D81F37" d="M225.539,88.842c0-9.692-0.015-18.66,0.004-27.629c0.016-7.774,2.797-10.644,10.385-10.646
				c58.329-0.021,116.658-0.029,174.988-0.029c7.812,0,10.696,3.006,10.684,10.947c-0.018,8.953-0.004,17.906-0.004,27.359
				c2.827,0,5.117,0,7.408,0c22.331,0,44.664-0.081,66.994,0.024c17.86,0.085,28.245,10.596,28.246,28.361
				c0.009,126.49,0.017,252.981-0.045,379.473c-0.002,4.466-0.129,9.085-1.236,13.364c-2.89,11.16-12.937,18.359-25.019,18.366
				c-69.494,0.037-138.987,0.026-208.482,0.031c-45.164,0.004-90.328,0.042-135.491-0.044c-4.456-0.01-9.098-0.112-13.328-1.315
				c-11.169-3.178-17.702-13.199-17.729-26.598c-0.071-34.83-0.02-69.662-0.02-104.493c0-91.66-0.018-183.322,0.05-274.982
				c0.003-4.629,0.105-9.429,1.282-13.852c3.067-11.528,13.077-18.271,26.633-18.331c21.665-0.099,43.33-0.016,64.996-0.01
				C218.844,88.844,221.831,88.842,225.539,88.842z M225.518,106.53c-1.588-0.16-2.708-0.37-3.827-0.371
				c-23.994-0.017-47.986-0.047-71.98,0.015c-6.75,0.018-9.469,2.931-9.485,9.948c-0.036,15.496,0.01,30.992,0.011,46.487
				c0.006,112.305,0.001,224.608,0.021,336.912c0.001,9.729,2.219,11.912,12.155,11.917c67.647,0.031,135.297,0.03,202.944,0.035
				c46.821,0.004,93.642-0.012,140.463,0.021c4.2,0.003,8.349-0.408,10.091-4.769c0.999-2.499,0.94-5.52,0.943-8.304
				c0.045-55.652,0.028-111.306,0.027-166.957c-0.002-71.314,0.011-142.629-0.019-213.942c-0.004-9.309-2.173-11.334-11.553-11.339
				c-22.494-0.013-44.988-0.028-67.481-0.043c-1.936-0.001-3.871,0-6.251,0c0,9.617,0.007,18.58-0.002,27.543
				c-0.008,7.968-2.793,10.757-10.806,10.759c-58.151,0.017-116.304,0.027-174.456,0.027c-7.854,0-10.809-3.013-10.8-10.854
				C225.525,124.662,225.518,115.706,225.518,106.53z M404.36,67.852c-54.113,0-107.813,0-161.419,0c0,20.037,0,39.733,0,59.364
				c54.01,0,107.584,0,161.419,0C404.36,107.377,404.36,87.795,404.36,67.852z"/>
			<path fill="#0C8543" d="M368.422,204.224c22.471,0.002,44.94,0.047,67.41-0.034c4.754-0.018,8.618,1.135,10.302,6.034
				c1.993,5.801-2.565,11.113-9.638,11.136c-19.142,0.059-38.283,0.034-57.426,0.035c-25.967,0.001-51.934-0.038-77.899,0.021
				c-4.715,0.012-8.69-1.126-10.433-5.923c-2.129-5.866,1.984-11.145,8.773-11.207c12.816-0.116,25.633-0.056,38.45-0.063
				C348.115,204.219,358.27,204.223,368.422,204.224z"/>
			<path fill="#0C8543" d="M368.629,419.318c22.633,0,45.266-0.021,67.896,0.016c5.586,0.009,8.82,2.261,9.823,6.566
				c1.328,5.705-3.142,10.438-10.08,10.464c-17.308,0.063-34.615,0.049-51.922,0.048c-27.959-0.002-55.917,0.008-83.875-0.046
				c-5.994-0.012-9.579-2.78-10.109-7.474c-0.637-5.63,2.973-9.511,9.372-9.563c14.811-0.12,29.621-0.048,44.433-0.052
				c8.153-0.002,16.309,0,24.463,0C368.629,419.291,368.629,419.305,368.629,419.318z"/>
			<path fill="#0C8543" d="M368.572,275.726c21.832,0.002,43.664,0,65.496,0.005c1.499,0,3.019-0.093,4.493,0.104
				c4.805,0.644,8.033,4.251,7.942,8.724c-0.094,4.548-3.316,8.077-8.328,8.218c-9.658,0.27-19.328,0.184-28.993,0.184
				c-35.663,0-71.327-0.021-106.991-0.053c-1.661-0.001-3.353,0.004-4.977-0.289c-4.096-0.74-6.49-3.257-6.838-7.432
				c-0.343-4.117,1.418-7.203,5.328-8.618c1.82-0.658,3.905-0.805,5.872-0.811C323.908,275.705,346.24,275.724,368.572,275.726z"/>
			<path fill="#0C8543" d="M368.441,364.504c-22.637,0-45.272,0.006-67.911-0.005c-6.47-0.003-10.109-2.962-10.227-8.244
				c-0.121-5.525,3.583-8.691,10.313-8.694c45.106-0.021,90.214-0.03,135.32-0.021c5.829,0.001,9.37,2.303,10.422,6.578
				c1.364,5.553-2.955,10.386-9.509,10.397c-22.803,0.047-45.605,0.019-68.409,0.019
				C368.441,364.522,368.441,364.513,368.441,364.504z"/>
			<path fill="#0C8543" d="M216.293,282.792c8.458-8.499,15.841-15.921,23.229-23.337c1.057-1.061,2.069-2.178,3.22-3.128
				c3.692-3.051,8.513-2.88,11.717,0.34c3.209,3.226,3.602,8.229,0.233,11.682c-10.564,10.835-21.278,21.526-32.111,32.095
				c-3.28,3.199-7.936,3.132-11.299,0.034c-4.644-4.277-9.118-8.757-13.426-13.374c-3.285-3.521-3.019-8.403,0.207-11.671
				c3.446-3.49,8.197-3.619,11.996,0.002C212.205,277.48,213.931,279.969,216.293,282.792z"/>
			<path fill="#0C8543" d="M216.254,354.547c9.202-9.239,17.406-17.499,25.639-25.731c3.338-3.34,7.157-4.237,11.262-1.563
				c3.499,2.276,4.48,5.765,3.283,9.614c-0.511,1.646-1.758,3.193-3.005,4.453c-9.834,9.938-19.713,19.833-29.657,29.662
				c-4.79,4.734-9.018,4.7-13.879,0.002c-3.829-3.701-7.624-7.445-11.271-11.323c-3.887-4.13-4.043-8.936-0.659-12.454
				c3.544-3.686,8.525-3.611,12.784,0.51C212.764,349.662,214.309,352.096,216.254,354.547z"/>
			<path fill="#0C8543" d="M216.504,211.268c9.151-9.28,17.41-17.696,25.721-26.061c3.237-3.258,7.034-3.722,10.887-1.321
				c3.779,2.354,4.52,6.063,3.223,10.063c-0.482,1.489-1.699,2.844-2.845,3.998c-9.843,9.924-19.711,19.821-29.646,29.652
				c-4.692,4.644-9.178,4.589-13.872-0.016c-3.92-3.845-7.858-7.677-11.625-11.669c-3.616-3.832-3.696-8.647-0.466-12.062
				c3.277-3.462,8.675-3.544,12.485,0.115C212.509,206.028,214.228,208.525,216.504,211.268z"/>
		</g>
		<g display="none">
			<path display="inline" d="M466.326,589.463c-2.033-0.612-4.113-1.107-6.096-1.858c-5.413-2.054-9.849-5.441-13.155-10.209
				c-18.51-26.69-37.086-53.335-55.454-80.121c-8.817-12.855-1.447-31.109,13.531-34.03c5.195-1.014,9.842,0.504,13.865,3.872
				c8.65,7.239,17.239,14.55,25.945,21.721c1.088,0.896,2.755,1.567,4.127,1.523c1.96-0.063,2.983-1.95,2.986-4.511
				c0.006-13.063,0-26.125,0-39.188c0.001-20.188-0.03-40.374,0.018-60.561c0.033-13.934,11.277-24.77,25.507-24.699
				c13.371,0.064,24.368,11.329,24.365,24.96c-0.003,19.149-0.009,38.296-0.012,57.444c0,3.499,0.755,4.518,4.123,5.19
				c15.966,3.198,31.925,6.444,47.915,9.511c11.398,2.185,19.52,11.462,19.156,23.02c-0.319,10.149-1.263,20.277-1.955,30.413
				c-0.652,9.545-1.318,19.088-2.015,28.631c-0.815,11.167-1.396,22.359-2.601,33.486c-0.853,7.858-5.779,12.733-13.342,14.938
				c-0.331,0.097-0.628,0.308-0.938,0.466C523.642,589.463,494.984,589.463,466.326,589.463z"/>
		</g>
		<path fill="#214195" d="M174.507,427.151c0-1.319,0-2.298,0-3.28c0-8.657-0.028-17.318,0.009-25.978
			c0.03-6.983,4.503-9.507,10.65-6.03c38.212,21.626,76.419,43.254,114.626,64.884c6.374,3.609,6.329,8.488-0.107,12.128
			c-38.127,21.582-76.251,43.176-114.416,64.697c-1.613,0.912-3.634,1.685-5.43,1.616c-3.428-0.137-5.298-2.872-5.318-7.104
			c-0.044-8.658-0.015-17.319-0.015-25.982c0-1.086,0-2.168,0-3.71c-1.277,0-2.344,0-3.41,0c-31.912,0-63.823,0-95.735,0
			c-6.77-0.003-8.516-1.73-8.517-8.455c-0.006-18.139-0.017-36.281,0.022-54.42c0.004-1.619,0.006-3.372,0.605-4.828
			c1.266-3.06,4.054-3.565,7.155-3.563c32.098,0.04,64.194,0.024,96.292,0.024C172.012,427.151,173.102,427.151,174.507,427.151z"/>
	</g>
</g>
<g id="BACK_ACTION" display="none">
	<g display="inline">
		<g>
			<path fill="#0C8543" d="M225.539,88.842c0-9.692-0.015-18.66,0.004-27.629c0.016-7.774,2.797-10.644,10.385-10.646
				c58.329-0.021,116.658-0.029,174.988-0.029c7.812,0,10.696,3.006,10.684,10.947c-0.018,8.953-0.004,17.906-0.004,27.359
				c2.827,0,5.117,0,7.408,0c22.331,0,44.664-0.081,66.994,0.024c17.86,0.085,28.245,10.596,28.246,28.361
				c0.009,126.49,0.017,252.981-0.045,379.473c-0.002,4.466-0.129,9.085-1.236,13.364c-2.89,11.16-12.937,18.359-25.019,18.366
				c-69.494,0.037-138.987,0.026-208.482,0.031c-45.164,0.004-90.328,0.042-135.491-0.044c-4.456-0.01-9.098-0.112-13.328-1.315
				c-11.169-3.178-17.702-13.199-17.729-26.598c-0.071-34.83-0.02-69.662-0.02-104.493c0-91.66-0.018-183.322,0.05-274.982
				c0.003-4.629,0.105-9.429,1.282-13.852c3.067-11.528,13.077-18.271,26.633-18.331c21.665-0.099,43.33-0.016,64.996-0.01
				C218.844,88.844,221.831,88.842,225.539,88.842z M225.518,106.53c-1.588-0.16-2.708-0.37-3.827-0.371
				c-23.994-0.017-47.986-0.047-71.98,0.015c-6.75,0.018-9.469,2.931-9.485,9.948c-0.036,15.496,0.01,30.992,0.011,46.487
				c0.006,112.305,0.001,224.608,0.021,336.912c0.001,9.729,2.219,11.912,12.155,11.917c67.647,0.031,135.297,0.03,202.944,0.035
				c46.821,0.004,93.642-0.012,140.463,0.021c4.2,0.003,8.349-0.408,10.091-4.769c0.999-2.499,0.94-5.52,0.943-8.304
				c0.045-55.652,0.028-111.306,0.027-166.957c-0.002-71.314,0.011-142.629-0.019-213.942c-0.004-9.309-2.173-11.334-11.553-11.339
				c-22.494-0.013-44.988-0.028-67.481-0.043c-1.936-0.001-3.871,0-6.251,0c0,9.617,0.007,18.58-0.002,27.543
				c-0.008,7.968-2.793,10.757-10.806,10.759c-58.151,0.017-116.304,0.027-174.456,0.027c-7.854,0-10.809-3.013-10.8-10.854
				C225.525,124.662,225.518,115.706,225.518,106.53z M404.36,67.852c-54.113,0-107.813,0-161.419,0c0,20.037,0,39.733,0,59.364
				c54.01,0,107.584,0,161.419,0C404.36,107.377,404.36,87.795,404.36,67.852z"/>
			<g>
				<path fill="#D81F37" d="M368.422,204.224c22.471,0.002,44.94,0.047,67.41-0.034c4.754-0.018,8.618,1.135,10.302,6.034
					c1.993,5.801-2.565,11.113-9.638,11.136c-19.142,0.059-38.283,0.034-57.426,0.035c-25.967,0.001-51.934-0.038-77.899,0.021
					c-4.715,0.012-8.69-1.126-10.433-5.923c-2.129-5.866,1.984-11.145,8.773-11.207c12.816-0.116,25.633-0.056,38.45-0.063
					C348.115,204.219,358.27,204.223,368.422,204.224z"/>
				<path fill="#D81F37" d="M368.629,419.318c22.633,0,45.266-0.021,67.896,0.016c5.586,0.009,8.82,2.261,9.823,6.566
					c1.328,5.705-3.142,10.438-10.08,10.464c-17.308,0.063-34.615,0.049-51.922,0.048c-27.959-0.002-55.917,0.008-83.875-0.046
					c-5.994-0.012-9.579-2.78-10.109-7.474c-0.637-5.63,2.973-9.511,9.372-9.563c14.811-0.12,29.621-0.048,44.433-0.052
					c8.153-0.002,16.309,0,24.463,0C368.629,419.291,368.629,419.305,368.629,419.318z"/>
				<path fill="#D81F37" d="M368.572,275.726c21.832,0.002,43.664,0,65.496,0.005c1.499,0,3.019-0.093,4.493,0.104
					c4.805,0.644,8.033,4.251,7.942,8.724c-0.094,4.548-3.316,8.077-8.328,8.218c-9.658,0.27-19.328,0.184-28.993,0.184
					c-35.663,0-71.327-0.021-106.991-0.053c-1.661-0.001-3.353,0.004-4.977-0.289c-4.096-0.74-6.49-3.257-6.838-7.432
					c-0.343-4.117,1.418-7.203,5.328-8.618c1.82-0.658,3.905-0.805,5.872-0.811C323.908,275.705,346.24,275.724,368.572,275.726z"/>
				<path fill="#D81F37" d="M368.441,364.504c-22.637,0-45.272,0.006-67.911-0.005c-6.47-0.003-10.109-2.962-10.227-8.244
					c-0.121-5.525,3.583-8.691,10.313-8.694c45.106-0.021,90.214-0.03,135.32-0.021c5.829,0.001,9.37,2.303,10.422,6.578
					c1.364,5.553-2.955,10.386-9.509,10.397c-22.803,0.047-45.605,0.019-68.409,0.019
					C368.441,364.522,368.441,364.513,368.441,364.504z"/>
				<path fill="#D81F37" d="M216.293,282.792c8.458-8.499,15.841-15.921,23.229-23.337c1.057-1.061,2.069-2.178,3.22-3.128
					c3.692-3.051,8.513-2.88,11.717,0.34c3.209,3.226,3.602,8.229,0.233,11.682c-10.564,10.835-21.278,21.526-32.111,32.095
					c-3.28,3.199-7.936,3.132-11.299,0.034c-4.644-4.277-9.118-8.757-13.426-13.374c-3.285-3.521-3.019-8.403,0.207-11.671
					c3.446-3.49,8.197-3.619,11.996,0.002C212.205,277.48,213.931,279.969,216.293,282.792z"/>
				<path fill="#D81F37" d="M216.254,354.547c9.202-9.239,17.406-17.499,25.639-25.731c3.338-3.34,7.157-4.237,11.262-1.563
					c3.499,2.276,4.48,5.765,3.283,9.614c-0.511,1.646-1.758,3.193-3.005,4.453c-9.834,9.938-19.713,19.833-29.657,29.662
					c-4.79,4.734-9.018,4.7-13.879,0.002c-3.829-3.701-7.624-7.445-11.271-11.323c-3.887-4.13-4.043-8.936-0.659-12.454
					c3.544-3.686,8.525-3.611,12.784,0.51C212.764,349.662,214.309,352.096,216.254,354.547z"/>
				<path fill="#D81F37" d="M216.504,211.268c9.151-9.28,17.41-17.696,25.721-26.061c3.237-3.258,7.034-3.722,10.887-1.321
					c3.779,2.354,4.52,6.063,3.223,10.063c-0.482,1.489-1.699,2.844-2.845,3.998c-9.843,9.924-19.711,19.821-29.646,29.652
					c-4.692,4.644-9.178,4.589-13.872-0.016c-3.92-3.845-7.858-7.677-11.625-11.669c-3.616-3.832-3.696-8.647-0.466-12.062
					c3.277-3.462,8.675-3.544,12.485,0.115C212.509,206.028,214.228,208.525,216.504,211.268z"/>
			</g>
		</g>
		<g>
			<circle fill="#214195" cx="170.278" cy="506" r="119.898"/>
			<path fill="#FFFFFF" d="M179.256,477.421c0-1.061,0-1.846,0-2.635c0-6.949,0.021-13.902-0.007-20.854
				c-0.024-5.606-3.615-7.632-8.55-4.841c-30.677,17.36-61.349,34.724-92.021,52.088c-5.117,2.896-5.081,6.813,0.086,9.734
				c30.608,17.326,61.213,34.661,91.851,51.938c1.296,0.731,2.918,1.352,4.359,1.298c2.751-0.11,4.253-2.306,4.271-5.703
				c0.035-6.951,0.012-13.904,0.012-20.857c0-0.872,0-1.741,0-2.979c1.024,0,1.882,0,2.738,0c25.617,0,51.235,0,76.854,0
				c5.436-0.003,6.836-1.39,6.837-6.788c0.004-14.562,0.015-29.126-0.018-43.688c-0.003-1.301-0.005-2.707-0.487-3.876
				c-1.016-2.456-3.254-2.862-5.744-2.859c-25.768,0.032-51.535,0.021-77.301,0.021
				C181.259,477.421,180.384,477.421,179.256,477.421z"/>
		</g>
	</g>
</g>
<g id="NEW_ACTION" display="none">
	<g display="inline">
		<g>
			<path fill="#D81F37" d="M225.539,88.842c0-9.692-0.015-18.66,0.004-27.629c0.016-7.774,2.797-10.644,10.385-10.646
				c58.329-0.021,116.658-0.029,174.988-0.029c7.812,0,10.696,3.006,10.684,10.947c-0.018,8.953-0.004,17.906-0.004,27.359
				c2.827,0,5.117,0,7.408,0c22.331,0,44.664-0.081,66.994,0.024c17.86,0.085,28.245,10.596,28.246,28.361
				c0.009,126.49,0.017,252.981-0.045,379.473c-0.002,4.466-0.129,9.085-1.236,13.364c-2.89,11.16-12.937,18.359-25.019,18.366
				c-69.494,0.037-138.987,0.026-208.482,0.031c-45.164,0.004-90.328,0.042-135.491-0.044c-4.456-0.01-9.098-0.112-13.328-1.315
				c-11.169-3.178-17.702-13.199-17.729-26.598c-0.071-34.83-0.02-69.662-0.02-104.493c0-91.66-0.018-183.322,0.05-274.982
				c0.003-4.629,0.105-9.429,1.282-13.852c3.067-11.528,13.077-18.271,26.633-18.331c21.665-0.099,43.33-0.016,64.996-0.01
				C218.844,88.844,221.831,88.842,225.539,88.842z M225.518,106.53c-1.588-0.16-2.708-0.37-3.827-0.371
				c-23.994-0.017-47.986-0.047-71.98,0.015c-6.75,0.018-9.469,2.931-9.485,9.948c-0.036,15.496,0.01,30.992,0.011,46.487
				c0.006,112.305,0.001,224.608,0.021,336.912c0.001,9.729,2.219,11.912,12.155,11.917c67.647,0.031,135.297,0.03,202.944,0.035
				c46.821,0.004,93.642-0.012,140.463,0.021c4.2,0.003,8.349-0.408,10.091-4.769c0.999-2.499,0.94-5.52,0.943-8.304
				c0.045-55.652,0.028-111.306,0.027-166.957c-0.002-71.314,0.011-142.629-0.019-213.942c-0.004-9.309-2.173-11.334-11.553-11.339
				c-22.494-0.013-44.988-0.028-67.481-0.043c-1.936-0.001-3.871,0-6.251,0c0,9.617,0.007,18.58-0.002,27.543
				c-0.008,7.968-2.793,10.757-10.806,10.759c-58.151,0.017-116.304,0.027-174.456,0.027c-7.854,0-10.809-3.013-10.8-10.854
				C225.525,124.662,225.518,115.706,225.518,106.53z M404.36,67.852c-54.113,0-107.813,0-161.419,0c0,20.037,0,39.733,0,59.364
				c54.01,0,107.584,0,161.419,0C404.36,107.377,404.36,87.795,404.36,67.852z"/>
			<g>
				<path fill="#0C8543" d="M368.422,204.224c22.471,0.002,44.94,0.047,67.41-0.034c4.754-0.018,8.618,1.135,10.302,6.034
					c1.993,5.801-2.565,11.113-9.638,11.136c-19.142,0.059-38.283,0.034-57.426,0.035c-25.967,0.001-51.934-0.038-77.899,0.021
					c-4.715,0.012-8.69-1.126-10.433-5.923c-2.129-5.866,1.984-11.145,8.773-11.207c12.816-0.116,25.633-0.056,38.45-0.063
					C348.115,204.219,358.27,204.223,368.422,204.224z"/>
				<path fill="#0C8543" d="M368.572,275.726c21.832,0.002,43.664,0,65.496,0.005c1.499,0,3.019-0.093,4.493,0.104
					c4.805,0.644,8.033,4.251,7.942,8.724c-0.094,4.548-3.316,8.077-8.328,8.218c-9.658,0.27-19.328,0.184-28.993,0.184
					c-35.663,0-71.327-0.021-106.991-0.053c-1.661-0.001-3.353,0.004-4.977-0.289c-4.096-0.74-6.49-3.257-6.838-7.432
					c-0.343-4.117,1.418-7.203,5.328-8.618c1.82-0.658,3.905-0.805,5.872-0.811C323.908,275.705,346.24,275.724,368.572,275.726z"/>
				<path fill="#0C8543" d="M368.441,364.504c-22.637,0-45.272,0.006-67.911-0.005c-6.47-0.003-10.109-2.962-10.227-8.244
					c-0.121-5.525,3.583-8.691,10.313-8.694c45.106-0.021,90.214-0.03,135.32-0.021c5.829,0.001,9.37,2.303,10.422,6.578
					c1.364,5.553-2.955,10.386-9.509,10.397c-22.803,0.047-45.605,0.019-68.409,0.019
					C368.441,364.522,368.441,364.513,368.441,364.504z"/>
				<path fill="#0C8543" d="M216.293,282.792c8.458-8.499,15.841-15.921,23.229-23.337c1.057-1.061,2.069-2.178,3.22-3.128
					c3.692-3.051,8.513-2.88,11.717,0.34c3.209,3.226,3.602,8.229,0.233,11.682c-10.564,10.835-21.278,21.526-32.111,32.095
					c-3.28,3.199-7.936,3.132-11.299,0.034c-4.644-4.277-9.118-8.757-13.426-13.374c-3.285-3.521-3.019-8.403,0.207-11.671
					c3.446-3.49,8.197-3.619,11.996,0.002C212.205,277.48,213.931,279.969,216.293,282.792z"/>
				<path fill="#0C8543" d="M216.254,354.547c9.202-9.239,17.406-17.499,25.639-25.731c3.338-3.34,7.157-4.237,11.262-1.563
					c3.499,2.276,4.48,5.765,3.283,9.614c-0.511,1.646-1.758,3.193-3.005,4.453c-9.834,9.938-19.713,19.833-29.657,29.662
					c-4.79,4.734-9.018,4.7-13.879,0.002c-3.829-3.701-7.624-7.445-11.271-11.323c-3.887-4.13-4.043-8.936-0.659-12.454
					c3.544-3.686,8.525-3.611,12.784,0.51C212.764,349.662,214.309,352.096,216.254,354.547z"/>
				<path fill="#0C8543" d="M216.504,211.268c9.151-9.28,17.41-17.696,25.721-26.061c3.237-3.258,7.034-3.722,10.887-1.321
					c3.779,2.354,4.52,6.063,3.223,10.063c-0.482,1.489-1.699,2.844-2.845,3.998c-9.843,9.924-19.711,19.821-29.646,29.652
					c-4.692,4.644-9.178,4.589-13.872-0.016c-3.92-3.845-7.858-7.677-11.625-11.669c-3.616-3.832-3.696-8.647-0.466-12.062
					c3.277-3.462,8.675-3.544,12.485,0.115C212.509,206.028,214.228,208.525,216.504,211.268z"/>
			</g>
		</g>
	</g>
	<circle display="inline" fill="#214195" cx="466.913" cy="506" r="119.898"/>
	<path display="inline" fill="#FFFFFF" d="M532.465,490.693h-50.244v-50.244c0-6.628-5.373-12-12-12h-6.613c-6.627,0-12,5.372-12,12
		v50.244h-50.244c-6.627,0-11.999,5.373-11.999,12v6.612c0,6.628,5.372,12,11.999,12h50.244v50.245c0,6.627,5.373,12,12,12h6.613
		c6.627,0,12-5.373,12-12v-50.245h50.244c6.627,0,12-5.372,12-12v-6.612C544.465,496.066,539.092,490.693,532.465,490.693z"/>
</g>
<g id="SAVE" display="none">
	<g display="inline">
		<path fill="none" stroke="#D81F37" stroke-width="18" stroke-miterlimit="10" d="M319.498,545.02
			c-58.331,0-116.662,0.006-174.992-0.002c-27.371-0.002-49.479-22.15-49.481-49.564c-0.009-116.829-0.015-233.661-0.015-350.491
			c0-27.798,21.999-49.901,49.659-49.902c98.331-0.004,196.663,0.021,294.992-0.088c3.995-0.004,6.738,1.145,9.552,3.976
			c30.772,30.977,61.727,61.776,92.465,92.79c1.829,1.845,3.171,5.096,3.176,7.695c0.158,98.997,0.15,197.994,0.123,296.992
			c-0.008,25.955-22.571,48.565-48.482,48.584C437.494,545.048,378.496,545.02,319.498,545.02z M145.346,145.242
			c0,33.451,0,66.502,0,99.416c83.404,0,166.449,0,249.406,0c0-33.333,0-66.265,0-99.416
			C311.555,145.242,228.629,145.242,145.346,145.242z M394.89,420.248c0.006-41.19-33.458-75.069-74.175-75.094
			c-41.649-0.024-75.57,33.26-75.595,74.176c-0.025,42.099,33.27,75.591,75.174,75.621
			C361.161,494.98,394.884,461.21,394.89,420.248z"/>
	</g>
	<g id="Layer_8" display="inline">
		<g>
			<path fill="#214195" d="M414.843,347.16c-1.376,0-2.398,0-3.425,0c-9.036,0-18.079,0.029-27.117-0.009
				c-7.29-0.032-9.925-4.702-6.296-11.119c22.576-39.888,45.153-79.774,67.732-119.658c3.768-6.653,8.86-6.604,12.658,0.111
				c22.53,39.802,45.071,79.599,67.537,119.438c0.954,1.686,1.76,3.795,1.689,5.671c-0.143,3.578-2.999,5.528-7.416,5.551
				c-9.04,0.047-18.083,0.016-27.124,0.016c-1.134,0-2.265,0-3.873,0c0,1.333,0,2.447,0,3.562c0,33.313,0,66.626,0,99.937
				c-0.005,7.068-1.808,8.891-8.826,8.893c-18.937,0.007-37.873,0.019-56.81-0.023c-1.688-0.003-3.52-0.005-5.04-0.631
				c-3.191-1.322-3.723-4.233-3.719-7.47c0.04-33.507,0.026-67.014,0.026-100.52C414.843,349.764,414.843,348.628,414.843,347.16z"
				/>
		</g>
	</g>
</g>
<g id="NOTIFICATION" display="none">
	<g display="inline">
		<path fill="#214195" d="M187.69,432.036c0-7.553-0.154-14.926,0.105-22.286c0.066-1.896,1.022-4.104,2.275-5.565
			c9.926-11.584,15.487-25.336,19.826-39.648c7.054-23.261,9.536-47.196,9.582-71.396c0.038-19.575,3.489-38.226,13.745-55.185
			c12.175-20.133,30.381-32.474,52.247-39.962c3.412-1.168,6.916-2.068,10.614-3.163c0-5.938-0.016-11.844,0.002-17.75
			c0.041-13.274,10.373-23.997,23.493-24.397c12.876-0.395,23.578,9.345,24.431,22.527c0.352,5.443,0.25,10.928,0.105,16.387
			c-0.063,2.43,0.839,3.232,3.117,3.841c20.838,5.554,38.977,15.62,52.854,32.484c11.299,13.729,17.753,29.651,19.465,47.217
			c1.334,13.682,1.172,27.504,2.239,41.221c2.004,25.774,6.951,50.877,19.188,74.006c2.271,4.294,5.448,8.1,7.958,12.279
			c1.378,2.294,3.028,4.853,3.177,7.375c0.427,7.235,0.149,14.514,0.149,22.018C364.059,432.036,276.109,432.036,187.69,432.036z"/>
		<path fill="#214195" d="M351.129,446.059c4.808,13.399-2.575,30.485-16.24,37.362c-11.802,5.938-23.503,5.168-34.089-2.688
			c-10.627-7.887-14.99-18.771-12.916-32.03c0.25-1.601,0.598-2.688,2.662-2.684C310.676,446.085,330.806,446.059,351.129,446.059z"
			/>
	</g>
	<circle display="inline" fill="none" stroke="#D81F37" stroke-width="18" stroke-miterlimit="10" cx="320" cy="320" r="242.524"/>
</g>
<g id="VALIDATE_DATA" display="none">
	<g display="inline">
		<circle fill="#214195" cx="320" cy="312.715" r="207.143"/>
		<g>
			<path fill="#FFFFFF" d="M369.312,242.529c18.846,0.002,37.69,0.04,56.535-0.028c3.985-0.014,7.229,0.952,8.639,5.062
				c1.672,4.865-2.149,9.32-8.083,9.339c-16.052,0.049-32.104,0.029-48.16,0.03c-21.777,0.001-43.556-0.032-65.331,0.018
				c-3.954,0.009-7.288-0.944-8.748-4.967c-1.786-4.92,1.664-9.347,7.356-9.399c10.748-0.098,21.497-0.047,32.247-0.053
				C352.281,242.524,360.798,242.528,369.312,242.529z"/>
			<path fill="#FFFFFF" d="M369.438,302.496c18.311,0.001,36.619,0,54.93,0.004c1.257,0,2.53-0.079,3.769,0.087
				c4.029,0.539,6.735,3.566,6.661,7.316c-0.078,3.814-2.78,6.774-6.984,6.894c-8.1,0.227-16.209,0.152-24.315,0.152
				c-29.908,0-59.818-0.019-89.729-0.044c-1.394-0.001-2.813,0.003-4.174-0.242c-3.436-0.62-5.443-2.73-5.735-6.232
				c-0.288-3.452,1.188-6.041,4.469-7.229c1.526-0.552,3.274-0.675,4.925-0.679C331.979,302.479,350.709,302.494,369.438,302.496z"
				/>
			<path fill="#FFFFFF" d="M369.328,376.95c-18.984,0-37.971,0.005-56.955-0.003c-5.427-0.003-8.479-2.483-8.576-6.915
				c-0.103-4.635,3.005-7.29,8.647-7.292c37.83-0.018,75.659-0.024,113.489-0.019c4.889,0.001,7.857,1.932,8.74,5.518
				c1.144,4.656-2.479,8.709-7.977,8.721c-19.124,0.038-38.247,0.016-57.37,0.016C369.328,376.967,369.328,376.96,369.328,376.95z"
				/>
			<path fill="#FFFFFF" d="M241.727,308.423c7.094-7.129,13.285-13.354,19.481-19.573c0.886-0.89,1.733-1.826,2.699-2.623
				c3.097-2.559,7.139-2.416,9.825,0.285c2.692,2.704,3.021,6.899,0.197,9.796c-8.861,9.087-17.847,18.055-26.933,26.917
				c-2.75,2.683-6.654,2.626-9.476,0.028c-3.896-3.587-7.647-7.344-11.261-11.216c-2.755-2.952-2.531-7.048,0.174-9.789
				c2.891-2.927,6.875-3.035,10.061,0.001C238.297,303.967,239.745,306.054,241.727,308.423z"/>
			<path fill="#FFFFFF" d="M241.693,368.6c7.718-7.749,14.599-14.676,21.503-21.58c2.8-2.801,6.002-3.554,9.444-1.312
				c2.936,1.908,3.757,4.834,2.753,8.063c-0.429,1.379-1.474,2.678-2.521,3.734c-8.248,8.335-16.533,16.634-24.872,24.877
				c-4.018,3.971-7.563,3.94-11.641,0.001c-3.211-3.104-6.394-6.244-9.453-9.496c-3.259-3.463-3.391-7.493-0.553-10.444
				c2.974-3.092,7.149-3.03,10.723,0.427C238.766,364.505,240.063,366.545,241.693,368.6z"/>
			<path fill="#FFFFFF" d="M241.903,248.437c7.677-7.783,14.603-14.841,21.571-21.855c2.715-2.731,5.899-3.122,9.13-1.108
				c3.17,1.975,3.79,5.085,2.703,8.44c-0.405,1.249-1.425,2.385-2.386,3.354c-8.255,8.322-16.531,16.624-24.864,24.869
				c-3.935,3.895-7.696,3.849-11.633-0.013c-3.288-3.225-6.591-6.438-9.749-9.787c-3.033-3.214-3.101-7.253-0.391-10.115
				c2.748-2.903,7.274-2.973,10.47,0.097C238.553,244.042,239.993,246.137,241.903,248.437z"/>
		</g>
	</g>
	<g display="inline">
		<path fill="#D81F37" d="M489.84,538.277c-0.866,2.412-1.4,5.018-2.66,7.204c-4.91,8.521-12.027,13.732-22.247,13.593
			c-5.491-0.072-10.517-1.862-14.467-5.697c-8.446-8.194-16.762-16.528-25.007-24.925c-5.147-5.239-7.153-11.657-6.269-18.965
			c0.046-0.377,0.036-0.763,0.063-1.354c-18.489,11.705-37.993,14.256-58.446,6.706c-13.904-5.132-24.579-14.409-32.103-27.186
			c-15.073-25.593-10.179-58.49,11.623-78.666c21.949-20.313,55.231-22.623,79.564-5.387c13.609,9.64,22.289,22.689,25.615,39.05
			c3.314,16.304,0.554,31.698-8.058,46.256c4.069-0.907,7.9-0.955,11.7,0.049c3.924,1.035,7.361,2.966,10.238,5.834
			c7.942,7.924,15.879,15.854,23.796,23.8c3.366,3.379,5.481,7.43,6.315,12.141c0.057,0.315,0.224,0.611,0.338,0.915
			C489.84,533.855,489.84,536.066,489.84,538.277z M383.438,415.104c-22.346-0.002-40.43,18.041-40.523,40.434
			c-0.095,22.162,18.175,40.616,40.461,40.548c23.507-0.072,40.553-19.071,40.548-40.398
			C423.914,433.173,405.909,415.104,383.438,415.104z"/>
		<path fill="#D81F37" d="M350.487,457.026c0.333-12.079,4.453-20.798,12.776-27.444c3.107-2.481,7.219-2.046,9.586,0.918
			c2.341,2.935,1.763,7.021-1.295,9.555c-6.574,5.451-8.916,12.354-6.958,20.677c0.973,4.137-0.843,7.576-4.596,8.586
			c-3.44,0.927-7.082-0.881-8.002-4.319C351.18,461.934,350.803,458.753,350.487,457.026z"/>
	</g>
</g>
<g id="ERROR" display="none">
	<g display="inline">
		<path fill="#214195" d="M73.409,463.677c0.701-3.339,1.037-6.811,2.187-9.986c1.983-5.484,4.017-11.035,6.814-16.126
			c64.552-117.502,129.212-234.944,193.846-352.4c5.588-10.153,12.66-18.978,22.825-24.877c16.302-9.461,35.323-7.213,49.774,5.646
			c6.412,5.706,11.28,12.554,15.391,20.023c57.278,104.117,114.574,208.227,171.86,312.34c7.745,14.076,15.538,28.129,23.167,42.27
			c4.386,8.128,7.069,16.856,7.3,26.126c0.534,21.53-11.696,38.526-32.568,44.654c-6.268,1.84-12.981,3.019-19.493,3.026
			c-130.007,0.171-260.014,0.185-390.021,0.044c-14.391-0.016-27.622-4.281-38.231-14.604c-7.074-6.884-11.167-15.357-12.393-25.187
			c-0.06-0.475-0.302-0.926-0.458-1.388C73.409,470.052,73.409,466.862,73.409,463.677z M319.984,477.273c15.35,0,30.699,0,46.047,0
			c48.731,0,97.463,0.037,146.194-0.07c3.879-0.009,7.875-0.596,11.602-1.665c4.785-1.374,6.602-4.738,5.29-9.571
			c-1.04-3.832-2.496-7.654-4.4-11.135c-21.019-38.391-42.162-76.713-63.271-115.054c-43.307-78.663-86.599-157.334-129.965-235.963
			c-1.843-3.341-4.098-6.555-6.662-9.371c-3.43-3.766-6.146-3.771-9.563-0.047c-2.521,2.745-4.738,5.878-6.555,9.137
			c-10.431,18.712-20.694,37.516-31.025,56.283c-54.239,98.531-108.493,197.055-162.671,295.618
			c-1.75,3.186-3.071,6.698-4.014,10.214c-1.401,5.224,0.413,8.567,5.632,10.021c3.654,1.02,7.57,1.533,11.371,1.539
			C191.99,477.3,255.987,477.273,319.984,477.273z"/>
		<g>
			<path fill="#D81F37" d="M341.805,272.64c-0.001,21.131-0.146,42.265,0.055,63.395c0.115,12.146-7.982,20.27-16.404,22.608
				c-13.691,3.805-28.014-6.501-28.053-20.728c-0.116-43.521-0.097-87.042-0.003-130.563c0.025-11.624,10.188-21.313,21.983-21.438
				c11.677-0.123,22.11,9.283,22.262,20.815c0.282,21.547,0.132,43.1,0.161,64.649C341.806,271.801,341.805,272.22,341.805,272.64z"
				/>
			<path fill="#D81F37" d="M319.837,426.047c-12.277-0.055-22.225-9.979-22.274-22.224c-0.051-12.289,10.07-22.346,22.443-22.3
				c12.459,0.046,22.248,9.958,22.187,22.468C342.133,416.281,332.179,426.102,319.837,426.047z"/>
		</g>
	</g>
</g>
<g id="SUCCESS" display="none">
	<g display="inline">
		<path fill="#214195" d="M309.716,144.496c6.855,0,13.711,0,20.567,0c0.985,0.215,1.961,0.558,2.956,0.627
			c24.798,1.75,48.259,8.35,69.931,20.46c48.989,27.38,79.043,68.669,89.631,123.903c1.151,6.01,1.813,12.113,2.703,18.174
			c0,8.228,0,16.453,0,24.682c-0.224,0.992-0.574,1.976-0.652,2.979c-1.287,16.601-4.746,32.766-11.127,48.109
			c-24.805,59.641-68.789,96.307-132.195,109.349c-5.657,1.165-11.418,1.829-17.133,2.727c-9.598,0-19.194,0-28.793,0
			c-3.695-0.528-7.396-1.022-11.085-1.592c-35.108-5.409-66.055-19.75-92.339-43.689c-29.402-26.781-47.799-59.804-54.918-98.992
			c-1.137-6.258-1.854-12.592-2.766-18.89c0-8.229,0-16.454,0-24.682c0.514-3.938,0.973-7.885,1.549-11.813
			c4.99-33.999,18.357-64.277,40.943-90.221c28.484-32.72,64.225-52.561,107.21-59.093
			C299.356,145.751,304.543,145.171,309.716,144.496z M320.125,188.559c-73.059,0.131-131.851,59.105-131.732,132.144
			c0.116,72.508,59.341,131.211,132.499,130.922c71.309-0.28,130.556-57.86,130.642-131.353
			C451.616,247.316,392.475,188.43,320.125,188.559z"/>
		<path fill="#D81F37" d="M298.564,333.2c1.026-1.359,1.735-2.567,2.693-3.527c22.833-22.871,45.657-45.751,68.559-68.551
			c10.521-10.474,26.762-8.882,34.584,3.234c5.578,8.638,4.441,19.836-2.979,27.355c-10.189,10.321-20.5,20.521-30.75,30.78
			c-19.049,19.063-38.097,38.129-57.141,57.196c-8.278,8.29-22.313,8.547-30.608,0.324c-14.759-14.631-29.397-29.384-44.071-44.102
			c-6.289-6.307-8.247-13.912-5.707-22.324c2.517-8.337,8.468-13.423,17-15.102c7.464-1.47,14.054,0.739,19.454,6.022
			c8.731,8.547,17.32,17.238,25.974,25.862C296.29,331.092,297.048,331.771,298.564,333.2z"/>
	</g>
</g>
<g id="ABOUT" display="none">
	<path display="inline" fill="#214195" d="M309.716,144.496c6.855,0,13.711,0,20.567,0c0.985,0.215,1.961,0.558,2.956,0.627
		c24.798,1.75,48.259,8.35,69.931,20.46c48.989,27.38,79.043,68.669,89.631,123.903c1.151,6.01,1.813,12.113,2.703,18.174
		c0,8.228,0,16.453,0,24.682c-0.224,0.992-0.574,1.976-0.652,2.979c-1.287,16.601-4.746,32.766-11.127,48.109
		c-24.805,59.641-68.789,96.307-132.195,109.349c-5.657,1.165-11.418,1.829-17.133,2.727c-9.598,0-19.194,0-28.793,0
		c-3.695-0.528-7.396-1.022-11.085-1.592c-35.108-5.409-66.055-19.75-92.339-43.689c-29.402-26.781-47.799-59.804-54.918-98.992
		c-1.137-6.258-1.854-12.592-2.766-18.89c0-8.229,0-16.454,0-24.682c0.514-3.938,0.973-7.885,1.549-11.813
		c4.99-33.999,18.357-64.277,40.943-90.221c28.484-32.72,64.225-52.561,107.21-59.093
		C299.356,145.751,304.543,145.171,309.716,144.496z M320.125,188.559c-73.059,0.131-131.851,59.105-131.732,132.144
		c0.116,72.508,59.341,131.211,132.499,130.922c71.309-0.28,130.556-57.86,130.642-131.353
		C451.616,247.316,392.475,188.43,320.125,188.559z"/>
	<g display="inline">
		<path fill="#D81F37" d="M340.195,350.052c-0.027,19.975,0.112,39.953-0.149,59.926c-0.14,10.689-9.812,19.408-20.635,19.294
			c-10.934-0.115-20.354-9.097-20.377-19.871c-0.087-40.34-0.105-80.682,0.003-121.022c0.036-13.187,13.312-22.74,26.003-19.213
			c7.807,2.168,15.313,9.698,15.205,20.957c-0.186,19.586-0.052,39.176-0.051,58.762
			C340.194,349.274,340.195,349.663,340.195,350.052z"/>
		<path fill="#D81F37" d="M340.553,227.133c0.058,11.595-9.017,20.783-20.565,20.826c-11.469,0.042-20.851-9.279-20.803-20.67
			c0.046-11.35,9.266-20.549,20.646-20.6C331.272,206.637,340.498,215.74,340.553,227.133z"/>
	</g>
</g>
<g id="HELP">
	<path fill="#214195" d="M309.716,144.496c6.855,0,13.711,0,20.567,0c0.985,0.215,1.961,0.558,2.956,0.627
		c24.798,1.75,48.259,8.35,69.931,20.46c48.989,27.38,79.043,68.669,89.631,123.903c1.151,6.01,1.813,12.113,2.703,18.174
		c0,8.228,0,16.453,0,24.682c-0.224,0.992-0.574,1.976-0.652,2.979c-1.287,16.601-4.746,32.766-11.127,48.109
		c-24.805,59.641-68.789,96.307-132.195,109.349c-5.657,1.165-11.418,1.829-17.133,2.727c-9.598,0-19.194,0-28.793,0
		c-3.695-0.528-7.396-1.022-11.085-1.592c-35.108-5.409-66.055-19.75-92.339-43.689c-29.402-26.781-47.799-59.804-54.918-98.992
		c-1.137-6.258-1.854-12.592-2.766-18.89c0-8.229,0-16.454,0-24.682c0.514-3.938,0.973-7.885,1.549-11.813
		c4.99-33.999,18.357-64.277,40.943-90.221c28.484-32.72,64.225-52.561,107.21-59.093
		C299.356,145.751,304.543,145.171,309.716,144.496z M320.125,188.559c-73.059,0.131-131.851,59.105-131.732,132.144
		c0.116,72.508,59.341,131.211,132.499,130.922c71.309-0.28,130.556-57.86,130.642-131.353
		C451.616,247.316,392.475,188.43,320.125,188.559z"/>
	<g>
		<path fill="#D81F37" d="M260.948,279.284c0-7.605,2.442-15.313,7.327-23.12c4.883-7.806,12.011-14.271,21.378-19.396
			c9.369-5.123,20.297-7.686,32.788-7.686c11.61,0,21.859,2.143,30.748,6.425c8.888,4.285,15.752,10.109,20.596,17.476
			c4.845,7.366,7.267,15.373,7.267,24.02c0,6.807-1.381,12.772-4.144,17.896c-2.763,5.125-6.045,9.548-9.849,13.271
			c-3.804,3.724-10.628,9.989-20.477,18.796c-2.723,2.482-4.907,4.667-6.546,6.546c-1.644,1.882-2.862,3.602-3.663,5.163
			s-1.424,3.122-1.862,4.684c-0.442,1.562-1.101,4.307-1.981,8.23c-1.521,8.327-6.286,12.488-14.292,12.488
			c-4.165,0-7.668-1.358-10.51-4.083c-2.842-2.721-4.264-6.765-4.264-12.129c0-6.727,1.04-12.552,3.123-17.477
			c2.082-4.924,4.843-9.248,8.287-12.971c3.442-3.722,8.087-8.146,13.932-13.271c5.125-4.483,8.828-7.867,11.11-10.148
			c2.282-2.282,4.201-4.823,5.763-7.627c1.562-2.801,2.345-5.844,2.345-9.128c0-6.405-2.385-11.809-7.146-16.214
			c-4.767-4.402-10.91-6.605-18.437-6.605c-8.809,0-15.294,2.221-19.457,6.665c-4.164,4.444-7.686,10.99-10.568,19.637
			c-2.723,9.049-7.887,13.572-15.493,13.572c-4.485,0-8.269-1.58-11.35-4.744C262.49,286.391,260.948,282.969,260.948,279.284z
			 M319.56,410.918c-4.886,0-9.149-1.584-12.792-4.744c-3.645-3.161-5.464-7.585-5.464-13.272c0-5.044,1.759-9.286,5.284-12.731
			c3.523-3.438,7.846-5.162,12.972-5.162c5.043,0,9.287,1.724,12.73,5.162c3.443,3.445,5.165,7.688,5.165,12.731
			c0,5.605-1.802,10.01-5.405,13.212C328.447,409.316,324.282,410.918,319.56,410.918z"/>
	</g>
</g>
<g id="PLOT_MODULE" display="none">
	<path display="inline" fill="#214195" d="M315.378,60.963c-56.884,0-103.162,44.084-103.162,98.271
		c0,16.628,4.507,33.085,13.048,47.703c0.099,0.218,0.204,0.433,0.314,0.646l76.701,147.63c2.463,4.741,7.534,7.741,13.087,7.741
		l0,0c5.552,0,10.623-3,13.086-7.737l76.731-147.632c0.123-0.235,0.236-0.473,0.346-0.713c8.518-14.572,13.01-31.003,13.01-47.639
		C418.54,105.047,372.263,60.963,315.378,60.963z M315.39,203.693c-25.75,0-46.699-19.947-46.699-44.467
		c0-24.527,20.949-44.482,46.699-44.482c25.749,0,46.696,19.955,46.696,44.482C362.086,183.746,341.139,203.693,315.39,203.693z"/>
	<g display="inline">
		<path fill="#D81F37" d="M240.763,293.063c-16.184,0-31.538,0-47.964,0c1.23,2.16,1.77,3.307,2.469,4.304
			c39.427,56.182,78.896,112.323,118.233,168.587c2.333,3.337,4.146,3.793,7.538,2.226c31.582-14.603,63.24-28.985,94.875-43.441
			c1.134-0.519,2.233-1.133,3.816-1.94c-22.745-23.138-45.208-45.985-68.013-69.183c1.726-2.333,3.288-4.44,5.165-6.979
			c23.59,23.959,46.981,47.718,70.671,71.775c25.239-22.392,50.296-44.625,76.077-67.5c-35.604-20.713-70.681-41.119-106.068-61.709
			c2.788-5.007,5.365-9.636,8.174-14.681c6.61,3.826,13.125,7.583,19.629,11.364c31.246,18.166,62.492,36.334,93.732,54.513
			c7.996,4.653,8.574,11.172,1.502,17.455c-28.486,25.303-56.955,50.631-85.554,75.768c-2.895,2.543-6.524,4.114-9.969,5.691
			c-32.397,14.832-64.85,29.515-97.219,44.43c-2.545,1.173-5.046,3.337-6.796,5.769c-17.996,24.986-35.813,50.141-53.72,75.212
			c-6.121,8.569-10.542,8.403-15.911-0.623c-44.931-75.545-89.84-151.107-134.744-226.674c-3.517-5.919-2.889-10.21,2.185-14.192
			c18.979-14.9,37.967-29.788,57.046-44.521c1.841-1.422,4.32-2.382,6.531-2.453c15.531-0.503,31.07-0.757,46.608-0.938
			c1.134-0.014,2.743,0.834,3.34,1.876C235.125,281.957,237.57,286.927,240.763,293.063z M182.798,294.267
			c-16.723,13.09-33.241,26.019-50.076,39.196c42.537,71.567,84.784,142.649,127.261,214.117
			c17.223-24.183,33.923-47.635,50.697-71.188C267.944,415.528,225.494,355.072,182.798,294.267z"/>
	</g>
</g>
<g id="IMPORT_PLOT" display="none">
	<path display="inline" fill="#214195" d="M132.165,279.179c15.181,0,27.466-12.292,27.466-27.476c0-2.779-0.848-5.221-1.586-7.661
		c35.025-28.353,97.04-78.121,125.251-99.959c4.475,3.18,9.703,5.37,15.479,5.37c4.922,0,9.247-1.602,13.134-3.784
		c18.259,15.479,49.061,41.65,71.016,60.311c-0.26,1.593-1.004,3.038-1.004,4.631c0,15.173,12.448,27.475,27.624,27.475
		c15.18,0,27.473-12.301,27.473-27.475c0-2.59-0.854-5.08-1.593-7.513l71.017-64.055c3.775,1.995,7.951,3.438,12.435,3.438
		c15.182,0,27.514-12.292,27.514-27.475c0-15.182-12.332-27.458-27.514-27.458c-15.032,0-27.324,12.277-27.324,27.458
		c0,3.636,0.737,7.113,2.04,10.26c-19.813,17.812-50.505,45.427-69.423,62.649c-4.334-2.748-9.257-4.772-14.623-4.772
		c-6.519,0-12.146,2.591-16.918,6.357c-18.07-15.471-47.429-40.355-68.277-58.009c1.188-3.045,1.894-6.076,1.894-9.372
		c0-15.214-12.293-27.506-27.326-27.506c-15.182,0-27.474,12.292-27.474,27.506c0,3.296,0.706,6.483,1.854,9.372l-125.95,97.918
		c-4.333-2.874-9.404-5.063-15.181-5.063c-15.174,0-27.476,12.293-27.476,27.355C104.69,266.886,116.991,279.179,132.165,279.179
		L132.165,279.179z"/>
	<g id="Layer_8_copy" display="inline">
		<g>
			<path fill="#D81F37" d="M349.583,356.489c1.985,0,3.462,0,4.944,0c13.043,0,26.099-0.043,39.146,0.014
				c10.522,0.046,14.326,6.787,9.088,16.051c-32.591,57.583-65.183,115.163-97.779,172.737c-5.438,9.605-12.791,9.535-18.272-0.16
				c-32.524-57.459-65.064-114.91-97.497-172.419c-1.377-2.435-2.541-5.479-2.44-8.188c0.206-5.166,4.33-7.98,10.706-8.013
				c13.05-0.068,26.104-0.022,39.156-0.022c1.637,0,3.27,0,5.593,0c0-1.925,0-3.532,0-5.14c0-48.09,0-96.183,0-144.27
				c0.005-10.204,2.607-12.833,12.741-12.836c27.335-0.01,54.674-0.025,82.009,0.034c2.438,0.004,5.081,0.007,7.276,0.911
				c4.605,1.909,5.373,6.11,5.368,10.783c-0.061,48.371-0.039,96.739-0.039,145.107C349.583,352.73,349.583,354.371,349.583,356.489
				z"/>
		</g>
	</g>
</g>
<g id="CERTIFICATE" display="none">
	<g display="inline">
		<path fill="#D81F37" d="M443.404,60.417c5.625,3.246,11.9,5.741,16.716,9.921c6.724,5.833,8.726,14.218,8.712,23.064
			c-0.049,33.465-0.02,66.93-0.021,100.395c0,78.087,0.009,156.172-0.009,234.258c-0.004,16.443-8.565,28.148-23.493,32.284
			c-6.326,1.75-6.903,1.473-9.186-4.63c-1.362-3.646-2.668-7.313-4.227-11.593c2.145,0,3.811,0.07,5.467-0.011
			c8.196-0.401,13.415-5.483,13.972-13.596c0.095-1.408,0.07-2.828,0.07-4.242c0.002-110.292,0.004-220.586-0.009-330.881
			c0-2.038-0.038-4.095-0.294-6.112c-0.689-5.505-4.68-9.921-10.11-11.034c-2.287-0.468-4.67-0.627-7.011-0.627
			c-82.959-0.03-165.915-0.03-248.871-0.001c-2.34,0.002-4.725,0.16-7.013,0.62c-5.481,1.103-9.454,5.461-10.147,10.981
			c-0.253,2.019-0.298,4.074-0.298,6.112c-0.013,110.451-0.02,220.903,0.032,331.354c0.001,2.943,0.056,6.107,1.087,8.783
			c2.53,6.561,8.018,8.698,14.718,8.688c28.908-0.049,57.817-0.02,86.728-0.02c1.699,0,3.397,0,5.668,0
			c-1.706,5.419-3.033,10.406-4.948,15.151c-0.438,1.091-2.893,1.93-4.426,1.938c-21.524,0.127-43.048,0.1-64.574,0.078
			c-7.382-0.009-14.775,0.152-22.145-0.204c-16.228-0.795-28.441-13.061-29.479-29.271c-0.061-0.939-0.068-1.886-0.068-2.828
			c-0.004-112.021-0.017-224.044,0.012-336.066c0.003-13.455,5.854-23.512,18.021-29.592c2.354-1.177,4.908-1.958,7.37-2.922
			C264.9,60.417,354.152,60.417,443.404,60.417z"/>
		<path fill="#214195" d="M400.034,543.133c-7.37-19.618-14.726-39.243-22.121-58.854c-4.079-10.815-8.229-21.604-12.015-31.529
			c-7.984,0.593-15.358,1.139-23.538,1.747c-3.529,11.209-7.375,23.418-11.224,35.623c-2.731,8.662-5.409,17.341-8.265,25.961
			c-0.429,1.29-1.696,2.307-2.575,3.447c-0.94-1.104-2.298-2.063-2.753-3.343c-3.503-9.865-6.832-19.792-10.449-30.385
			c-6.943,4.708-13.521,9.168-20.103,13.625c-1.17,0.792-2.269,1.745-3.538,2.313c-1.46,0.657-3.075,0.964-4.623,1.422
			c-0.055-1.606-0.543-3.353-0.095-4.808c5.352-17.355,10.846-34.67,16.29-51.998c1.072-3.413,2.099-6.839,3.206-10.461
			c-9.645-5.782-15.682-13.927-17.042-25.166c-0.539-4.449-0.678-8.981-1.657-13.331c-0.515-2.278-2.156-4.506-3.795-6.292
			c-12.073-13.164-11.423-33.277,1.86-45.117c3.523-3.141,4.616-6.023,3.896-10.956c-3.476-23.829,16.8-41.702,40.332-36.021
			c1.046,0.253,2.09,0.513,3.369,0.826c4.445-7.619,10.682-13.129,19.149-15.754c13.208-4.091,27.071,0.726,35.626,11.893
			c1.35,1.763,3.745,3.495,5.854,3.779c15.07,2.026,26.977,13.948,28.112,29.053c0.328,4.366,2.204,7.19,5.669,9.609
			c15.654,10.927,18.125,31.757,6.877,46.951c-3.831,5.177-6.04,12.483-6.508,18.998c-0.665,9.318-2.512,17.662-8.912,24.541
			c-1.963,2.106-1.892,3.781-0.952,6.257c10.002,26.358,19.881,52.762,29.796,79.151c0.443,1.175,1.179,2.306,1.303,3.507
			c0.131,1.258-0.311,2.575-0.501,3.862c-1.153-0.219-2.469-0.153-3.439-0.7c-6.832-3.849-13.591-7.827-20.378-11.754
			c-0.669-0.388-1.37-0.722-2.645-1.387c-1.959,6.302-3.786,12.372-5.731,18.407c-1.82,5.646-3.764,11.253-5.653,16.879
			C401.92,543.133,400.978,543.133,400.034,543.133z M408.701,369.514c-0.015-32.324-25.92-58.338-58.182-58.418
			c-32.409-0.082-58.852,26.188-58.842,58.461c0.009,31.979,26.423,58.463,58.414,58.57
			C382.396,428.232,408.718,401.911,408.701,369.514z"/>
		<path fill="#D81F37" d="M216.408,148.19c0-9.055,0-17.67,0-26.686c62.061,0,123.982,0,186.17,0c0,8.833,0,17.566,0,26.686
			C340.675,148.19,278.757,148.19,216.408,148.19z"/>
		<path fill="#D81F37" d="M216.506,183.695c62.247,0,123.924,0,185.969,0c0,8.955,0,17.797,0,26.943c-61.919,0-123.834,0-185.969,0
			C216.506,201.606,216.506,192.894,216.506,183.695z"/>
	</g>
</g>
<g id="PRINT" display="none">
	<g display="inline">
		<g>
			<path fill="#D81F37" d="M159.022,177.278c0-16.074,0-31.376,0-46.678c0-6.5-0.064-13,0.007-19.498
				c0.147-13.337,8.576-21.854,21.973-21.898c28.498-0.096,56.996-0.033,85.494-0.034c69.826-0.003,139.655-0.006,209.482-0.008
				c1.167,0,2.335-0.018,3.5,0.032c12.185,0.521,20.558,9.021,20.612,21.211c0.088,19.665,0.017,39.33,0.013,58.995
				c-0.001,2.314,0,4.629,0,7.565c2.167,0.107,4.075,0.263,5.985,0.287c9.992,0.128,20.05-0.45,29.97,0.464
				c23.46,2.166,39.843,20.453,39.887,44.005c0.092,49.828,0.028,99.658,0.028,149.487c0,16.666,0.048,33.33-0.011,49.995
				c-0.092,25.992-18.731,44.71-44.741,44.929c-10.133,0.086-20.269,0.015-30.756,0.015c-0.146,1.854-0.354,3.291-0.354,4.729
				c-0.014,29.33-0.046,58.661,0.021,87.992c0.032,14.646-7.256,22.1-22.064,22.104c-61.161,0.02-122.322,0-183.484,0
				c-37.164-0.001-74.327,0.019-111.491,0.003c-16.294-0.007-24.108-7.961-24.088-24.287c0.035-28.497,0.018-56.994,0.008-85.491
				c0-1.467-0.133-2.934-0.235-5.045c-8.652,0-17.107,0.282-25.532-0.092c-6.436-0.286-13.125-0.454-19.191-2.328
				c-18.375-5.676-29.846-22.503-29.864-42.772c-0.051-58.996-0.035-117.994,0.007-176.989c0.008-9.323-0.526-18.746,0.599-27.95
				c2.804-22.945,20.395-38.26,43.583-38.71C138.348,177.117,148.329,177.278,159.022,177.278z M158.952,425.144
				c0-2.43,0.001-4.223,0-6.017c-0.007-19.16-0.025-38.32-0.017-57.48c0.007-13.906,8.528-22.545,22.349-22.549
				c97.968-0.025,195.938,0.138,293.903-0.209c14.412-0.051,25.86,7.771,25.174,25.563c-0.72,18.634-0.167,37.315-0.148,55.978
				c0.002,1.446,0.164,2.894,0.276,4.754c9.66,0,18.972-0.193,28.268,0.081c4.69,0.139,6.349-1.283,6.337-6.207
				c-0.146-64.813-0.096-129.624-0.101-194.437c0-6.073-0.298-6.386-6.58-6.382c-18.325,0.012-36.652,0.095-54.979,0.091
				c-113.795-0.023-227.591-0.066-341.386-0.092c-6.729-0.001-6.899,0.214-6.899,7.112c-0.002,35.82-0.001,71.643-0.001,107.464
				c0,28.824-0.002,57.646,0.004,86.471c0.001,2.844-0.44,5.914,3.994,5.88C138.799,425.094,148.454,425.144,158.952,425.144z
				 M458.827,539.77c0-53.278,0-106.16,0-159.229c-86.303,0-172.308,0-258.518,0c0,53.244,0,106.119,0,159.229
				C286.526,539.77,372.422,539.77,458.827,539.77z M458.898,130.564c-86.613,0-172.619,0-258.569,0c0,15.68,0,30.932,0,46.335
				c86.348,0,172.356,0,258.569,0C458.898,161.31,458.898,146.054,458.898,130.564z"/>
		</g>
		<path fill="#214195" d="M480.068,280.167c-4.639-0.312-9.376-0.135-13.897-1.034c-10.423-2.069-17.177-11.638-16.108-22.051
			c1.031-10.064,9.571-17.916,19.961-18.148c6.495-0.146,12.998-0.133,19.494-0.017c12.092,0.219,20.677,8.702,20.75,20.355
			c0.07,11.255-8.448,19.978-20.183,20.542c-3.324,0.16-6.663,0.023-9.996,0.023C480.081,279.948,480.074,280.058,480.068,280.167z"
			/>
		<path fill="#214195" d="M330.498,408.921c27.155,0.003,54.313-0.042,81.47,0.027c8.666,0.022,15.059,4.17,18.634,11.97
			c3.396,7.407,2.468,14.67-2.599,21.146c-4.044,5.169-9.554,7.791-16.068,7.798c-54.479,0.058-108.96,0.092-163.439-0.007
			c-11.846-0.021-20.75-9.115-20.733-20.523c0.017-11.49,8.834-20.331,20.769-20.38
			C275.852,408.843,303.175,408.918,330.498,408.921z"/>
		<path fill="#214195" d="M329.827,517.406c-26.653,0-53.306,0.058-79.958-0.025c-11.987-0.037-20.735-7.188-21.929-17.583
			c-1.457-12.696,7.252-22.854,20.23-23.271c7.655-0.247,15.324-0.07,22.987-0.07c46.142,0.003,92.284-0.01,138.427,0.022
			c11.687,0.009,19.955,5.794,22.313,15.421c3.162,12.912-5.947,25.007-19.619,25.388c-13.315,0.37-26.648,0.142-39.976,0.153
			c-14.159,0.015-28.318,0.004-42.478,0.004C329.827,517.431,329.827,517.419,329.827,517.406z"/>
	</g>
</g>
<g id="SCAN" display="none">
	<g display="inline">
		<path fill="#D81F37" d="M253.489,40c4.345,3.242,9.166,6.004,12.964,9.794c104.575,104.39,209.021,208.909,313.607,313.288
			c5.95,5.938,8.718,12.284,8.653,20.78c-0.3,38.813-0.441,77.633,0.022,116.442c0.182,15.064-10.307,21.549-21.607,21.536
			c-154.761-0.172-309.521-0.127-464.279-0.063c-10.118,0.004-16.444-4.983-20.338-13.837c0-44.328,0-88.656,0-132.983
			c4.412-10.68,12.588-13.976,23.812-13.96c137.119,0.21,274.239,0.138,411.36,0.137c2.305,0,4.611,0,8.313,0
			c-2.62-2.673-4.388-4.505-6.187-6.306c-93.418-93.421-186.675-187.006-280.471-280.047C227.548,63.086,227.06,47.325,244.49,40
			C247.49,40,250.489,40,253.489,40z M119.554,484.7c144.337,0,288.044,0,431.948,0c0-28.96,0-57.654,0-86.432
			c-144.182,0-288.016,0-431.948,0C119.554,427.194,119.554,455.783,119.554,484.7z"/>
		<path fill="#214195" d="M291.972,303.926c42.154,0,84.308-0.005,126.462,0.004c12.049,0.002,20.287,7.596,20.238,18.606
			c-0.046,10.624-8.43,18.202-20.21,18.202c-83.978,0.003-167.952,0-251.928-0.018c-9.775-0.002-16.778-4.577-19.493-12.605
			c-2.487-7.354-0.462-15.75,6.041-20.054c3.509-2.324,8.236-3.9,12.428-3.93c42.152-0.28,84.308-0.171,126.462-0.171
			C291.972,303.95,291.972,303.938,291.972,303.926z"/>
		<path fill="#214195" d="M190.443,441.38c0.022,10.13-8.215,18.439-18.3,18.465c-9.988,0.023-18.471-8.396-18.501-18.365
			s8.403-18.418,18.412-18.445C182.15,423.007,190.421,431.259,190.443,441.38z"/>
	</g>
</g>
<g id="SEARCH" display="none">
	<g display="inline">
		<path fill="#214195" d="M522.491,438.821c-1.959,5.455-3.167,11.347-6.017,16.293c-11.105,19.27-27.202,31.06-50.315,30.743
			c-12.42-0.166-23.782-4.214-32.72-12.886c-19.103-18.535-37.907-37.384-56.558-56.372c-11.643-11.853-16.179-26.367-14.175-42.894
			c0.104-0.853,0.081-1.725,0.141-3.063c-41.816,26.474-85.928,32.242-132.187,15.167c-31.447-11.604-55.591-32.589-72.606-61.482
			c-34.091-57.883-23.019-132.287,26.288-177.918c49.645-45.945,124.918-51.167,179.952-12.183
			c30.779,21.801,50.409,51.318,57.934,88.317c7.498,36.874,1.252,71.692-18.222,104.616c9.202-2.052,17.867-2.159,26.462,0.111
			c8.874,2.341,16.648,6.705,23.155,13.194c17.966,17.919,35.913,35.854,53.818,53.825c7.613,7.643,12.399,16.804,14.283,27.458
			c0.129,0.714,0.506,1.383,0.765,2.069C522.491,428.82,522.491,433.821,522.491,438.821z M281.846,160.241
			c-50.539-0.005-91.438,40.803-91.653,91.447c-0.212,50.124,41.105,91.861,91.511,91.705c53.165-0.164,91.718-43.135,91.706-91.369
			C373.391,201.105,332.67,160.241,281.846,160.241z"/>
		<path fill="#D81F37" d="M207.321,255.058c0.754-27.319,10.071-47.039,28.896-62.071c7.028-5.614,16.326-4.627,21.681,2.076
			c5.294,6.635,3.986,15.876-2.929,21.606c-14.869,12.329-20.166,27.94-15.737,46.766c2.2,9.354-1.905,17.135-10.394,19.419
			c-7.781,2.096-16.018-1.992-18.098-9.771C208.887,266.155,208.034,258.96,207.321,255.058z"/>
	</g>
</g>
<g id="SEARCH_RESULTS" display="none">
	<path display="inline" fill="#D81F37" d="M221.975,88.842c0-9.692-0.014-18.66,0.004-27.629
		c0.017-7.774,2.797-10.644,10.385-10.646c58.329-0.021,116.658-0.029,174.988-0.029c7.812,0,10.697,3.006,10.684,10.947
		c-0.017,8.953-0.004,17.906-0.004,27.359c2.827,0,5.117,0,7.408,0c22.331,0,44.664-0.081,66.995,0.024
		c17.86,0.085,28.245,10.596,28.246,28.361c0.008,126.49,0.016,252.981-0.045,379.473c-0.002,4.466-0.129,9.085-1.237,13.364
		c-2.889,11.16-12.936,18.359-25.018,18.366c-69.494,0.037-138.988,0.026-208.483,0.031c-45.164,0.004-90.328,0.042-135.491-0.044
		c-4.455-0.01-9.098-0.112-13.327-1.315c-11.169-3.178-17.702-13.199-17.729-26.598c-0.071-34.83-0.019-69.662-0.019-104.493
		c0-91.66-0.019-183.322,0.05-274.982c0.003-4.629,0.104-9.429,1.282-13.852c3.066-11.528,13.076-18.271,26.633-18.331
		c21.665-0.099,43.33-0.016,64.996-0.01C215.28,88.844,218.267,88.842,221.975,88.842z M221.954,106.53
		c-1.588-0.16-2.708-0.37-3.827-0.371c-23.994-0.017-47.987-0.047-71.981,0.015c-6.75,0.018-9.469,2.931-9.484,9.948
		c-0.036,15.496,0.01,30.992,0.011,46.487c0.005,112.305,0.001,224.608,0.021,336.912c0.001,9.729,2.22,11.912,12.155,11.917
		c67.648,0.031,135.297,0.03,202.945,0.035c46.82,0.004,93.642-0.012,140.463,0.021c4.199,0.003,8.348-0.408,10.091-4.769
		c0.999-2.499,0.939-5.52,0.942-8.304c0.045-55.652,0.028-111.306,0.027-166.957c-0.002-71.314,0.011-142.629-0.018-213.942
		c-0.004-9.309-2.174-11.334-11.554-11.339c-22.493-0.013-44.987-0.028-67.48-0.043c-1.937-0.001-3.871,0-6.251,0
		c0,9.617,0.007,18.58-0.002,27.543c-0.008,7.968-2.793,10.757-10.807,10.759c-58.151,0.017-116.304,0.027-174.455,0.027
		c-7.854,0-10.81-3.013-10.801-10.854C221.961,124.662,221.954,115.706,221.954,106.53z M400.797,67.852
		c-54.114,0-107.813,0-161.419,0c0,20.037,0,39.733,0,59.364c54.009,0,107.584,0,161.419,0
		C400.797,107.377,400.797,87.795,400.797,67.852z"/>
	<g display="inline">
		<path fill="#214195" d="M311.81,180.211c5.461,0,10.921,0,16.382,0c0.785,0.171,1.563,0.443,2.355,0.499
			c19.75,1.395,38.438,6.649,55.699,16.297c39.02,21.809,62.956,54.695,71.391,98.688c0.918,4.787,1.444,9.649,2.151,14.478
			c0,6.553,0,13.104,0,19.656c-0.176,0.791-0.457,1.574-0.518,2.374c-1.027,13.222-3.781,26.098-8.863,38.319
			c-19.758,47.503-54.79,76.708-105.295,87.096c-4.506,0.93-9.094,1.457-13.646,2.171c-7.646,0-15.289,0-22.934,0
			c-2.943-0.42-5.892-0.813-8.829-1.267c-27.965-4.31-52.613-15.731-73.549-34.8c-23.419-21.331-38.071-47.634-43.742-78.848
			c-0.905-4.984-1.478-10.029-2.203-15.047c0-6.553,0-13.104,0-19.656c0.409-3.139,0.774-6.28,1.233-9.41
			c3.976-27.08,14.623-51.196,32.612-71.86c22.688-26.063,51.154-41.864,85.394-47.067
			C303.557,181.21,307.689,180.748,311.81,180.211z M320.1,215.307c-58.19,0.104-105.019,47.078-104.925,105.253
			c0.092,57.752,47.265,104.51,105.536,104.279c56.798-0.225,103.988-46.087,104.058-104.622
			C424.834,262.107,377.727,215.204,320.1,215.307z"/>
		<path fill="#D81F37" d="M302.927,330.514c0.817-1.083,1.381-2.046,2.145-2.811c18.187-18.217,36.366-36.439,54.608-54.601
			c8.379-8.342,21.314-7.074,27.547,2.576c4.443,6.88,3.537,15.8-2.375,21.79c-8.115,8.221-16.328,16.345-24.492,24.516
			c-15.172,15.186-30.344,30.37-45.512,45.558c-6.595,6.604-17.773,6.809-24.381,0.259c-11.755-11.653-23.415-23.404-35.104-35.126
			c-5.009-5.023-6.567-11.081-4.545-17.781c2.004-6.64,6.746-10.691,13.54-12.028c5.946-1.171,11.195,0.589,15.495,4.798
			c6.955,6.808,13.795,13.729,20.688,20.601C301.115,328.835,301.719,329.377,302.927,330.514z"/>
	</g>
</g>
<g id="REPORT" display="none">
	<path display="inline" fill="#214195" d="M221.975,88.842c0-9.692-0.014-18.66,0.004-27.629
		c0.017-7.774,2.797-10.644,10.385-10.646c58.329-0.021,116.658-0.029,174.988-0.029c7.812,0,10.697,3.006,10.684,10.947
		c-0.017,8.953-0.004,17.906-0.004,27.359c2.827,0,5.117,0,7.408,0c22.331,0,44.664-0.081,66.995,0.024
		c17.86,0.085,28.245,10.596,28.246,28.361c0.008,126.49,0.016,252.981-0.045,379.473c-0.002,4.466-0.129,9.085-1.237,13.364
		c-2.889,11.16-12.936,18.359-25.018,18.366c-69.494,0.037-138.988,0.026-208.483,0.031c-45.164,0.004-90.328,0.042-135.491-0.044
		c-4.455-0.01-9.098-0.112-13.327-1.315c-11.169-3.178-17.702-13.199-17.729-26.598c-0.071-34.83-0.019-69.662-0.019-104.493
		c0-91.66-0.019-183.322,0.05-274.982c0.003-4.629,0.104-9.429,1.282-13.852c3.066-11.528,13.076-18.271,26.633-18.331
		c21.665-0.099,43.33-0.016,64.996-0.01C215.28,88.844,218.267,88.842,221.975,88.842z M221.954,106.53
		c-1.588-0.16-2.708-0.37-3.827-0.371c-23.994-0.017-47.987-0.047-71.981,0.015c-6.75,0.018-9.469,2.931-9.484,9.948
		c-0.036,15.496,0.01,30.992,0.011,46.487c0.005,112.305,0.001,224.608,0.021,336.912c0.001,9.729,2.22,11.912,12.155,11.917
		c67.648,0.031,135.297,0.03,202.945,0.035c46.82,0.004,93.642-0.012,140.463,0.021c4.199,0.003,8.348-0.408,10.091-4.769
		c0.999-2.499,0.939-5.52,0.942-8.304c0.045-55.652,0.028-111.306,0.027-166.957c-0.002-71.314,0.011-142.629-0.018-213.942
		c-0.004-9.309-2.174-11.334-11.554-11.339c-22.493-0.013-44.987-0.028-67.48-0.043c-1.937-0.001-3.871,0-6.251,0
		c0,9.617,0.007,18.58-0.002,27.543c-0.008,7.968-2.793,10.757-10.807,10.759c-58.151,0.017-116.304,0.027-174.455,0.027
		c-7.854,0-10.81-3.013-10.801-10.854C221.961,124.662,221.954,115.706,221.954,106.53z M400.797,67.852
		c-54.114,0-107.813,0-161.419,0c0,20.037,0,39.733,0,59.364c54.009,0,107.584,0,161.419,0
		C400.797,107.377,400.797,87.795,400.797,67.852z"/>
	<path display="inline" fill="#D81F37" d="M175.403,436.057c11.161,0,20.192-9.037,20.192-20.196c0-2.043-0.623-3.838-1.166-5.633
		c25.749-20.843,71.336-57.43,92.076-73.483c3.29,2.339,7.133,3.947,11.38,3.947c3.619,0,6.798-1.178,9.654-2.782
		c13.423,11.38,36.065,30.62,52.207,44.337c-0.19,1.173-0.738,2.232-0.738,3.404c0,11.155,9.152,20.197,20.307,20.197
		c11.16,0,20.197-9.042,20.197-20.197c0-1.904-0.629-3.732-1.171-5.521l52.206-47.089c2.774,1.467,5.846,2.526,9.142,2.526
		c11.159,0,20.226-9.036,20.226-20.197c0-11.16-9.065-20.186-20.226-20.186c-11.052,0-20.089,9.024-20.089,20.186
		c0,2.673,0.543,5.229,1.501,7.542c-14.565,13.095-37.128,33.396-51.036,46.056c-3.185-2.02-6.804-3.509-10.75-3.509
		c-4.789,0-8.928,1.904-12.437,4.675c-13.283-11.373-34.866-29.666-50.192-42.645c0.871-2.24,1.391-4.468,1.391-6.891
		c0-11.185-9.037-20.222-20.088-20.222c-11.16,0-20.196,9.037-20.196,20.222c0,2.423,0.519,4.767,1.361,6.891l-92.59,71.982
		c-3.185-2.112-6.913-3.724-11.161-3.724c-11.153,0-20.196,9.037-20.196,20.111C155.206,427.02,164.249,436.057,175.403,436.057
		L175.403,436.057z"/>
	<g display="inline">
		<path fill="#D81F37" d="M369.438,196.14c18.311,0.001,36.619,0,54.93,0.004c1.257,0,2.53-0.079,3.769,0.087
			c4.029,0.539,6.735,3.565,6.661,7.315c-0.078,3.814-2.78,6.774-6.984,6.894c-8.1,0.227-16.209,0.153-24.315,0.153
			c-29.908,0-59.818-0.02-89.729-0.045c-1.394-0.001-2.813,0.004-4.174-0.241c-3.436-0.621-5.443-2.731-5.735-6.233
			c-0.288-3.452,1.188-6.041,4.469-7.228c1.526-0.553,3.274-0.676,4.925-0.68C331.979,196.123,350.709,196.138,369.438,196.14z"/>
		<path fill="#D81F37" d="M369.328,270.595c-18.984,0-37.971,0.005-56.955-0.004c-5.427-0.003-8.479-2.483-8.576-6.914
			c-0.103-4.636,3.005-7.29,8.647-7.292c37.83-0.019,75.659-0.025,113.489-0.02c4.889,0.001,7.857,1.932,8.74,5.518
			c1.144,4.656-2.479,8.71-7.977,8.721c-19.124,0.039-38.247,0.016-57.37,0.016C369.328,270.61,369.328,270.604,369.328,270.595z"/>
		<path fill="#D81F37" d="M241.727,202.067c7.094-7.128,13.285-13.354,19.481-19.573c0.886-0.889,1.733-1.826,2.699-2.623
			c3.097-2.558,7.139-2.416,9.825,0.285c2.692,2.705,3.021,6.9,0.197,9.796c-8.861,9.087-17.847,18.055-26.933,26.917
			c-2.75,2.684-6.654,2.626-9.476,0.028c-3.896-3.586-7.647-7.343-11.261-11.215c-2.755-2.953-2.531-7.048,0.174-9.789
			c2.891-2.928,6.875-3.035,10.061,0.001C238.297,197.612,239.745,199.699,241.727,202.067z"/>
		<path fill="#D81F37" d="M241.693,262.244c7.718-7.749,14.599-14.676,21.503-21.58c2.8-2.801,6.002-3.554,9.444-1.312
			c2.936,1.909,3.757,4.834,2.753,8.063c-0.429,1.379-1.474,2.678-2.521,3.734c-8.248,8.335-16.533,16.634-24.872,24.877
			c-4.018,3.971-7.563,3.94-11.641,0.001c-3.211-3.104-6.394-6.244-9.453-9.496c-3.259-3.463-3.391-7.493-0.553-10.444
			c2.974-3.092,7.149-3.029,10.723,0.428C238.766,258.148,240.063,260.188,241.693,262.244z"/>
	</g>
</g>
<g id="EXPORT_FILE" display="none">
	<g display="inline">
		<path fill="#D81F37" d="M152,113.659c6.547-15.945,18.344-21.729,35.536-21.451c46.265,0.746,92.55,0.429,138.824,0.143
			c12.398-0.077,21.477,4.477,28.042,14.918c4.7,7.474,10.286,14.4,14.815,21.969c3.13,5.23,6.984,6.833,12.938,6.804
			c45.98-0.224,91.962-0.142,137.945-0.115c25.154,0.016,35.138,10.139,35.141,35.51c0.004,11.121,0,22.244,0,34.252
			c6.352,0,11.961,0.638,17.38-0.112c21.059-2.917,39.031,21.845,29.82,44.016c-11.168,26.875-22.119,53.842-33.171,80.767
			c-12.95,31.545-25.885,63.096-38.873,94.629c-6.533,15.861-14.604,21.232-31.766,21.232c-115.546,0.02-231.09,0.026-346.634,0.037
			C152,335.391,152,224.525,152,113.659z M187.291,417.503c1.966,0.241,2.839,0.442,3.712,0.442
			c101.704,0.023,203.407-0.035,305.108,0.207c5.895,0.014,7.448-2.916,9.213-7.225c22.93-56.06,45.949-112.08,68.905-168.129
			c0.946-2.31,1.465-4.795,2.489-8.225c-3.568-0.268-6.09-0.622-8.613-0.622c-100.525-0.027-201.05,0.029-301.571-0.163
			c-5.785-0.01-8.265,2.148-10.178,7.197c-7.296,19.242-14.963,38.342-22.469,57.504
			C218.461,337.869,203.047,377.255,187.291,417.503z M180.646,352.119c0.364,0.131,0.729,0.265,1.096,0.396
			c0.854-2.031,1.746-4.047,2.555-6.101c15.618-39.64,31.147-79.317,46.875-118.917c6.479-16.313,14.926-21.81,32.3-21.81
			c83.979-0.003,167.958-0.002,251.938-0.002c3.458,0,6.913,0,10.806,0c0-13.98,0-27.049,0-40.974c-3.729,0-6.901,0-10.078,0
			c-46.558-0.002-93.115-0.033-139.672,0.021c-11.397,0.012-20.575-3.867-26.961-13.746c-5.112-7.909-10.877-15.405-15.814-23.417
			c-3.092-5.017-6.593-7.072-12.739-7.03c-43.903,0.301-87.81,0.153-131.716,0.179c-2.828,0.002-5.655,0.255-8.587,0.396
			C180.646,198.655,180.646,275.388,180.646,352.119z"/>
	</g>
	<g display="inline">
		<circle fill="#214195" cx="170.278" cy="437.073" r="119.898"/>
		<path fill="#FFFFFF" d="M161.299,408.492c0-1.059,0-1.844,0-2.633c0-6.951-0.022-13.904,0.007-20.854
			c0.024-5.605,3.615-7.632,8.55-4.841c30.677,17.361,61.349,34.724,92.021,52.089c5.117,2.896,5.081,6.813-0.086,9.733
			c-30.608,17.326-61.213,34.662-91.852,51.939c-1.295,0.731-2.917,1.352-4.358,1.297c-2.751-0.109-4.253-2.305-4.271-5.703
			c-0.036-6.951-0.012-13.904-0.012-20.857c0-0.873,0-1.741,0-2.979c-1.025,0-1.882,0-2.738,0c-25.618,0-51.235,0-76.854,0
			c-5.436-0.004-6.836-1.391-6.837-6.789c-0.004-14.561-0.015-29.125,0.018-43.688c0.003-1.299,0.005-2.706,0.487-3.875
			c1.016-2.456,3.254-2.862,5.744-2.858c25.768,0.031,51.534,0.02,77.301,0.02C159.297,408.492,160.171,408.492,161.299,408.492z"/>
	</g>
</g>
</svg>
