<?xml version="1.0" encoding="UTF-8"?>
<!DOCTYPE svg  PUBLIC '-//W3C//DTD SVG 1.1//EN'  'http://www.w3.org/Graphics/SVG/1.1/DTD/svg11.dtd'>
<svg enable-background="new 0 0 640 640" version="1.1" viewBox="0 0 640 640" xml:space="preserve" xmlns="http://www.w3.org/2000/svg">
	<g clip-rule="evenodd" fill-rule="evenodd">
		<path d="m280.49 540.06c-5.53-2.783-6.989-7.49-6.814-13.197 0.195-6.302 0.044-12.604 0.044-18.906 5e-3 -11.084 3.04-14.095 14.194-14.101 61.399 0 122.8-0.059 184.2 0.052 10.137 0.023 18.127-3.309 22.44-12.534 1.64-3.5 2.395-7.718 2.399-11.607 0.128-99.842 0.067-199.69 0.138-299.53 8e-3 -15.313-10.921-24.3-24.982-24.229-61.102 0.326-122.21 0.14-183.32 0.14-1.313 0-2.633 0.047-3.946-0.018-7.126-0.332-10.868-3.728-11.057-10.647-0.23-8.299-0.036-16.61-0.067-24.922-0.018-4.951 2.548-8.282 6.771-10.618h202.65c1.939 0.478 3.871 0.979 5.813 1.422 33.507 7.711 54.968 33.856 55.033 68.267 0.187 100.24 0.193 200.5-0.011 300.74-0.058 29.542-14.055 51.104-41.394 63.772-6.076 2.813-12.942 3.983-19.442 5.917-67.551-2e-3 -135.1-2e-3 -202.65-2e-3z" fill="#D81F37"/>
		<path d="m265.07 264.01v-5.154c0-13.605-0.043-27.217 0.015-40.822 0.047-10.974 7.077-14.939 16.736-9.477 60.048 33.985 120.09 67.971 180.13 101.96 10.015 5.672 9.944 13.338-0.169 19.057-59.916 33.916-119.82 67.848-179.8 101.67-2.534 1.434-5.711 2.646-8.533 2.54-5.387-0.216-8.326-4.514-8.358-11.165-0.07-13.605-0.023-27.217-0.023-40.829v-5.83h-5.358-150.44c-10.639-6e-3 -13.382-2.721-13.384-13.286-9e-3 -28.504-0.026-57.015 0.035-85.519 6e-3 -2.545 9e-3 -5.3 0.952-7.589 1.989-4.806 6.372-5.604 11.244-5.598 50.439 0.063 100.88 0.04 151.32 0.04h5.637z" fill="#214195"/>
	</g>
<g display="none">
	<g clip-rule="evenodd" display="inline" fill-rule="evenodd">
		<path d="m359.51 540.06c5.531-2.783 6.99-7.49 6.814-13.197-0.195-6.302-0.043-12.604-0.043-18.906-6e-3 -11.084-3.041-14.095-14.194-14.101-61.399 0-122.8-0.059-184.2 0.052-10.137 0.023-18.127-3.309-22.44-12.534-1.64-3.5-2.395-7.718-2.399-11.607-0.128-99.842-0.067-199.69-0.138-299.53-8e-3 -15.313 10.921-24.3 24.982-24.229 61.102 0.326 122.21 0.14 183.32 0.14 1.313 0 2.633 0.047 3.945-0.018 7.127-0.332 10.868-3.728 11.057-10.647 0.23-8.299 0.036-16.61 0.068-24.922 0.018-4.951-2.549-8.282-6.771-10.618h-202.65c-1.939 0.478-3.871 0.979-5.813 1.422-33.507 7.711-54.968 33.856-55.033 68.267-0.187 100.24-0.193 200.5 0.011 300.74 0.058 29.542 14.055 51.104 41.394 63.772 6.076 2.813 12.942 3.983 19.442 5.917 67.549-2e-3 135.1-2e-3 202.64-2e-3z" fill="#204395"/>
		<path d="m374.93 264.01v-5.154c0-13.605 0.043-27.217-0.016-40.822-0.047-10.974-7.076-14.939-16.736-9.477-60.048 33.985-120.09 67.971-180.13 101.96-10.015 5.672-9.944 13.338 0.169 19.057 59.916 33.916 119.82 67.848 179.8 101.67 2.533 1.434 5.711 2.646 8.533 2.54 5.387-0.216 8.325-4.514 8.357-11.165 0.07-13.605 0.023-27.217 0.023-40.829v-5.83h5.357 150.44c10.639-6e-3 13.383-2.721 13.385-13.286 0.01-28.504 0.026-57.015-0.035-85.519-6e-3 -2.545-9e-3 -5.3-0.951-7.589-1.99-4.806-6.372-5.604-11.244-5.598-50.439 0.063-100.88 0.04-151.32 0.04h-5.637z" fill="#D81F37"/>
	</g>
</g>
<g display="none">
	<g display="inline">
		<g clip-rule="evenodd" fill-rule="evenodd">
			<path d="m197.52 88.842c0-9.693-0.014-18.661 4e-3 -27.629 0.016-7.775 2.797-10.644 10.385-10.646 58.329-0.02 116.66-0.029 174.99-0.029 7.812 0 10.697 3.006 10.684 10.947-0.017 8.953-4e-3 17.906-4e-3 27.359h7.408c22.331 0 44.664-0.081 66.995 0.025 17.86 0.085 28.245 10.596 28.246 28.361 8e-3 126.49 0.016 252.98-0.045 379.47-2e-3 4.465-0.129 9.085-1.237 13.364-2.889 11.16-12.936 18.359-25.018 18.366-69.494 0.037-138.99 0.026-208.48 0.031-45.164 4e-3 -90.328 0.042-135.49-0.044-4.456-9e-3 -9.098-0.112-13.328-1.315-11.169-3.178-17.702-13.199-17.729-26.598-0.071-34.83-0.019-69.662-0.019-104.49 0-91.66-0.018-183.32 0.05-274.98 3e-3 -4.629 0.105-9.429 1.282-13.852 3.067-11.528 13.077-18.27 26.633-18.331 21.665-0.098 43.33-0.015 64.996-9e-3 2.988 3e-3 5.975 2e-3 9.683 2e-3zm-0.021 17.688c-1.588-0.16-2.708-0.37-3.827-0.371-23.994-0.017-47.987-0.047-71.981 0.015-6.75 0.017-9.469 2.93-9.485 9.948-0.036 15.496 0.01 30.992 0.011 46.487 5e-3 112.3 1e-3 224.61 0.021 336.91 1e-3 9.729 2.219 11.912 12.155 11.917 67.648 0.031 135.3 0.03 202.94 0.035 46.821 4e-3 93.642-0.012 140.46 0.021 4.2 3e-3 8.348-0.409 10.091-4.769 0.999-2.499 0.94-5.519 0.943-8.304 0.045-55.652 0.028-111.3 0.027-166.96-2e-3 -71.314 0.011-142.63-0.018-213.94-4e-3 -9.308-2.173-11.334-11.553-11.339-22.494-0.012-44.988-0.028-67.481-0.043-1.936-1e-3 -3.871 0-6.251 0 0 9.618 7e-3 18.58-2e-3 27.543-8e-3 7.968-2.793 10.757-10.806 10.759-58.152 0.017-116.3 0.027-174.46 0.027-7.854 0-10.809-3.012-10.8-10.853 0.011-8.954 4e-3 -17.91 4e-3 -27.086zm178.84-38.678h-161.42v59.365h161.42v-59.365z" fill="#D81F37"/>
			<path d="m197.5 106.53c0 9.176 7e-3 18.132-2e-3 27.088-8e-3 7.841 2.946 10.853 10.8 10.853 58.152 0 116.3-0.011 174.46-0.027 8.013-2e-3 10.798-2.791 10.806-10.759 9e-3 -8.963 2e-3 -17.925 2e-3 -27.543 2.38 0 4.315-1e-3 6.251 0 22.493 0.015 44.987 0.031 67.481 0.043 9.38 5e-3 11.549 2.031 11.553 11.339 0.028 71.314 0.016 142.63 0.018 213.94 1e-3 55.652 0.018 111.3-0.027 166.96-3e-3 2.785 0.056 5.805-0.943 8.304-1.743 4.359-5.891 4.771-10.091 4.769-46.821-0.033-93.642-0.018-140.46-0.021-67.648-5e-3 -135.3-4e-3 -202.94-0.035-9.936-5e-3 -12.153-2.188-12.155-11.917-0.02-112.3-0.017-224.61-0.021-336.91-1e-3 -15.495-0.047-30.991-0.011-46.487 0.016-7.019 2.735-9.932 9.485-9.948 23.994-0.062 47.987-0.031 71.981-0.015 1.118-1e-3 2.237 0.209 3.825 0.369zm142.9 97.693c-10.152 0-20.307-5e-3 -30.459 1e-3 -12.817 7e-3 -25.634-0.054-38.45 0.063-6.789 0.063-10.902 5.341-8.773 11.207 1.741 4.797 5.717 5.934 10.432 5.923 25.966-0.06 51.933-0.021 77.9-0.021 19.142-1e-3 38.284 0.023 57.426-0.035 7.071-0.021 11.63-5.335 9.637-11.136-1.683-4.899-5.548-6.051-10.301-6.034-22.47 0.08-44.941 0.035-67.412 0.032zm0.207 215.1v-0.04c-8.154 0-16.309-2e-3 -24.463 0-14.811 4e-3 -29.622-0.069-44.432 0.052-6.4 0.052-10.008 3.933-9.372 9.563 0.53 4.692 4.115 7.462 10.109 7.474 27.958 0.053 55.917 0.044 83.875 0.046 17.307 1e-3 34.614 0.015 51.922-0.048 6.939-0.025 11.408-4.759 10.08-10.464-1.003-4.307-4.237-6.559-9.823-6.567-22.63-0.036-45.263-0.016-67.896-0.016zm-0.056-143.59c-22.332 0-44.664-0.019-66.996 0.034-1.966 5e-3 -4.051 0.151-5.872 0.81-3.91 1.415-5.671 4.501-5.328 8.618 0.348 4.175 2.742 6.691 6.838 7.432 1.624 0.293 3.316 0.288 4.977 0.289 35.664 0.031 71.328 0.053 106.99 0.053 9.665 0 19.335 0.086 28.993-0.184 5.012-0.141 8.235-3.67 8.328-8.218 0.091-4.472-3.138-8.08-7.942-8.723-1.476-0.197-2.994-0.104-4.493-0.104-21.832-5e-3 -43.664-3e-3 -65.496-7e-3zm-0.131 88.779v0.029c22.803 0 45.606 0.028 68.409-0.019 6.554-0.013 10.873-4.846 9.509-10.397-1.052-4.276-4.593-6.577-10.422-6.578-45.106-9e-3 -90.214 1e-3 -135.32 0.021-6.729 3e-3 -10.434 3.169-10.313 8.694 0.116 5.283 3.757 8.242 10.227 8.245 22.637 0.011 45.274 5e-3 67.911 5e-3zm-152.15-81.711c-2.362-2.823-4.088-5.312-6.235-7.358-3.798-3.621-8.55-3.492-11.996-2e-3 -3.226 3.268-3.492 8.15-0.207 11.671 4.308 4.617 8.782 9.097 13.426 13.374 3.363 3.098 8.018 3.165 11.298-0.034 10.833-10.567 21.547-21.26 32.112-32.095 3.368-3.453 2.975-8.456-0.234-11.681-3.205-3.22-8.024-3.391-11.717-0.34-1.15 0.95-2.163 2.067-3.219 3.128-7.387 7.416-14.77 14.838-23.228 23.337zm-0.039 71.754c-1.945-2.45-3.491-4.884-5.504-6.832-4.259-4.121-9.24-4.194-12.784-0.509-3.384 3.519-3.227 8.324 0.659 12.454 3.648 3.878 7.443 7.622 11.271 11.323 4.861 4.698 9.089 4.732 13.879-2e-3 9.943-9.829 19.822-19.724 29.657-29.662 1.248-1.26 2.494-2.809 3.005-4.453 1.197-3.851 0.216-7.338-3.283-9.615-4.104-2.673-7.923-1.775-11.262 1.564-8.232 8.233-16.436 16.493-25.638 25.732zm0.25-143.28c-2.277-2.742-3.996-5.239-6.138-7.297-3.81-3.659-9.208-3.577-12.485-0.115-3.23 3.413-3.15 8.229 0.466 12.062 3.766 3.992 7.705 7.824 11.625 11.669 4.693 4.604 9.179 4.658 13.872 0.015 9.935-9.831 19.804-19.729 29.646-29.652 1.146-1.154 2.362-2.509 2.844-3.998 1.296-4.001 0.557-7.71-3.222-10.064-3.853-2.399-7.65-1.936-10.887 1.322-8.311 8.361-16.569 16.777-25.721 26.058z" fill="none"/>
			<path d="m340.4 204.22c22.471 2e-3 44.941 0.047 67.411-0.034 4.753-0.017 8.618 1.135 10.301 6.034 1.993 5.801-2.565 11.114-9.637 11.136-19.142 0.059-38.284 0.034-57.426 0.035-25.967 1e-3 -51.934-0.038-77.9 0.021-4.715 0.011-8.69-1.126-10.432-5.923-2.129-5.866 1.984-11.145 8.773-11.207 12.816-0.116 25.633-0.056 38.45-0.063 10.154-5e-3 20.308 0 30.46 1e-3z" fill="#0B8442"/>
			<path d="m340.61 419.32c22.633 0 45.266-0.021 67.897 0.015 5.586 9e-3 8.82 2.261 9.823 6.567 1.328 5.705-3.141 10.438-10.08 10.464-17.308 0.063-34.615 0.049-51.922 0.048-27.959-2e-3 -55.917 7e-3 -83.875-0.046-5.994-0.012-9.579-2.781-10.109-7.474-0.637-5.63 2.972-9.511 9.372-9.563 14.81-0.121 29.621-0.048 44.432-0.052 8.154-2e-3 16.309 0 24.463 0-1e-3 0.014-1e-3 0.028-1e-3 0.041z" fill="#0B8442"/>
			<path d="m340.55 275.73c21.832 2e-3 43.664 0 65.496 5e-3 1.499 0 3.018-0.093 4.493 0.104 4.805 0.643 8.033 4.251 7.942 8.723-0.093 4.548-3.316 8.077-8.328 8.218-9.658 0.27-19.328 0.184-28.993 0.184-35.663 0-71.327-0.021-106.99-0.053-1.661-1e-3 -3.353 4e-3 -4.977-0.289-4.096-0.74-6.49-3.257-6.838-7.432-0.343-4.117 1.418-7.203 5.328-8.618 1.821-0.658 3.906-0.805 5.872-0.81 22.332-0.053 44.664-0.034 66.996-0.032z" fill="#0B8442"/>
			<path d="m340.42 364.5c-22.637 0-45.273 6e-3 -67.911-4e-3 -6.47-3e-3 -10.11-2.962-10.227-8.245-0.121-5.525 3.583-8.691 10.313-8.694 45.107-0.021 90.214-0.03 135.32-0.021 5.829 1e-3 9.37 2.302 10.422 6.578 1.364 5.552-2.955 10.385-9.509 10.397-22.803 0.047-45.606 0.019-68.409 0.019v-0.03z" fill="#0B8442"/>
			<path d="m188.27 282.79c8.458-8.499 15.841-15.921 23.229-23.337 1.056-1.061 2.069-2.178 3.219-3.128 3.693-3.051 8.513-2.88 11.717 0.34 3.209 3.225 3.602 8.228 0.234 11.681-10.565 10.835-21.279 21.527-32.112 32.095-3.28 3.199-7.935 3.132-11.298 0.034-4.644-4.277-9.119-8.757-13.426-13.374-3.285-3.521-3.019-8.403 0.207-11.671 3.446-3.49 8.197-3.619 11.996 2e-3 2.146 2.046 3.872 4.535 6.234 7.358z" fill="#0B8442"/>
			<path d="m188.24 354.55c9.202-9.239 17.406-17.499 25.639-25.731 3.338-3.34 7.157-4.237 11.262-1.564 3.499 2.277 4.48 5.765 3.283 9.615-0.511 1.645-1.758 3.193-3.005 4.453-9.834 9.938-19.713 19.833-29.657 29.662-4.79 4.734-9.018 4.7-13.879 2e-3 -3.829-3.701-7.624-7.445-11.271-11.323-3.886-4.13-4.043-8.936-0.659-12.454 3.544-3.686 8.525-3.612 12.784 0.509 2.012 1.947 3.558 4.381 5.503 6.831z" fill="#0B8442"/>
			<path d="m188.48 211.27c9.152-9.28 17.41-17.696 25.721-26.06 3.237-3.258 7.034-3.722 10.887-1.322 3.779 2.354 4.519 6.063 3.222 10.064-0.482 1.489-1.699 2.844-2.844 3.998-9.843 9.924-19.711 19.821-29.646 29.652-4.692 4.644-9.178 4.589-13.872-0.015-3.92-3.845-7.858-7.677-11.625-11.669-3.616-3.832-3.696-8.648-0.466-12.062 3.277-3.462 8.675-3.544 12.485 0.115 2.142 2.059 3.861 4.556 6.138 7.299z" fill="#0B8442"/>
		</g>
			<path d="m438.31 589.46c-2.034-0.612-4.114-1.107-6.096-1.858-5.413-2.054-9.849-5.441-13.155-10.209-18.51-26.69-37.086-53.335-55.455-80.121-8.817-12.856-1.447-31.109 13.532-34.03 5.195-1.014 9.842 0.504 13.865 3.872 8.65 7.239 17.239 14.55 25.945 21.72 1.088 0.896 2.755 1.568 4.127 1.524 1.96-0.063 2.984-1.95 2.987-4.511 6e-3 -13.063 0-26.125 0-39.187 1e-3 -20.188-0.031-40.374 0.017-60.561 0.033-13.934 11.278-24.769 25.507-24.699 13.371 0.064 24.368 11.329 24.365 24.96-3e-3 19.149-8e-3 38.296-0.011 57.444 0 3.499 0.755 4.518 4.123 5.191 15.966 3.198 31.924 6.444 47.915 9.51 11.398 2.185 19.519 11.462 19.156 23.02-0.319 10.149-1.263 20.277-1.955 30.413-0.652 9.545-1.319 19.088-2.015 28.631-0.815 11.167-1.395 22.359-2.6 33.486-0.853 7.859-5.78 12.734-13.342 14.939-0.331 0.096-0.628 0.307-0.939 0.465-28.657 1e-3 -57.314 1e-3 -85.971 1e-3z" clip-rule="evenodd" fill="#214195" fill-rule="evenodd"/>
	</g>
</g>
<g display="none">
	<g display="inline">
		<g clip-rule="evenodd" fill-rule="evenodd">
			<path d="m225.54 88.842c0-9.693-0.014-18.661 4e-3 -27.629 0.016-7.775 2.797-10.644 10.385-10.646 58.329-0.02 116.66-0.029 174.99-0.029 7.812 0 10.697 3.006 10.684 10.947-0.017 8.953-4e-3 17.906-4e-3 27.359h7.408c22.331 0 44.664-0.081 66.995 0.025 17.86 0.085 28.245 10.596 28.246 28.361 8e-3 126.49 0.016 252.98-0.045 379.47-2e-3 4.465-0.129 9.085-1.237 13.364-2.889 11.16-12.936 18.359-25.018 18.366-69.494 0.037-138.99 0.026-208.48 0.031-45.164 4e-3 -90.328 0.042-135.49-0.044-4.456-9e-3 -9.098-0.112-13.328-1.315-11.169-3.178-17.702-13.199-17.729-26.598-0.071-34.83-0.019-69.662-0.019-104.49 0-91.66-0.018-183.32 0.05-274.98 3e-3 -4.629 0.105-9.429 1.282-13.852 3.067-11.528 13.077-18.27 26.633-18.331 21.665-0.098 43.33-0.015 64.996-9e-3 2.988 3e-3 5.975 2e-3 9.683 2e-3zm-0.021 17.688c-1.588-0.16-2.708-0.37-3.827-0.371-23.994-0.017-47.987-0.047-71.981 0.015-6.75 0.017-9.469 2.93-9.485 9.948-0.036 15.496 0.01 30.992 0.011 46.487 5e-3 112.3 1e-3 224.61 0.021 336.91 1e-3 9.729 2.219 11.912 12.155 11.917 67.648 0.031 135.3 0.03 202.94 0.035 46.821 4e-3 93.642-0.012 140.46 0.021 4.2 3e-3 8.348-0.409 10.091-4.769 0.999-2.499 0.94-5.519 0.943-8.304 0.045-55.652 0.028-111.3 0.027-166.96-2e-3 -71.314 0.011-142.63-0.018-213.94-4e-3 -9.308-2.173-11.334-11.553-11.339-22.494-0.012-44.988-0.028-67.481-0.043-1.936-1e-3 -3.871 0-6.251 0 0 9.618 7e-3 18.58-2e-3 27.543-8e-3 7.968-2.793 10.757-10.806 10.759-58.152 0.017-116.3 0.027-174.46 0.027-7.854 0-10.809-3.012-10.8-10.853 0.011-8.954 4e-3 -17.91 4e-3 -27.086zm178.84-38.678h-161.42v59.365h161.42v-59.365z" fill="#D81F37"/>
			<path d="m368.42 204.22c22.471 2e-3 44.941 0.047 67.411-0.034 4.753-0.017 8.618 1.135 10.301 6.034 1.993 5.801-2.565 11.114-9.637 11.136-19.142 0.059-38.284 0.034-57.426 0.035-25.967 1e-3 -51.934-0.038-77.9 0.021-4.715 0.011-8.69-1.126-10.432-5.923-2.129-5.866 1.984-11.145 8.773-11.207 12.816-0.116 25.633-0.056 38.45-0.063 10.153-5e-3 20.308 0 30.46 1e-3z" fill="#0C8543"/>
			<path d="m368.63 419.32c22.633 0 45.266-0.021 67.897 0.015 5.586 9e-3 8.82 2.261 9.823 6.567 1.328 5.705-3.141 10.438-10.08 10.464-17.308 0.063-34.615 0.049-51.922 0.048-27.959-2e-3 -55.917 7e-3 -83.875-0.046-5.994-0.012-9.579-2.781-10.109-7.474-0.637-5.63 2.972-9.511 9.372-9.563 14.81-0.121 29.621-0.048 44.432-0.052 8.154-2e-3 16.309 0 24.463 0-1e-3 0.014-1e-3 0.028-1e-3 0.041z" fill="#0C8543"/>
			<path d="m368.57 275.73c21.832 2e-3 43.664 0 65.496 5e-3 1.499 0 3.018-0.093 4.493 0.104 4.805 0.643 8.033 4.251 7.942 8.723-0.093 4.548-3.316 8.077-8.328 8.218-9.658 0.27-19.328 0.184-28.993 0.184-35.663 0-71.327-0.021-106.99-0.053-1.661-1e-3 -3.353 4e-3 -4.977-0.289-4.096-0.74-6.49-3.257-6.838-7.432-0.343-4.117 1.418-7.203 5.328-8.618 1.821-0.658 3.906-0.805 5.872-0.81 22.332-0.053 44.664-0.034 66.996-0.032z" fill="#0C8543"/>
			<path d="m368.44 364.5c-22.637 0-45.273 6e-3 -67.911-4e-3 -6.47-3e-3 -10.11-2.962-10.227-8.245-0.121-5.525 3.583-8.691 10.313-8.694 45.107-0.021 90.214-0.03 135.32-0.021 5.829 1e-3 9.37 2.302 10.422 6.578 1.364 5.552-2.955 10.385-9.509 10.397-22.803 0.047-45.606 0.019-68.409 0.019v-0.03z" fill="#0C8543"/>
			<path d="m216.29 282.79c8.458-8.499 15.841-15.921 23.229-23.337 1.056-1.061 2.069-2.178 3.219-3.128 3.693-3.051 8.513-2.88 11.717 0.34 3.209 3.225 3.602 8.228 0.234 11.681-10.565 10.835-21.279 21.527-32.112 32.095-3.28 3.199-7.935 3.132-11.298 0.034-4.644-4.277-9.119-8.757-13.426-13.374-3.285-3.521-3.019-8.403 0.207-11.671 3.446-3.49 8.197-3.619 11.996 2e-3 2.146 2.046 3.872 4.535 6.234 7.358z" fill="#0C8543"/>
			<path d="m216.25 354.55c9.202-9.239 17.406-17.499 25.639-25.731 3.338-3.34 7.157-4.237 11.262-1.564 3.499 2.277 4.48 5.765 3.283 9.615-0.511 1.645-1.758 3.193-3.005 4.453-9.834 9.938-19.713 19.833-29.657 29.662-4.79 4.734-9.018 4.7-13.879 2e-3 -3.829-3.701-7.624-7.445-11.271-11.323-3.886-4.13-4.043-8.936-0.659-12.454 3.544-3.686 8.525-3.612 12.784 0.509 2.013 1.947 3.558 4.381 5.503 6.831z" fill="#0C8543"/>
			<path d="m216.5 211.27c9.152-9.28 17.41-17.696 25.721-26.06 3.237-3.258 7.034-3.722 10.887-1.322 3.779 2.354 4.519 6.063 3.222 10.064-0.482 1.489-1.699 2.844-2.844 3.998-9.843 9.924-19.711 19.821-29.646 29.652-4.692 4.644-9.178 4.589-13.872-0.015-3.92-3.845-7.858-7.677-11.625-11.669-3.616-3.832-3.696-8.648-0.466-12.062 3.277-3.462 8.675-3.544 12.485 0.115 2.143 2.059 3.862 4.556 6.138 7.299z" fill="#0C8543"/>
		</g>
		<g display="none">
			<path d="m466.33 589.46c-2.034-0.612-4.114-1.107-6.096-1.858-5.413-2.054-9.849-5.441-13.155-10.209-18.51-26.69-37.086-53.335-55.455-80.121-8.817-12.856-1.447-31.109 13.532-34.03 5.195-1.014 9.842 0.504 13.865 3.872 8.65 7.239 17.239 14.55 25.945 21.72 1.088 0.896 2.755 1.568 4.127 1.524 1.96-0.063 2.984-1.95 2.987-4.511 6e-3 -13.063 0-26.125 0-39.187 1e-3 -20.188-0.031-40.374 0.017-60.561 0.033-13.934 11.278-24.769 25.507-24.699 13.371 0.064 24.368 11.329 24.365 24.96-3e-3 19.149-8e-3 38.296-0.011 57.444 0 3.499 0.755 4.518 4.123 5.191 15.966 3.198 31.924 6.444 47.915 9.51 11.398 2.185 19.519 11.462 19.156 23.02-0.319 10.149-1.263 20.277-1.955 30.413-0.652 9.545-1.319 19.088-2.015 28.631-0.815 11.167-1.395 22.359-2.6 33.486-0.853 7.859-5.78 12.734-13.342 14.939-0.331 0.096-0.628 0.307-0.939 0.465-28.656 1e-3 -57.314 1e-3 -85.971 1e-3z" clip-rule="evenodd" display="inline" fill-rule="evenodd"/>
		</g>
		<path d="m174.51 427.15v-3.28c0-8.658-0.028-17.319 9e-3 -25.978 0.03-6.983 4.503-9.507 10.65-6.03 38.212 21.626 76.419 43.254 114.63 64.884 6.374 3.609 6.329 8.488-0.107 12.127-38.127 21.583-76.251 43.176-114.42 64.698-1.613 0.912-3.634 1.684-5.43 1.616-3.428-0.137-5.298-2.872-5.318-7.104-0.044-8.658-0.015-17.319-0.015-25.982v-3.71h-3.41-95.735c-6.77-3e-3 -8.516-1.73-8.517-8.455-6e-3 -18.139-0.017-36.281 0.022-54.42 4e-3 -1.619 6e-3 -3.372 0.606-4.828 1.266-3.06 4.054-3.566 7.155-3.563 32.098 0.04 64.195 0.025 96.292 0.025h3.588z" clip-rule="evenodd" fill="#214195" fill-rule="evenodd"/>
	</g>
</g>
<g display="none">
	<g clip-rule="evenodd" display="inline" fill-rule="evenodd">
			<path d="m225.54 88.842c0-9.693-0.014-18.661 4e-3 -27.629 0.016-7.775 2.797-10.644 10.385-10.646 58.329-0.02 116.66-0.029 174.99-0.029 7.812 0 10.697 3.006 10.684 10.947-0.017 8.953-4e-3 17.906-4e-3 27.359h7.408c22.331 0 44.664-0.081 66.995 0.025 17.86 0.085 28.245 10.596 28.246 28.361 8e-3 126.49 0.016 252.98-0.045 379.47-2e-3 4.465-0.129 9.085-1.237 13.364-2.889 11.16-12.936 18.359-25.018 18.366-69.494 0.037-138.99 0.026-208.48 0.031-45.164 4e-3 -90.328 0.042-135.49-0.044-4.456-9e-3 -9.098-0.112-13.328-1.315-11.169-3.178-17.702-13.199-17.729-26.598-0.071-34.83-0.019-69.662-0.019-104.49 0-91.66-0.018-183.32 0.05-274.98 3e-3 -4.629 0.105-9.429 1.282-13.852 3.067-11.528 13.077-18.27 26.633-18.331 21.665-0.098 43.33-0.015 64.996-9e-3 2.988 3e-3 5.975 2e-3 9.683 2e-3zm-0.021 17.688c-1.588-0.16-2.708-0.37-3.827-0.371-23.994-0.017-47.987-0.047-71.981 0.015-6.75 0.017-9.469 2.93-9.485 9.948-0.036 15.496 0.01 30.992 0.011 46.487 5e-3 112.3 1e-3 224.61 0.021 336.91 1e-3 9.729 2.219 11.912 12.155 11.917 67.648 0.031 135.3 0.03 202.94 0.035 46.821 4e-3 93.642-0.012 140.46 0.021 4.2 3e-3 8.348-0.409 10.091-4.769 0.999-2.499 0.94-5.519 0.943-8.304 0.045-55.652 0.028-111.3 0.027-166.96-2e-3 -71.314 0.011-142.63-0.018-213.94-4e-3 -9.308-2.173-11.334-11.553-11.339-22.494-0.012-44.988-0.028-67.481-0.043-1.936-1e-3 -3.871 0-6.251 0 0 9.618 7e-3 18.58-2e-3 27.543-8e-3 7.968-2.793 10.757-10.806 10.759-58.152 0.017-116.3 0.027-174.46 0.027-7.854 0-10.809-3.012-10.8-10.853 0.011-8.954 4e-3 -17.91 4e-3 -27.086zm178.84-38.678h-161.42v59.365h161.42v-59.365z" fill="#0C8543"/>
			<g fill="#D81F37">
				<path d="m368.42 204.22c22.471 2e-3 44.941 0.047 67.411-0.034 4.753-0.017 8.618 1.135 10.301 6.034 1.993 5.801-2.565 11.114-9.637 11.136-19.142 0.059-38.284 0.034-57.426 0.035-25.967 1e-3 -51.934-0.038-77.9 0.021-4.715 0.011-8.69-1.126-10.432-5.923-2.129-5.866 1.984-11.145 8.773-11.207 12.816-0.116 25.633-0.056 38.45-0.063 10.153-5e-3 20.308 0 30.46 1e-3z"/>
				<path d="m368.63 419.32c22.633 0 45.266-0.021 67.897 0.015 5.586 9e-3 8.82 2.261 9.823 6.567 1.328 5.705-3.141 10.438-10.08 10.464-17.308 0.063-34.615 0.049-51.922 0.048-27.959-2e-3 -55.917 7e-3 -83.875-0.046-5.994-0.012-9.579-2.781-10.109-7.474-0.637-5.63 2.972-9.511 9.372-9.563 14.81-0.121 29.621-0.048 44.432-0.052 8.154-2e-3 16.309 0 24.463 0-1e-3 0.014-1e-3 0.028-1e-3 0.041z"/>
				<path d="m368.57 275.73c21.832 2e-3 43.664 0 65.496 5e-3 1.499 0 3.018-0.093 4.493 0.104 4.805 0.643 8.033 4.251 7.942 8.723-0.093 4.548-3.316 8.077-8.328 8.218-9.658 0.27-19.328 0.184-28.993 0.184-35.663 0-71.327-0.021-106.99-0.053-1.661-1e-3 -3.353 4e-3 -4.977-0.289-4.096-0.74-6.49-3.257-6.838-7.432-0.343-4.117 1.418-7.203 5.328-8.618 1.821-0.658 3.906-0.805 5.872-0.81 22.332-0.053 44.664-0.034 66.996-0.032z"/>
				<path d="m368.44 364.5c-22.637 0-45.273 6e-3 -67.911-4e-3 -6.47-3e-3 -10.11-2.962-10.227-8.245-0.121-5.525 3.583-8.691 10.313-8.694 45.107-0.021 90.214-0.03 135.32-0.021 5.829 1e-3 9.37 2.302 10.422 6.578 1.364 5.552-2.955 10.385-9.509 10.397-22.803 0.047-45.606 0.019-68.409 0.019v-0.03z"/>
				<path d="m216.29 282.79c8.458-8.499 15.841-15.921 23.229-23.337 1.056-1.061 2.069-2.178 3.219-3.128 3.693-3.051 8.513-2.88 11.717 0.34 3.209 3.225 3.602 8.228 0.234 11.681-10.565 10.835-21.279 21.527-32.112 32.095-3.28 3.199-7.935 3.132-11.298 0.034-4.644-4.277-9.119-8.757-13.426-13.374-3.285-3.521-3.019-8.403 0.207-11.671 3.446-3.49 8.197-3.619 11.996 2e-3 2.146 2.046 3.872 4.535 6.234 7.358z"/>
				<path d="m216.25 354.55c9.202-9.239 17.406-17.499 25.639-25.731 3.338-3.34 7.157-4.237 11.262-1.564 3.499 2.277 4.48 5.765 3.283 9.615-0.511 1.645-1.758 3.193-3.005 4.453-9.834 9.938-19.713 19.833-29.657 29.662-4.79 4.734-9.018 4.7-13.879 2e-3 -3.829-3.701-7.624-7.445-11.271-11.323-3.886-4.13-4.043-8.936-0.659-12.454 3.544-3.686 8.525-3.612 12.784 0.509 2.013 1.947 3.558 4.381 5.503 6.831z"/>
				<path d="m216.5 211.27c9.152-9.28 17.41-17.696 25.721-26.06 3.237-3.258 7.034-3.722 10.887-1.322 3.779 2.354 4.519 6.063 3.222 10.064-0.482 1.489-1.699 2.844-2.844 3.998-9.843 9.924-19.711 19.821-29.646 29.652-4.692 4.644-9.178 4.589-13.872-0.015-3.92-3.845-7.858-7.677-11.625-11.669-3.616-3.832-3.696-8.648-0.466-12.062 3.277-3.462 8.675-3.544 12.485 0.115 2.143 2.059 3.862 4.556 6.138 7.299z"/>
			</g>
			<circle cx="170.28" cy="506" r="119.9" fill="#214195"/>
			<path d="m179.26 477.42v-2.634c0-6.95 0.022-13.903-7e-3 -20.854-0.024-5.606-3.615-7.632-8.55-4.841-30.676 17.361-61.348 34.724-92.021 52.088-5.117 2.897-5.081 6.814 0.086 9.735 30.608 17.326 61.213 34.661 91.851 51.938 1.295 0.732 2.917 1.352 4.359 1.298 2.751-0.11 4.253-2.306 4.27-5.703 0.036-6.951 0.012-13.904 0.012-20.858v-2.979h2.738 76.855c5.435-3e-3 6.836-1.39 6.837-6.788 4e-3 -14.562 0.014-29.126-0.018-43.688-3e-3 -1.3-5e-3 -2.707-0.487-3.876-1.016-2.456-3.254-2.862-5.744-2.859-25.768 0.032-51.535 0.021-77.301 0.021h-2.88z" fill="#fff"/>
	</g>
</g>
<g display="none">
	<g display="inline">
		<g clip-rule="evenodd" fill-rule="evenodd">
			<path d="m225.54 88.842c0-9.693-0.014-18.661 4e-3 -27.629 0.016-7.775 2.797-10.644 10.385-10.646 58.329-0.02 116.66-0.029 174.99-0.029 7.812 0 10.697 3.006 10.684 10.947-0.017 8.953-4e-3 17.906-4e-3 27.359h7.408c22.331 0 44.664-0.081 66.995 0.025 17.86 0.085 28.245 10.596 28.246 28.361 8e-3 126.49 0.016 252.98-0.045 379.47-2e-3 4.465-0.129 9.085-1.237 13.364-2.889 11.16-12.936 18.359-25.018 18.366-69.494 0.037-138.99 0.026-208.48 0.031-45.164 4e-3 -90.328 0.042-135.49-0.044-4.456-9e-3 -9.098-0.112-13.328-1.315-11.169-3.178-17.702-13.199-17.729-26.598-0.071-34.83-0.019-69.662-0.019-104.49 0-91.66-0.018-183.32 0.05-274.98 3e-3 -4.629 0.105-9.429 1.282-13.852 3.067-11.528 13.077-18.27 26.633-18.331 21.665-0.098 43.33-0.015 64.996-9e-3 2.988 3e-3 5.975 2e-3 9.683 2e-3zm-0.021 17.688c-1.588-0.16-2.708-0.37-3.827-0.371-23.994-0.017-47.987-0.047-71.981 0.015-6.75 0.017-9.469 2.93-9.485 9.948-0.036 15.496 0.01 30.992 0.011 46.487 5e-3 112.3 1e-3 224.61 0.021 336.91 1e-3 9.729 2.219 11.912 12.155 11.917 67.648 0.031 135.3 0.03 202.94 0.035 46.821 4e-3 93.642-0.012 140.46 0.021 4.2 3e-3 8.348-0.409 10.091-4.769 0.999-2.499 0.94-5.519 0.943-8.304 0.045-55.652 0.028-111.3 0.027-166.96-2e-3 -71.314 0.011-142.63-0.018-213.94-4e-3 -9.308-2.173-11.334-11.553-11.339-22.494-0.012-44.988-0.028-67.481-0.043-1.936-1e-3 -3.871 0-6.251 0 0 9.618 7e-3 18.58-2e-3 27.543-8e-3 7.968-2.793 10.757-10.806 10.759-58.152 0.017-116.3 0.027-174.46 0.027-7.854 0-10.809-3.012-10.8-10.853 0.011-8.954 4e-3 -17.91 4e-3 -27.086zm178.84-38.678h-161.42v59.365h161.42v-59.365z" fill="#D81F37"/>
			<g fill="#0C8543">
				<path d="m368.42 204.22c22.471 2e-3 44.941 0.047 67.411-0.034 4.753-0.017 8.618 1.135 10.301 6.034 1.993 5.801-2.565 11.114-9.637 11.136-19.142 0.059-38.284 0.034-57.426 0.035-25.967 1e-3 -51.934-0.038-77.9 0.021-4.715 0.011-8.69-1.126-10.432-5.923-2.129-5.866 1.984-11.145 8.773-11.207 12.816-0.116 25.633-0.056 38.45-0.063 10.153-5e-3 20.308 0 30.46 1e-3z"/>
				<path d="m368.57 275.73c21.832 2e-3 43.664 0 65.496 5e-3 1.499 0 3.018-0.093 4.493 0.104 4.805 0.643 8.033 4.251 7.942 8.723-0.093 4.548-3.316 8.077-8.328 8.218-9.658 0.27-19.328 0.184-28.993 0.184-35.663 0-71.327-0.021-106.99-0.053-1.661-1e-3 -3.353 4e-3 -4.977-0.289-4.096-0.74-6.49-3.257-6.838-7.432-0.343-4.117 1.418-7.203 5.328-8.618 1.821-0.658 3.906-0.805 5.872-0.81 22.332-0.053 44.664-0.034 66.996-0.032z"/>
				<path d="m368.44 364.5c-22.637 0-45.273 6e-3 -67.911-4e-3 -6.47-3e-3 -10.11-2.962-10.227-8.245-0.121-5.525 3.583-8.691 10.313-8.694 45.107-0.021 90.214-0.03 135.32-0.021 5.829 1e-3 9.37 2.302 10.422 6.578 1.364 5.552-2.955 10.385-9.509 10.397-22.803 0.047-45.606 0.019-68.409 0.019v-0.03z"/>
				<path d="m216.29 282.79c8.458-8.499 15.841-15.921 23.229-23.337 1.056-1.061 2.069-2.178 3.219-3.128 3.693-3.051 8.513-2.88 11.717 0.34 3.209 3.225 3.602 8.228 0.234 11.681-10.565 10.835-21.279 21.527-32.112 32.095-3.28 3.199-7.935 3.132-11.298 0.034-4.644-4.277-9.119-8.757-13.426-13.374-3.285-3.521-3.019-8.403 0.207-11.671 3.446-3.49 8.197-3.619 11.996 2e-3 2.146 2.046 3.872 4.535 6.234 7.358z"/>
				<path d="m216.25 354.55c9.202-9.239 17.406-17.499 25.639-25.731 3.338-3.34 7.157-4.237 11.262-1.564 3.499 2.277 4.48 5.765 3.283 9.615-0.511 1.645-1.758 3.193-3.005 4.453-9.834 9.938-19.713 19.833-29.657 29.662-4.79 4.734-9.018 4.7-13.879 2e-3 -3.829-3.701-7.624-7.445-11.271-11.323-3.886-4.13-4.043-8.936-0.659-12.454 3.544-3.686 8.525-3.612 12.784 0.509 2.013 1.947 3.558 4.381 5.503 6.831z"/>
				<path d="m216.5 211.27c9.152-9.28 17.41-17.696 25.721-26.06 3.237-3.258 7.034-3.722 10.887-1.322 3.779 2.354 4.519 6.063 3.222 10.064-0.482 1.489-1.699 2.844-2.844 3.998-9.843 9.924-19.711 19.821-29.646 29.652-4.692 4.644-9.178 4.589-13.872-0.015-3.92-3.845-7.858-7.677-11.625-11.669-3.616-3.832-3.696-8.648-0.466-12.062 3.277-3.462 8.675-3.544 12.485 0.115 2.143 2.059 3.862 4.556 6.138 7.299z"/>
			</g>
		</g>
	</g>
	<circle cx="466.91" cy="506" r="119.9" clip-rule="evenodd" display="inline" fill="#214195" fill-rule="evenodd"/>
	<path d="m532.46 490.69h-50.244v-50.244c0-6.628-5.373-12-12-12h-6.613c-6.627 0-12 5.372-12 12v50.244h-50.244c-6.627 0-12 5.373-12 12v6.612c0 6.628 5.373 12 12 12h50.244v50.245c0 6.627 5.373 12 12 12h6.613c6.627 0 12-5.373 12-12v-50.245h50.244c6.627 0 12-5.372 12-12v-6.612c0-6.627-5.373-12-12-12z" clip-rule="evenodd" display="inline" fill="#fff" fill-rule="evenodd"/>
</g>
<g display="none">
	<g display="inline">
			<path d="m422.79 554.03l-103.3-0.01-105.13 2e-3 -69.86-4e-3c-32.243-2e-3 -58.477-26.274-58.479-58.563-9e-3 -116.83-0.015-233.66-0.015-350.49 0-15.84 6.064-30.657 17.077-41.724 11.024-11.078 25.792-17.179 41.582-17.179h24.873 57.278c67.989 0 140.43-7e-3 212.83-0.088 6.393 0 11.45 2.107 15.945 6.633 13.963 14.054 28.2 28.312 41.97 42.099 16.571 16.594 33.707 33.752 50.503 50.698 3.503 3.534 5.773 9.035 5.783 14.014 0.161 100.94 0.149 202.08 0.123 297.01-5e-3 14.735-6.258 29.451-17.157 40.373-10.902 10.926-25.599 17.198-40.319 17.208-24.569 0.016-49.14 0.021-73.707 0.021zm-103.3-18.009l103.3 0.01c24.563 0 49.13-5e-3 73.693-0.021 21.029-0.015 39.481-18.513 39.488-39.587 0.026-94.925 0.038-196.05-0.123-296.98-0.03-0.321-0.361-1.123-0.608-1.417-16.731-16.879-33.854-34.025-50.414-50.607-13.777-13.796-28.024-28.062-42.003-42.133-1.126-1.133-1.567-1.318-3.146-1.318-72.425 0.081-144.87 0.088-212.86 0.088h-82.15c-22.8 1e-3 -40.66 17.968-40.66 40.903 0 116.83 6e-3 233.66 0.015 350.49 1e-3 22.366 18.162 40.563 40.481 40.565l69.858 4e-3 105.14-2e-3zm0.849-32.069c-1e-3 0 1e-3 0 0 0-22.739-0.017-43.936-8.785-59.747-24.69-15.8-15.895-24.494-37.18-24.48-59.937 0.027-45.859 37.955-83.17 84.547-83.17h0.053c45.866 0.026 83.177 37.751 83.17 84.095-3e-3 22.202-8.735 43.177-24.587 59.062-15.856 15.888-36.795 24.64-58.956 24.64zm0.32-158.8v9c-36.673 0-66.526 29.24-66.547 65.182-0.022 37.326 29.047 66.588 66.181 66.615 36.182 0 65.584-29.475 65.589-65.704 5e-3 -36.423-29.234-66.072-65.181-66.093l-0.042-9zm83.085-91.496h-267.41v-117.42h267.41v117.42zm-249.41-18h231.41v-81.416h-231.41v81.416z" fill="#D81F37"/>
	</g>
	<g display="inline">
			<path d="m414.84 347.16h-3.425c-9.036 0-18.079 0.029-27.117-9e-3 -7.29-0.032-9.925-4.702-6.296-11.119 22.577-39.888 45.154-79.774 67.733-119.66 3.767-6.654 8.86-6.605 12.658 0.111 22.53 39.802 45.071 79.599 67.537 119.44 0.954 1.686 1.76 3.795 1.69 5.671-0.143 3.578-2.999 5.529-7.416 5.551-9.04 0.047-18.083 0.016-27.124 0.016h-3.874v3.561 99.937c-4e-3 7.068-1.807 8.89-8.826 8.892-18.936 7e-3 -37.873 0.019-56.809-0.023-1.689-3e-3 -3.52-5e-3 -5.04-0.631-3.192-1.322-3.723-4.233-3.719-7.47 0.04-33.507 0.026-67.013 0.026-100.52 2e-3 -1.143 2e-3 -2.28 2e-3 -3.747z" clip-rule="evenodd" fill="#214195" fill-rule="evenodd"/>
	</g>
</g>
<g clip-rule="evenodd" display="none" fill-rule="evenodd">
	<g display="inline" fill="#214195">
		<path d="m187.69 432.04c0-7.553-0.155-14.926 0.105-22.286 0.067-1.897 1.023-4.104 2.276-5.566 9.925-11.584 15.487-25.336 19.826-39.648 7.053-23.261 9.536-47.197 9.582-71.397 0.038-19.575 3.489-38.225 13.745-55.184 12.175-20.133 30.381-32.474 52.247-39.962 3.412-1.168 6.916-2.068 10.614-3.163 0-5.939-0.015-11.844 2e-3 -17.75 0.041-13.275 10.373-23.997 23.493-24.398 12.876-0.394 23.578 9.345 24.431 22.528 0.352 5.443 0.25 10.927 0.105 16.386-0.063 2.43 0.839 3.233 3.118 3.841 20.837 5.554 38.976 15.62 52.854 32.485 11.299 13.728 17.753 29.651 19.465 47.216 1.334 13.682 1.172 27.504 2.239 41.221 2.004 25.774 6.952 50.877 19.189 74.006 2.271 4.294 5.448 8.099 7.958 12.279 1.378 2.294 3.028 4.853 3.177 7.375 0.426 7.235 0.149 14.514 0.149 22.018-88.206-1e-3 -176.16-1e-3 -264.58-1e-3z"/>
		<path d="m351.13 446.06c4.808 13.4-2.575 30.485-16.24 37.362-11.802 5.938-23.503 5.168-34.089-2.688-10.627-7.887-14.99-18.772-12.916-32.03 0.25-1.601 0.598-2.689 2.662-2.684 20.13 0.065 40.26 0.04 60.583 0.04z"/>
	</g>
		<circle cx="320" cy="320" r="242.52" display="inline" fill="none" stroke="#D81F37" stroke-miterlimit="10" stroke-width="18"/>
</g>
<g clip-rule="evenodd" display="none" fill-rule="evenodd">
	<g display="inline">
		<circle cx="320" cy="312.72" r="207.14" fill="#214195"/>
		<g fill="#fff">
			<path d="m369.31 242.53c18.845 2e-3 37.69 0.04 56.535-0.028 3.986-0.014 7.229 0.952 8.639 5.061 1.672 4.865-2.15 9.321-8.083 9.339-16.052 0.049-32.105 0.029-48.161 0.03-21.777 1e-3 -43.555-0.032-65.331 0.018-3.954 9e-3 -7.288-0.944-8.748-4.967-1.786-4.92 1.664-9.347 7.357-9.399 10.748-0.098 21.497-0.047 32.247-0.053 8.514-6e-3 17.031-2e-3 25.545-1e-3z"/>
			<path d="m369.44 302.5c18.31 1e-3 36.619 0 54.93 4e-3 1.257 0 2.53-0.079 3.768 0.087 4.03 0.539 6.736 3.566 6.661 7.316-0.078 3.814-2.78 6.774-6.984 6.893-8.1 0.227-16.209 0.153-24.315 0.153-29.909 0-59.819-0.019-89.729-0.044-1.394-1e-3 -2.813 3e-3 -4.174-0.242-3.436-0.621-5.443-2.731-5.735-6.233-0.288-3.452 1.188-6.041 4.468-7.228 1.527-0.552 3.275-0.675 4.925-0.679 18.726-0.044 37.456-0.029 56.185-0.027z"/>
			<path d="m369.33 376.95c-18.984 0-37.97 5e-3 -56.955-3e-3 -5.426-3e-3 -8.479-2.484-8.576-6.915-0.102-4.635 3.005-7.29 8.648-7.292 37.83-0.018 75.659-0.025 113.49-0.019 4.889 1e-3 7.857 1.932 8.74 5.518 1.144 4.656-2.479 8.709-7.976 8.72-19.124 0.039-38.248 0.016-57.371 0.016 1e-3 -9e-3 1e-3 -0.016 1e-3 -0.025z"/>
			<path d="m241.73 308.42c7.094-7.128 13.285-13.353 19.481-19.573 0.886-0.889 1.734-1.826 2.699-2.623 3.097-2.558 7.139-2.416 9.826 0.285 2.692 2.705 3.021 6.9 0.197 9.796-8.861 9.087-17.847 18.055-26.933 26.917-2.75 2.683-6.654 2.626-9.475 0.028-3.896-3.586-7.648-7.343-11.261-11.215-2.755-2.953-2.531-7.048 0.174-9.789 2.89-2.927 6.875-3.035 10.06 1e-3 1.802 1.718 3.25 3.805 5.232 6.173z"/>
			<path d="m241.69 368.6c7.717-7.749 14.598-14.676 21.503-21.58 2.799-2.801 6.002-3.554 9.444-1.312 2.935 1.909 3.757 4.834 2.753 8.063-0.429 1.379-1.474 2.678-2.521 3.734-8.248 8.335-16.533 16.634-24.872 24.877-4.017 3.971-7.563 3.941-11.64 1e-3 -3.211-3.104-6.394-6.244-9.453-9.496-3.259-3.463-3.391-7.493-0.553-10.444 2.973-3.092 7.149-3.03 10.722 0.427 1.69 1.634 2.987 3.674 4.617 5.73z"/>
			<path d="m241.9 248.44c7.676-7.783 14.602-14.841 21.571-21.855 2.715-2.732 5.899-3.122 9.13-1.109 3.17 1.975 3.79 5.085 2.703 8.441-0.405 1.249-1.425 2.385-2.386 3.353-8.255 8.323-16.531 16.624-24.864 24.869-3.935 3.895-7.696 3.849-11.633-0.012-3.288-3.225-6.591-6.438-9.749-9.787-3.033-3.214-3.101-7.253-0.391-10.116 2.748-2.903 7.275-2.972 10.47 0.097 1.799 1.724 3.239 3.819 5.149 6.119z"/>
		</g>
	</g>
	<g display="inline" fill="#D81F37">
		<path d="m481.84 538.28c-0.866 2.412-1.4 5.017-2.66 7.204-4.91 8.52-12.027 13.732-22.247 13.593-5.491-0.073-10.516-1.863-14.467-5.697-8.446-8.195-16.761-16.529-25.007-24.925-5.147-5.24-7.153-11.658-6.268-18.965 0.046-0.377 0.036-0.763 0.063-1.354-18.489 11.705-37.993 14.256-58.446 6.706-13.904-5.131-24.579-14.409-32.103-27.185-15.073-25.593-10.178-58.49 11.623-78.666 21.95-20.314 55.232-22.623 79.565-5.387 13.609 9.64 22.289 22.69 25.615 39.05 3.315 16.304 0.554 31.698-8.057 46.256 4.069-0.907 7.9-0.955 11.7 0.049 3.924 1.035 7.361 2.965 10.238 5.834 7.943 7.923 15.879 15.853 23.796 23.799 3.366 3.379 5.482 7.43 6.315 12.141 0.057 0.315 0.224 0.611 0.338 0.915 2e-3 2.21 2e-3 4.421 2e-3 6.632zm-106.4-123.17c-22.346-2e-3 -40.43 18.041-40.524 40.434-0.094 22.162 18.175 40.616 40.461 40.547 23.507-0.072 40.553-19.071 40.548-40.398-8e-3 -22.515-18.013-40.583-40.485-40.583z"/>
		<path d="m342.49 457.03c0.333-12.079 4.453-20.798 12.776-27.444 3.107-2.482 7.219-2.046 9.586 0.918 2.341 2.934 1.763 7.02-1.295 9.554-6.574 5.451-8.916 12.354-6.958 20.677 0.973 4.137-0.843 7.576-4.596 8.586-3.44 0.927-7.082-0.881-8.002-4.319-0.818-3.064-1.195-6.246-1.511-7.972z"/>
	</g>
</g>
<g display="none">
	<g clip-rule="evenodd" display="inline" fill-rule="evenodd">
		<path d="m73.409 463.68c0.702-3.339 1.038-6.81 2.187-9.986 1.983-5.484 4.017-11.035 6.814-16.126 64.552-117.5 129.21-234.94 193.85-352.4 5.588-10.154 12.66-18.978 22.825-24.877 16.302-9.461 35.324-7.213 49.775 5.645 6.412 5.706 11.28 12.554 15.39 20.024 57.279 104.12 114.58 208.23 171.86 312.34 7.745 14.077 15.538 28.129 23.167 42.27 4.386 8.128 7.069 16.856 7.3 26.126 0.534 21.53-11.697 38.526-32.569 44.654-6.267 1.84-12.981 3.019-19.493 3.027-130.01 0.171-260.01 0.184-390.02 0.044-14.39-0.016-27.622-4.282-38.231-14.604-7.074-6.884-11.167-15.357-12.393-25.186-0.059-0.475-0.301-0.926-0.458-1.388v-9.562zm246.58 13.597h46.047c48.731 0 97.463 0.037 146.19-0.07 3.879-9e-3 7.875-0.596 11.602-1.665 4.785-1.374 6.601-4.739 5.29-9.572-1.04-3.832-2.496-7.654-4.401-11.134-21.018-38.391-42.162-76.713-63.27-115.05-43.307-78.663-86.599-157.33-129.96-235.96-1.843-3.341-4.098-6.555-6.662-9.371-3.43-3.766-6.147-3.77-9.563-0.047-2.52 2.745-4.738 5.878-6.555 9.137-10.43 18.712-20.694 37.516-31.025 56.283-54.239 98.531-108.49 197.06-162.67 295.62-1.75 3.186-3.071 6.698-4.014 10.214-1.401 5.224 0.414 8.567 5.632 10.021 3.655 1.02 7.571 1.534 11.371 1.539 63.996 0.09 127.99 0.064 191.99 0.064z" fill="#214195"/>
		<path d="m341.8 272.64c-1e-3 21.131-0.146 42.265 0.055 63.395 0.115 12.145-7.983 20.269-16.405 22.608-13.691 3.805-28.013-6.501-28.052-20.727-0.117-43.521-0.097-87.042-3e-3 -130.56 0.025-11.624 10.187-21.313 21.983-21.437 11.677-0.123 22.11 9.283 22.262 20.815 0.282 21.547 0.132 43.1 0.161 64.65 0 0.42-1e-3 0.839-1e-3 1.259z" fill="#D81F37"/>
		<path d="m319.84 426.05c-12.277-0.054-22.224-9.978-22.274-22.223-0.051-12.289 10.07-22.346 22.443-22.3 12.459 0.046 22.248 9.958 22.187 22.468-0.06 12.29-10.014 22.111-22.356 22.055z" fill="#D81F37"/>
	</g>
</g>
<g display="none">
	<g clip-rule="evenodd" display="inline" fill-rule="evenodd">
		<path d="m309.72 144.5h20.567c0.986 0.215 1.961 0.557 2.957 0.627 24.797 1.75 48.258 8.349 69.93 20.46 48.99 27.38 79.043 68.669 89.631 123.9 1.152 6.01 1.814 12.113 2.703 18.174v24.681c-0.223 0.992-0.574 1.976-0.652 2.979-1.287 16.6-4.746 32.765-11.127 48.109-24.805 59.641-68.789 96.307-132.2 109.35-5.658 1.165-11.418 1.829-17.133 2.726h-28.793c-3.695-0.528-7.396-1.022-11.085-1.591-35.109-5.41-66.055-19.75-92.339-43.69-29.402-26.781-47.799-59.804-54.918-98.992-1.137-6.258-1.854-12.592-2.766-18.89v-24.681c0.514-3.938 0.973-7.885 1.549-11.813 4.99-33.999 18.358-64.277 40.944-90.22 28.484-32.72 64.224-52.561 107.21-59.093 5.157-0.783 10.344-1.363 15.517-2.038zm10.409 44.063c-73.058 0.131-131.85 59.106-131.73 132.14 0.116 72.507 59.341 131.21 132.5 130.92 71.308-0.281 130.56-57.861 130.64-131.35 0.083-72.956-59.059-131.84-131.41-131.71z" fill="#214195"/>
		<path d="m298.56 333.2c1.026-1.36 1.735-2.568 2.693-3.528 22.833-22.871 45.657-45.75 68.559-68.55 10.52-10.474 26.762-8.882 34.584 3.234 5.578 8.638 4.441 19.836-2.98 27.356-10.189 10.321-20.5 20.521-30.75 30.78-19.049 19.063-38.096 38.129-57.14 57.196-8.279 8.29-22.314 8.547-30.609 0.324-14.759-14.631-29.397-29.384-44.071-44.101-6.289-6.307-8.247-13.912-5.707-22.325 2.516-8.336 8.468-13.422 17-15.101 7.464-1.47 14.054 0.739 19.454 6.023 8.731 8.546 17.32 17.238 25.974 25.862 0.719 0.721 1.477 1.401 2.993 2.83z" fill="#D81F37"/>
	</g>
</g>
<g display="none">
	<path d="m315.38 60.963c-56.884 0-103.16 44.084-103.16 98.27 0 16.628 4.507 33.085 13.048 47.703 0.099 0.218 0.204 0.433 0.314 0.646l76.702 147.63c2.462 4.742 7.534 7.742 13.086 7.742s10.624-3 13.086-7.738l76.732-147.63c0.123-0.236 0.236-0.473 0.346-0.713 8.517-14.572 13.01-31.003 13.01-47.639 1e-3 -54.185-46.277-98.269-103.16-98.269zm0.012 142.73c-25.75 0-46.699-19.947-46.699-44.467 0-24.527 20.949-44.482 46.699-44.482 25.749 0 46.696 19.955 46.696 44.482 0 24.52-20.947 44.467-46.696 44.467z" display="inline" fill="#214195"/>
	<g display="inline">
		<path d="m240.76 293.06h-47.964c1.231 2.16 1.77 3.307 2.469 4.304 39.427 56.181 78.896 112.32 118.23 168.59 2.333 3.337 4.146 3.793 7.538 2.225 31.582-14.602 63.241-28.985 94.876-43.441 1.133-0.519 2.233-1.133 3.816-1.941-22.745-23.137-45.208-45.985-68.013-69.182 1.726-2.333 3.288-4.441 5.165-6.979 23.59 23.959 46.982 47.718 70.671 71.776 25.239-22.392 50.296-44.625 76.077-67.5-35.604-20.713-70.68-41.119-106.07-61.709 2.788-5.007 5.365-9.636 8.174-14.681 6.61 3.826 13.125 7.583 19.629 11.365 31.246 18.166 62.492 36.333 93.732 54.512 7.996 4.653 8.574 11.172 1.502 17.455-28.486 25.303-56.955 50.631-85.554 75.768-2.894 2.543-6.524 4.114-9.968 5.691-32.398 14.832-64.85 29.515-97.219 44.43-2.545 1.173-5.046 3.337-6.796 5.768-17.996 24.987-35.814 50.141-53.72 75.212-6.121 8.57-10.542 8.404-15.911-0.623-44.931-75.545-89.84-151.11-134.74-226.67-3.517-5.919-2.889-10.21 2.184-14.192 18.979-14.9 37.967-29.788 57.046-44.52 1.841-1.422 4.32-2.382 6.531-2.453 15.532-0.503 31.071-0.757 46.609-0.938 1.134-0.014 2.743 0.834 3.34 1.876 2.727 4.758 5.172 9.728 8.365 15.864zm-57.965 1.204c-16.723 13.09-33.241 26.019-50.076 39.196 42.537 71.568 84.784 142.65 127.26 214.12 17.222-24.183 33.923-47.635 50.697-71.188-42.736-60.865-85.186-121.32-127.88-182.13z" clip-rule="evenodd" fill="#D81F37" fill-rule="evenodd"/>
	</g>
</g>
<g display="none">
	<path d="m132.16 279.18c15.181 0 27.466-12.292 27.466-27.475 0-2.779-0.848-5.221-1.586-7.661 35.026-28.353 97.04-78.121 125.25-99.959 4.475 3.179 9.703 5.37 15.479 5.37 4.922 0 9.247-1.602 13.133-3.784 18.259 15.479 49.061 41.65 71.016 60.31-0.26 1.593-1.004 3.038-1.004 4.631 0 15.173 12.448 27.475 27.624 27.475 15.18 0 27.473-12.301 27.473-27.475 0-2.59-0.854-5.08-1.593-7.513l71.017-64.054c3.775 1.995 7.951 3.438 12.435 3.438 15.181 0 27.513-12.292 27.513-27.474s-12.332-27.458-27.513-27.458c-15.033 0-27.325 12.277-27.325 27.458 0 3.635 0.738 7.113 2.04 10.259-19.813 17.812-50.505 45.427-69.423 62.65-4.333-2.748-9.256-4.773-14.623-4.773-6.518 0-12.145 2.591-16.918 6.358-18.07-15.471-47.428-40.356-68.277-58.009 1.187-3.045 1.893-6.076 1.893-9.372 0-15.214-12.293-27.506-27.326-27.506-15.181 0-27.473 12.292-27.473 27.506 0 3.296 0.706 6.483 1.853 9.372l-125.95 97.918c-4.333-2.874-9.404-5.064-15.181-5.064-15.174 0-27.475 12.293-27.475 27.356-1e-3 15.183 12.3 27.476 27.474 27.476z" display="inline" fill="#214195"/>
	<g display="inline">
			<path d="m349.58 356.49h4.945c13.043 0 26.098-0.043 39.146 0.013 10.523 0.046 14.326 6.788 9.088 16.051-32.591 57.583-65.183 115.16-97.779 172.74-5.438 9.606-12.791 9.536-18.273-0.16-32.524-57.459-65.064-114.91-97.497-172.42-1.377-2.434-2.541-5.479-2.44-8.187 0.206-5.166 4.33-7.981 10.706-8.013 13.05-0.068 26.104-0.022 39.156-0.022h5.593v-5.14-144.27c5e-3 -10.204 2.607-12.833 12.741-12.836 27.335-0.01 54.674-0.026 82.009 0.034 2.438 4e-3 5.081 7e-3 7.276 0.911 4.606 1.909 5.373 6.111 5.368 10.783-0.06 48.371-0.039 96.74-0.039 145.11v5.409z" clip-rule="evenodd" fill="#D81F37" fill-rule="evenodd"/>
	</g>
</g>
<g display="none">
	<g clip-rule="evenodd" display="inline" fill-rule="evenodd">
		<path d="m443.4 60.417c5.625 3.246 11.9 5.741 16.716 9.921 6.723 5.833 8.725 14.217 8.712 23.064-0.049 33.465-0.02 66.93-0.021 100.4 0 78.087 9e-3 156.17-9e-3 234.26-4e-3 16.444-8.565 28.149-23.493 32.284-6.326 1.75-6.903 1.473-9.185-4.63-1.363-3.645-2.668-7.313-4.227-11.592 2.145 0 3.811 0.07 5.467-0.011 8.196-0.401 13.415-5.483 13.971-13.596 0.095-1.408 0.071-2.828 0.071-4.242 2e-3 -110.29 4e-3 -220.59-9e-3 -330.88 0-2.038-0.038-4.094-0.294-6.112-0.689-5.505-4.68-9.921-10.11-11.034-2.287-0.468-4.67-0.627-7.011-0.627-82.959-0.03-165.92-0.03-248.87-1e-3 -2.34 2e-3 -4.725 0.16-7.013 0.62-5.482 1.103-9.454 5.461-10.148 10.982-0.253 2.018-0.297 4.074-0.297 6.112-0.013 110.45-0.02 220.9 0.032 331.35 1e-3 2.944 0.055 6.108 1.087 8.783 2.53 6.561 8.017 8.699 14.717 8.688 28.909-0.049 57.818-0.02 86.728-0.02h5.668c-1.706 5.419-3.033 10.407-4.948 15.152-0.439 1.091-2.893 1.929-4.426 1.937-21.524 0.127-43.048 0.1-64.574 0.078-7.382-8e-3 -14.776 0.153-22.145-0.204-16.227-0.795-28.441-13.06-29.479-29.271-0.061-0.94-0.069-1.886-0.069-2.828-4e-3 -112.02-0.016-224.04 0.012-336.07 3e-3 -13.455 5.854-23.511 18.021-29.591 2.354-1.177 4.908-1.958 7.37-2.922 89.253 2e-3 178.5 2e-3 267.76 2e-3z" fill="#D81F37"/>
		<path d="m400.04 543.13c-7.371-19.618-14.726-39.243-22.122-58.853-4.079-10.816-8.229-21.605-12.014-31.53-7.985 0.593-15.359 1.139-23.538 1.748-3.53 11.209-7.375 23.418-11.224 35.623-2.731 8.662-5.409 17.34-8.265 25.961-0.428 1.29-1.696 2.306-2.575 3.447-0.94-1.104-2.298-2.063-2.753-3.343-3.503-9.865-6.832-19.792-10.449-30.385-6.943 4.708-13.521 9.168-20.103 13.625-1.169 0.792-2.268 1.745-3.538 2.313-1.46 0.657-3.075 0.964-4.623 1.422-0.054-1.607-0.543-3.353-0.094-4.808 5.351-17.355 10.845-34.67 16.29-51.998 1.072-3.413 2.098-6.839 3.206-10.461-9.645-5.782-15.682-13.927-17.042-25.166-0.539-4.449-0.678-8.981-1.658-13.331-0.514-2.278-2.156-4.506-3.794-6.292-12.074-13.164-11.423-33.277 1.86-45.117 3.523-3.141 4.616-6.024 3.896-10.956-3.475-23.829 16.8-41.702 40.332-36.021 1.046 0.252 2.09 0.512 3.37 0.826 4.445-7.619 10.681-13.129 19.149-15.754 13.208-4.091 27.071 0.725 35.626 11.892 1.35 1.763 3.745 3.496 5.854 3.78 15.071 2.026 26.977 13.948 28.113 29.052 0.328 4.366 2.204 7.191 5.669 9.61 15.654 10.926 18.125 31.756 6.877 46.951-3.831 5.177-6.04 12.483-6.508 18.998-0.665 9.318-2.512 17.662-8.912 24.541-1.963 2.106-1.892 3.781-0.952 6.257 10.002 26.358 19.881 52.761 29.796 79.151 0.443 1.175 1.178 2.306 1.302 3.507 0.131 1.258-0.31 2.575-0.501 3.862-1.153-0.219-2.468-0.153-3.439-0.7-6.832-3.849-13.591-7.827-20.378-11.754-0.669-0.388-1.37-0.722-2.644-1.387-1.959 6.302-3.787 12.373-5.732 18.408-1.82 5.646-3.764 11.253-5.653 16.879-0.944 3e-3 -1.886 3e-3 -2.829 3e-3zm8.667-173.62c-0.015-32.324-25.92-58.338-58.182-58.418-32.409-0.082-58.852 26.189-58.842 58.461 9e-3 31.98 26.423 58.463 58.414 58.57 32.304 0.105 58.626-26.216 58.61-58.613z" fill="#214195"/>
		<path d="m216.41 148.19v-26.685h186.17v26.685h-186.17z" fill="#D81F37"/>
		<path d="m216.51 183.7h185.97v26.943h-185.97v-26.943z" fill="#D81F37"/>
	</g>
</g>
<g display="none">
	<g display="inline">
			<path d="m159.02 177.28v-46.678c0-6.5-0.065-13 7e-3 -19.498 0.147-13.337 8.576-21.853 21.972-21.898 28.498-0.096 56.996-0.033 85.494-0.034 69.827-3e-3 139.66-6e-3 209.48-8e-3 1.167 0 2.335-0.018 3.5 0.032 12.185 0.522 20.558 9.022 20.612 21.211 0.088 19.665 0.017 39.33 0.013 58.995-1e-3 2.315 0 4.629 0 7.566 2.167 0.107 4.075 0.262 5.985 0.287 9.993 0.128 20.05-0.451 29.97 0.464 23.46 2.166 39.843 20.453 39.887 44.004 0.092 49.829 0.028 99.658 0.028 149.49 0 16.666 0.048 33.331-0.011 49.996-0.091 25.992-18.731 44.71-44.741 44.928-10.133 0.086-20.268 0.015-30.756 0.015-0.145 1.854-0.354 3.291-0.354 4.729-0.014 29.331-0.046 58.662 0.02 87.993 0.033 14.646-7.256 22.099-22.064 22.104-61.161 0.02-122.32 0-183.48 0-37.164-1e-3 -74.327 0.019-111.49 3e-3 -16.294-7e-3 -24.108-7.961-24.088-24.287 0.035-28.497 0.018-56.994 8e-3 -85.491 0-1.467-0.133-2.934-0.235-5.045-8.653 0-17.108 0.282-25.533-0.092-6.435-0.286-13.125-0.454-19.191-2.328-18.375-5.676-29.846-22.503-29.864-42.773-0.051-58.996-0.035-117.99 7e-3 -176.99 7e-3 -9.323-0.527-18.746 0.598-27.95 2.804-22.945 20.395-38.26 43.583-38.71 9.972-0.194 19.953-0.033 30.646-0.033zm-0.07 247.87c0-2.43 1e-3 -4.223 0-6.017-6e-3 -19.16-0.025-38.32-0.016-57.48 7e-3 -13.906 8.528-22.545 22.348-22.549 97.968-0.025 195.94 0.138 293.9-0.209 14.412-0.051 25.86 7.771 25.174 25.563-0.72 18.633-0.167 37.315-0.149 55.977 2e-3 1.447 0.164 2.894 0.277 4.754 9.66 0 18.971-0.193 28.267 0.081 4.691 0.139 6.349-1.283 6.337-6.207-0.146-64.812-0.095-129.62-0.1-194.44 0-6.073-0.298-6.386-6.58-6.382-18.326 0.012-36.653 0.095-54.98 0.091-113.8-0.024-227.59-0.067-341.39-0.092-6.729-1e-3 -6.899 0.214-6.899 7.112-2e-3 35.821-1e-3 71.643-1e-3 107.46 0 28.824-2e-3 57.647 4e-3 86.471 1e-3 2.843-0.441 5.914 3.994 5.88 9.653-0.072 19.308-0.021 29.806-0.021zm299.88 114.63v-159.23h-258.52v159.23h258.52zm0.07-409.21h-258.57v46.335h258.57v-46.335z" clip-rule="evenodd" fill="#D81F37" fill-rule="evenodd"/>
		<path d="m480.07 280.17c-4.639-0.312-9.376-0.135-13.898-1.034-10.422-2.07-17.176-11.638-16.108-22.051 1.031-10.065 9.571-17.916 19.961-18.149 6.495-0.146 12.998-0.132 19.494-0.016 12.092 0.218 20.677 8.702 20.75 20.355 0.07 11.255-8.448 19.978-20.182 20.542-3.325 0.16-6.664 0.024-9.997 0.024-6e-3 0.11-0.013 0.22-0.02 0.329z" clip-rule="evenodd" fill="#214195" fill-rule="evenodd"/>
		<path d="m330.5 408.92c27.156 3e-3 54.313-0.042 81.47 0.028 8.666 0.022 15.059 4.17 18.634 11.969 3.396 7.408 2.468 14.67-2.599 21.147-4.044 5.169-9.553 7.791-16.068 7.798-54.479 0.057-108.96 0.092-163.44-7e-3 -11.845-0.021-20.75-9.115-20.733-20.523 0.017-11.491 8.834-20.332 20.769-20.38 27.321-0.11 54.644-0.035 81.967-0.032z" clip-rule="evenodd" fill="#214195" fill-rule="evenodd"/>
		<path d="m329.83 517.41c-26.653 0-53.305 0.057-79.958-0.026-11.987-0.037-20.735-7.188-21.928-17.583-1.457-12.696 7.252-22.853 20.23-23.271 7.655-0.247 15.324-0.07 22.987-0.07 46.142 2e-3 92.285-0.01 138.43 0.022 11.687 9e-3 19.956 5.794 22.313 15.421 3.162 12.912-5.947 25.007-19.619 25.388-13.316 0.37-26.649 0.141-39.976 0.153-14.159 0.015-28.318 4e-3 -42.478 4e-3 2e-3 -0.013 2e-3 -0.026 2e-3 -0.038z" clip-rule="evenodd" fill="#214195" fill-rule="evenodd"/>
	</g>
</g>
<g display="none">
	<g clip-rule="evenodd" display="inline" fill-rule="evenodd">
		<path d="m253.49 40c4.344 3.242 9.166 6.004 12.963 9.794 104.58 104.39 209.02 208.91 313.61 313.29 5.95 5.938 8.718 12.284 8.653 20.78-0.299 38.813-0.441 77.633 0.023 116.44 0.181 15.065-10.307 21.549-21.608 21.536-154.76-0.172-309.52-0.127-464.28-0.063-10.118 4e-3 -16.445-4.984-20.338-13.837v-132.98c4.412-10.68 12.588-13.976 23.811-13.96 137.12 0.21 274.24 0.137 411.36 0.136h8.313c-2.621-2.673-4.388-4.505-6.187-6.305-93.418-93.421-186.68-187.01-280.47-280.05-11.79-11.695-12.278-27.456 5.152-34.781h8.999zm-133.94 444.7h431.95v-86.432h-431.95v86.432z" fill="#D81F37"/>
		<path d="m291.97 303.93c42.154 0 84.308-5e-3 126.46 3e-3 12.049 2e-3 20.287 7.596 20.238 18.607-0.046 10.624-8.429 18.202-20.21 18.202-83.977 3e-3 -167.95 0-251.93-0.018-9.775-2e-3 -16.778-4.577-19.493-12.605-2.487-7.355-0.462-15.75 6.041-20.054 3.509-2.324 8.237-3.9 12.428-3.929 42.152-0.281 84.308-0.171 126.46-0.171v-0.035z" fill="#214195"/>
		<path d="m190.44 441.38c0.022 10.13-8.215 18.44-18.3 18.465-9.988 0.024-18.471-8.396-18.501-18.365s8.403-18.418 18.412-18.445c10.096-0.028 18.367 8.224 18.389 18.345z" fill="#214195"/>
	</g>
</g>
<g display="none">
	<g clip-rule="evenodd" display="inline" fill-rule="evenodd">
		<path d="m522.49 438.82c-1.959 5.455-3.167 11.346-6.017 16.293-11.105 19.269-27.202 31.059-50.315 30.743-12.42-0.166-23.783-4.214-32.72-12.886-19.103-18.535-37.907-37.384-56.558-56.372-11.642-11.852-16.179-26.367-14.175-42.893 0.104-0.853 0.081-1.725 0.141-3.063-41.816 26.474-85.928 32.242-132.19 15.167-31.447-11.604-55.59-32.589-72.606-61.482-34.091-57.883-23.019-132.29 26.288-177.92 49.645-45.945 124.92-51.167 179.95-12.183 30.78 21.801 50.41 51.319 57.934 88.318 7.498 36.874 1.252 71.692-18.222 104.62 9.203-2.052 17.868-2.16 26.462 0.111 8.874 2.341 16.649 6.705 23.156 13.194 17.965 17.919 35.913 35.854 53.818 53.825 7.613 7.643 12.399 16.804 14.283 27.458 0.129 0.714 0.506 1.383 0.765 2.07 1e-3 5.001 1e-3 10.002 1e-3 15.002zm-240.65-278.58c-50.539-5e-3 -91.439 40.803-91.653 91.447-0.212 50.124 41.105 91.861 91.51 91.705 53.165-0.164 91.718-43.134 91.706-91.369-0.018-50.919-40.739-91.783-91.563-91.783z" fill="#214195"/>
		<path d="m207.32 255.06c0.753-27.319 10.071-47.039 28.896-62.071 7.028-5.614 16.326-4.627 21.681 2.076 5.294 6.635 3.986 15.876-2.929 21.607-14.869 12.329-20.166 27.94-15.737 46.765 2.2 9.355-1.906 17.135-10.394 19.419-7.781 2.096-16.017-1.992-18.098-9.77-1.853-6.929-2.706-14.124-3.419-18.026z" fill="#D81F37"/>
	</g>
</g>
<g clip-rule="evenodd" display="none" fill-rule="evenodd">
	<path d="m221.98 88.842c0-9.693-0.014-18.661 4e-3 -27.629 0.016-7.775 2.797-10.644 10.385-10.646 58.329-0.02 116.66-0.029 174.99-0.029 7.812 0 10.697 3.006 10.684 10.947-0.017 8.953-4e-3 17.906-4e-3 27.359h7.408c22.331 0 44.664-0.081 66.995 0.025 17.86 0.085 28.245 10.596 28.246 28.361 8e-3 126.49 0.016 252.98-0.045 379.47-2e-3 4.465-0.129 9.085-1.237 13.364-2.889 11.16-12.936 18.359-25.018 18.366-69.494 0.037-138.99 0.026-208.48 0.031-45.164 4e-3 -90.328 0.042-135.49-0.044-4.456-9e-3 -9.098-0.112-13.328-1.315-11.169-3.178-17.702-13.199-17.729-26.598-0.071-34.83-0.019-69.662-0.019-104.49 0-91.66-0.018-183.32 0.05-274.98 3e-3 -4.629 0.105-9.429 1.282-13.852 3.067-11.528 13.077-18.27 26.633-18.331 21.665-0.098 43.33-0.015 64.996-9e-3 2.988 3e-3 5.975 2e-3 9.683 2e-3zm-0.021 17.688c-1.588-0.16-2.708-0.37-3.827-0.371-23.994-0.017-47.987-0.047-71.981 0.015-6.75 0.017-9.469 2.93-9.485 9.948-0.036 15.496 0.01 30.992 0.011 46.487 5e-3 112.3 1e-3 224.61 0.021 336.91 1e-3 9.729 2.219 11.912 12.155 11.917 67.648 0.031 135.3 0.03 202.94 0.035 46.821 4e-3 93.642-0.012 140.46 0.021 4.2 3e-3 8.348-0.409 10.091-4.769 0.999-2.499 0.94-5.519 0.943-8.304 0.045-55.652 0.028-111.3 0.027-166.96-2e-3 -71.314 0.011-142.63-0.018-213.94-4e-3 -9.308-2.173-11.334-11.553-11.339-22.494-0.012-44.988-0.028-67.481-0.043-1.936-1e-3 -3.871 0-6.251 0 0 9.618 7e-3 18.58-2e-3 27.543-8e-3 7.968-2.793 10.757-10.806 10.759-58.152 0.017-116.3 0.027-174.46 0.027-7.854 0-10.809-3.012-10.8-10.853 0.011-8.954 4e-3 -17.91 4e-3 -27.086zm178.84-38.678h-161.42v59.365h161.42v-59.365z" display="inline" fill="#D81F37"/>
	<g display="inline">
		<path d="m311.81 180.21h16.382c0.785 0.171 1.563 0.443 2.355 0.499 19.75 1.394 38.438 6.649 55.699 16.297 39.02 21.808 62.957 54.695 71.391 98.688 0.918 4.787 1.445 9.649 2.152 14.477v19.657c-0.176 0.791-0.457 1.574-0.518 2.374-1.027 13.221-3.781 26.097-8.863 38.319-19.758 47.503-54.791 76.708-105.3 87.096-4.506 0.929-9.094 1.457-13.646 2.171h-22.934c-2.943-0.42-5.891-0.813-8.829-1.267-27.964-4.31-52.613-15.731-73.548-34.8-23.419-21.331-38.072-47.634-43.743-78.848-0.905-4.984-1.477-10.029-2.203-15.046v-19.657c0.409-3.138 0.775-6.28 1.234-9.41 3.975-27.08 14.623-51.196 32.612-71.86 22.688-26.062 51.154-41.864 85.394-47.067 4.107-0.624 8.239-1.086 12.36-1.623zm8.29 35.096c-58.191 0.104-105.02 47.078-104.92 105.25 0.092 57.752 47.265 104.51 105.54 104.28 56.798-0.224 103.99-46.087 104.06-104.62 0.065-58.11-47.042-105.01-104.67-104.91z" fill="#214195"/>
		<path d="m302.93 330.51c0.817-1.083 1.381-2.046 2.145-2.81 18.186-18.217 36.366-36.44 54.608-54.601 8.379-8.342 21.314-7.074 27.547 2.576 4.443 6.88 3.537 15.8-2.375 21.79-8.115 8.221-16.328 16.345-24.492 24.516-15.172 15.185-30.344 30.37-45.512 45.558-6.595 6.603-17.774 6.808-24.381 0.258-11.755-11.653-23.415-23.404-35.103-35.126-5.009-5.023-6.568-11.081-4.545-17.781 2.004-6.64 6.746-10.691 13.54-12.028 5.946-1.171 11.195 0.589 15.495 4.798 6.955 6.807 13.795 13.729 20.688 20.6 0.573 0.57 1.177 1.112 2.385 2.25z" fill="#D81F37"/>
	</g>
</g>
<g display="none">
	<path d="m221.98 88.842c0-9.693-0.014-18.661 4e-3 -27.629 0.016-7.775 2.797-10.644 10.385-10.646 58.329-0.02 116.66-0.029 174.99-0.029 7.812 0 10.697 3.006 10.684 10.947-0.017 8.953-4e-3 17.906-4e-3 27.359h7.408c22.331 0 44.664-0.081 66.995 0.025 17.86 0.085 28.245 10.596 28.246 28.361 8e-3 126.49 0.016 252.98-0.045 379.47-2e-3 4.465-0.129 9.085-1.237 13.364-2.889 11.16-12.936 18.359-25.018 18.366-69.494 0.037-138.99 0.026-208.48 0.031-45.164 4e-3 -90.328 0.042-135.49-0.044-4.456-9e-3 -9.098-0.112-13.328-1.315-11.169-3.178-17.702-13.199-17.729-26.598-0.071-34.83-0.019-69.662-0.019-104.49 0-91.66-0.018-183.32 0.05-274.98 3e-3 -4.629 0.105-9.429 1.282-13.852 3.067-11.528 13.077-18.27 26.633-18.331 21.665-0.098 43.33-0.015 64.996-9e-3 2.988 3e-3 5.975 2e-3 9.683 2e-3zm-0.021 17.688c-1.588-0.16-2.708-0.37-3.827-0.371-23.994-0.017-47.987-0.047-71.981 0.015-6.75 0.017-9.469 2.93-9.485 9.948-0.036 15.496 0.01 30.992 0.011 46.487 5e-3 112.3 1e-3 224.61 0.021 336.91 1e-3 9.729 2.219 11.912 12.155 11.917 67.648 0.031 135.3 0.03 202.94 0.035 46.821 4e-3 93.642-0.012 140.46 0.021 4.2 3e-3 8.348-0.409 10.091-4.769 0.999-2.499 0.94-5.519 0.943-8.304 0.045-55.652 0.028-111.3 0.027-166.96-2e-3 -71.314 0.011-142.63-0.018-213.94-4e-3 -9.308-2.173-11.334-11.553-11.339-22.494-0.012-44.988-0.028-67.481-0.043-1.936-1e-3 -3.871 0-6.251 0 0 9.618 7e-3 18.58-2e-3 27.543-8e-3 7.968-2.793 10.757-10.806 10.759-58.152 0.017-116.3 0.027-174.46 0.027-7.854 0-10.809-3.012-10.8-10.853 0.011-8.954 4e-3 -17.91 4e-3 -27.086zm178.84-38.678h-161.42v59.365h161.42v-59.365z" clip-rule="evenodd" display="inline" fill="#214195" fill-rule="evenodd"/>
	<path d="m175.4 436.06c11.161 0 20.192-9.037 20.192-20.196 0-2.043-0.623-3.838-1.166-5.633 25.749-20.843 71.336-57.43 92.076-73.483 3.29 2.338 7.133 3.947 11.38 3.947 3.619 0 6.798-1.178 9.654-2.782 13.423 11.38 36.066 30.62 52.207 44.337-0.19 1.172-0.738 2.232-0.738 3.404 0 11.155 9.152 20.197 20.307 20.197 11.16 0 20.197-9.042 20.197-20.197 0-1.904-0.629-3.733-1.171-5.522l52.206-47.088c2.775 1.466 5.846 2.526 9.142 2.526 11.159 0 20.226-9.036 20.226-20.197 0-11.16-9.066-20.186-20.226-20.186-11.052 0-20.089 9.025-20.089 20.186 0 2.672 0.543 5.229 1.501 7.542-14.565 13.094-37.128 33.395-51.036 46.055-3.185-2.019-6.804-3.508-10.75-3.508-4.789 0-8.928 1.904-12.437 4.674-13.283-11.373-34.866-29.666-50.192-42.644 0.871-2.24 1.39-4.468 1.39-6.891 0-11.184-9.037-20.221-20.087-20.221-11.161 0-20.197 9.037-20.197 20.221 0 2.423 0.519 4.767 1.362 6.891l-92.59 71.982c-3.185-2.112-6.913-3.723-11.161-3.723-11.154 0-20.197 9.037-20.197 20.111 0 11.161 9.043 20.198 20.197 20.198z" display="inline" fill="#D81F37"/>
	<g clip-rule="evenodd" display="inline" fill="#D81F37" fill-rule="evenodd">
		<path d="m369.44 196.14c18.31 1e-3 36.619 0 54.93 4e-3 1.257 0 2.53-0.079 3.768 0.087 4.03 0.539 6.736 3.566 6.661 7.316-0.078 3.814-2.78 6.774-6.984 6.893-8.1 0.227-16.209 0.153-24.315 0.153-29.909 0-59.819-0.019-89.729-0.044-1.394-1e-3 -2.813 3e-3 -4.174-0.242-3.436-0.621-5.443-2.731-5.735-6.233-0.288-3.452 1.188-6.041 4.468-7.228 1.527-0.552 3.275-0.675 4.925-0.679 18.726-0.044 37.456-0.029 56.185-0.027z"/>
		<path d="m369.33 270.6c-18.984 0-37.97 5e-3 -56.955-3e-3 -5.426-3e-3 -8.479-2.484-8.576-6.915-0.102-4.635 3.005-7.29 8.648-7.292 37.83-0.018 75.659-0.025 113.49-0.019 4.889 1e-3 7.857 1.932 8.74 5.518 1.144 4.656-2.479 8.709-7.976 8.72-19.124 0.039-38.248 0.016-57.371 0.016 1e-3 -0.01 1e-3 -0.016 1e-3 -0.025z"/>
		<path d="m241.73 202.07c7.094-7.128 13.285-13.353 19.481-19.573 0.886-0.889 1.734-1.826 2.699-2.623 3.097-2.558 7.139-2.416 9.826 0.285 2.692 2.705 3.021 6.9 0.197 9.796-8.861 9.087-17.847 18.055-26.933 26.917-2.75 2.683-6.654 2.626-9.475 0.028-3.896-3.586-7.648-7.343-11.261-11.215-2.755-2.953-2.531-7.048 0.174-9.789 2.89-2.927 6.875-3.035 10.06 1e-3 1.802 1.718 3.25 3.805 5.232 6.173z"/>
		<path d="m241.69 262.24c7.717-7.749 14.598-14.676 21.503-21.58 2.799-2.801 6.002-3.554 9.444-1.312 2.935 1.909 3.757 4.834 2.753 8.063-0.429 1.379-1.474 2.678-2.521 3.734-8.248 8.335-16.533 16.634-24.872 24.877-4.017 3.971-7.563 3.941-11.64 1e-3 -3.211-3.104-6.394-6.244-9.453-9.496-3.259-3.463-3.391-7.493-0.553-10.444 2.973-3.092 7.149-3.03 10.722 0.427 1.69 1.634 2.987 3.674 4.617 5.73z"/>
	</g>
</g>
<g display="none">
	<g display="inline">
		<path d="m152 113.66c6.547-15.945 18.344-21.729 35.536-21.451 46.265 0.746 92.55 0.428 138.82 0.142 12.398-0.077 21.476 4.477 28.042 14.918 4.7 7.474 10.286 14.401 14.815 21.969 3.13 5.231 6.984 6.833 12.939 6.804 45.98-0.224 91.962-0.142 137.94-0.115 25.154 0.015 35.138 10.138 35.141 35.509 4e-3 11.121 0 22.244 0 34.252 6.351 0 11.961 0.638 17.38-0.112 21.058-2.917 39.031 21.845 29.82 44.016-11.168 26.875-22.119 53.841-33.171 80.766-12.95 31.545-25.885 63.096-38.873 94.629-6.533 15.861-14.604 21.232-31.766 21.232-115.55 0.02-231.09 0.027-346.63 0.037 1e-3 -110.86 1e-3 -221.73 1e-3 -332.6zm35.291 303.84c1.966 0.242 2.839 0.443 3.712 0.443 101.7 0.023 203.41-0.035 305.11 0.207 5.894 0.014 7.448-2.916 9.213-7.225 22.929-56.059 45.949-112.08 68.905-168.13 0.946-2.31 1.465-4.795 2.489-8.225-3.568-0.268-6.09-0.622-8.613-0.622-100.52-0.027-201.05 0.029-301.57-0.163-5.785-0.01-8.264 2.148-10.177 7.197-7.296 19.242-14.963 38.342-22.469 57.504-15.427 39.379-30.841 78.764-46.597 119.01zm-6.645-65.383c0.364 0.131 0.729 0.264 1.095 0.396 0.854-2.031 1.747-4.047 2.555-6.1 15.618-39.64 31.148-79.318 46.875-118.92 6.479-16.313 14.926-21.81 32.3-21.81 83.979-3e-3 167.96-2e-3 251.94-2e-3h10.805v-40.973h-10.078c-46.557-2e-3 -93.115-0.034-139.67 0.021-11.397 0.012-20.575-3.867-26.961-13.746-5.112-7.909-10.877-15.405-15.814-23.417-3.092-5.017-6.593-7.072-12.74-7.03-43.903 0.301-87.809 0.153-131.72 0.178-2.828 2e-3 -5.656 0.255-8.587 0.396-1e-3 77.54-1e-3 154.27-1e-3 231z" clip-rule="evenodd" fill="#D81F37" fill-rule="evenodd"/>
	</g>
	<g clip-rule="evenodd" display="inline" fill-rule="evenodd">
		<circle cx="170.28" cy="437.07" r="119.9" fill="#214195"/>
		<path d="m161.3 408.49v-2.633c0-6.951-0.022-13.904 7e-3 -20.855 0.024-5.605 3.615-7.631 8.55-4.84 30.676 17.361 61.348 34.723 92.021 52.088 5.117 2.896 5.081 6.814-0.086 9.734-30.608 17.326-61.213 34.662-91.851 51.939-1.295 0.732-2.917 1.352-4.359 1.297-2.751-0.109-4.253-2.305-4.27-5.703-0.036-6.951-0.012-13.904-0.012-20.857v-2.979h-2.738-76.855c-5.435-4e-3 -6.836-1.391-6.837-6.789-4e-3 -14.561-0.014-29.125 0.018-43.688 3e-3 -1.299 5e-3 -2.707 0.487-3.875 1.016-2.457 3.254-2.863 5.744-2.859 25.768 0.031 51.535 0.02 77.301 0.02h2.88z" fill="#fff"/>
	</g>
</g>
</svg>
