<?xml version="1.0" encoding="utf-8"?>
<!-- Generator: Adobe Illustrator 16.0.0, SVG Export Plug-In . SVG Version: 6.00 Build 0)  -->
<!DOCTYPE svg PUBLIC "-//W3C//DTD SVG 1.1//EN" "http://www.w3.org/Graphics/SVG/1.1/DTD/svg11.dtd">
<svg version="1.1" xmlns="http://www.w3.org/2000/svg" xmlns:xlink="http://www.w3.org/1999/xlink" x="0px" y="0px" width="640px"
	 height="640px" viewBox="0 0 640 640" enable-background="new 0 0 640 640" xml:space="preserve">
<g id="Layer_2" display="none">
</g>
<g id="LOGIN" display="none">
	<g display="inline">
		<path fill-rule="evenodd" clip-rule="evenodd" fill="#D81F37" d="M280.492,540.06c-5.53-2.783-6.989-7.49-6.814-13.197
			c0.195-6.302,0.044-12.604,0.044-18.906c0.005-11.084,3.04-14.095,14.194-14.101c61.399,0,122.801-0.059,184.202,0.052
			c10.137,0.023,18.127-3.309,22.44-12.534c1.64-3.5,2.395-7.718,2.399-11.607c0.128-99.842,0.067-199.689,0.138-299.53
			c0.008-15.313-10.921-24.3-24.982-24.229c-61.102,0.326-122.211,0.14-183.321,0.14c-1.313,0-2.633,0.047-3.946-0.018
			c-7.126-0.332-10.868-3.728-11.057-10.647c-0.23-8.299-0.036-16.61-0.067-24.922c-0.018-4.951,2.548-8.282,6.771-10.618
			c67.548,0,135.096,0,202.647,0c1.939,0.478,3.871,0.979,5.813,1.422c33.507,7.711,54.968,33.856,55.033,68.267
			c0.187,100.244,0.193,200.499-0.011,300.741c-0.058,29.542-14.055,51.104-41.394,63.772c-6.076,2.813-12.942,3.983-19.442,5.917
			C415.588,540.06,348.04,540.06,280.492,540.06z"/>
		<path fill-rule="evenodd" clip-rule="evenodd" fill="#214195" d="M265.069,264.013c0-2.072,0-3.61,0-5.154
			c0-13.605-0.043-27.217,0.015-40.822c0.047-10.974,7.077-14.939,16.736-9.477c60.048,33.985,120.089,67.971,180.13,101.962
			c10.015,5.672,9.944,13.338-0.169,19.057c-59.916,33.916-119.825,67.848-179.798,101.67c-2.534,1.434-5.711,2.646-8.533,2.54
			c-5.387-0.216-8.326-4.514-8.358-11.165c-0.07-13.605-0.023-27.217-0.023-40.829c0-1.707,0-3.407,0-5.83c-2.007,0-3.684,0-5.358,0
			c-50.148,0-100.295,0-150.443,0c-10.639-0.006-13.382-2.721-13.384-13.286c-0.009-28.504-0.026-57.015,0.035-85.519
			c0.006-2.545,0.009-5.3,0.952-7.589c1.989-4.806,6.372-5.604,11.244-5.598c50.439,0.063,100.878,0.04,151.317,0.04
			C261.149,264.013,262.861,264.013,265.069,264.013z"/>
	</g>
</g>
<g id="LOGOUT" display="none">
	<g display="inline">
		<path fill-rule="evenodd" clip-rule="evenodd" fill="#204395" d="M359.508,540.06c5.531-2.783,6.99-7.49,6.814-13.197
			c-0.195-6.302-0.043-12.604-0.043-18.906c-0.006-11.084-3.041-14.095-14.194-14.101c-61.399,0-122.801-0.059-184.202,0.052
			c-10.137,0.023-18.127-3.309-22.44-12.534c-1.64-3.5-2.395-7.718-2.399-11.607c-0.128-99.842-0.067-199.689-0.138-299.53
			c-0.008-15.313,10.921-24.3,24.982-24.229c61.102,0.326,122.211,0.14,183.321,0.14c1.313,0,2.633,0.047,3.945-0.018
			c7.127-0.332,10.868-3.728,11.057-10.647c0.23-8.299,0.036-16.61,0.068-24.922c0.018-4.951-2.549-8.282-6.771-10.618
			c-67.548,0-135.096,0-202.646,0c-1.939,0.478-3.871,0.979-5.813,1.422c-33.507,7.711-54.968,33.856-55.033,68.267
			c-0.187,100.244-0.193,200.499,0.011,300.741c0.058,29.542,14.055,51.104,41.394,63.772c6.076,2.813,12.942,3.983,19.442,5.917
			C224.412,540.06,291.96,540.06,359.508,540.06z"/>
		<path fill-rule="evenodd" clip-rule="evenodd" fill="#D81F37" d="M374.932,264.013c0-2.072,0-3.61,0-5.154
			c0-13.605,0.043-27.217-0.016-40.822c-0.047-10.974-7.076-14.939-16.736-9.477c-60.048,33.985-120.089,67.971-180.13,101.962
			c-10.015,5.672-9.944,13.338,0.169,19.057c59.916,33.916,119.825,67.848,179.799,101.67c2.533,1.434,5.711,2.646,8.533,2.54
			c5.387-0.216,8.325-4.514,8.357-11.165c0.07-13.605,0.023-27.217,0.023-40.829c0-1.707,0-3.407,0-5.83c2.006,0,3.684,0,5.357,0
			c50.148,0,100.296,0,150.443,0c10.639-0.006,13.383-2.721,13.385-13.286c0.01-28.504,0.026-57.015-0.035-85.519
			c-0.006-2.545-0.009-5.3-0.951-7.589c-1.99-4.806-6.372-5.604-11.244-5.598c-50.439,0.063-100.879,0.04-151.317,0.04
			C378.852,264.013,377.139,264.013,374.932,264.013z"/>
	</g>
</g>
<g id="SCHEME-MAN" display="none">
	<g display="inline">
		<g>
			<path fill-rule="evenodd" clip-rule="evenodd" fill="#D81F37" d="M197.519,88.842c0-9.693-0.014-18.661,0.004-27.629
				c0.016-7.775,2.797-10.644,10.385-10.646c58.329-0.02,116.658-0.029,174.988-0.029c7.812,0,10.697,3.006,10.684,10.947
				c-0.017,8.953-0.004,17.906-0.004,27.359c2.827,0,5.117,0,7.408,0c22.331,0,44.664-0.081,66.995,0.025
				c17.86,0.085,28.245,10.596,28.246,28.361c0.008,126.49,0.016,252.981-0.045,379.473c-0.002,4.465-0.129,9.085-1.237,13.364
				c-2.889,11.16-12.936,18.359-25.018,18.366c-69.494,0.037-138.988,0.026-208.483,0.031c-45.164,0.004-90.328,0.042-135.491-0.044
				c-4.456-0.009-9.098-0.112-13.328-1.315c-11.169-3.178-17.702-13.199-17.729-26.598c-0.071-34.83-0.019-69.662-0.019-104.493
				c0-91.66-0.018-183.322,0.05-274.982c0.003-4.629,0.105-9.429,1.282-13.852c3.067-11.528,13.077-18.27,26.633-18.331
				c21.665-0.098,43.33-0.015,64.996-0.009C190.824,88.843,193.811,88.842,197.519,88.842z M197.498,106.53
				c-1.588-0.16-2.708-0.37-3.827-0.371c-23.994-0.017-47.987-0.047-71.981,0.015c-6.75,0.017-9.469,2.93-9.485,9.948
				c-0.036,15.496,0.01,30.992,0.011,46.487c0.005,112.305,0.001,224.608,0.021,336.912c0.001,9.729,2.219,11.912,12.155,11.917
				c67.648,0.031,135.297,0.03,202.945,0.035c46.821,0.004,93.642-0.012,140.463,0.021c4.2,0.003,8.348-0.409,10.091-4.769
				c0.999-2.499,0.94-5.519,0.943-8.304c0.045-55.652,0.028-111.305,0.027-166.957c-0.002-71.314,0.011-142.628-0.018-213.942
				c-0.004-9.308-2.173-11.334-11.553-11.339c-22.494-0.012-44.988-0.028-67.481-0.043c-1.936-0.001-3.871,0-6.251,0
				c0,9.618,0.007,18.58-0.002,27.543c-0.008,7.968-2.793,10.757-10.806,10.759c-58.152,0.017-116.304,0.027-174.456,0.027
				c-7.854,0-10.809-3.012-10.8-10.853C197.505,124.662,197.498,115.706,197.498,106.53z M376.341,67.852
				c-54.114,0-107.813,0-161.419,0c0,20.037,0,39.734,0,59.365c54.009,0,107.584,0,161.419,0
				C376.341,107.377,376.341,87.795,376.341,67.852z"/>
			<path fill-rule="evenodd" clip-rule="evenodd" fill="none" d="M197.498,106.53c0,9.176,0.007,18.132-0.002,27.088
				c-0.008,7.841,2.946,10.853,10.8,10.853c58.152,0,116.304-0.011,174.456-0.027c8.013-0.002,10.798-2.791,10.806-10.759
				c0.009-8.963,0.002-17.925,0.002-27.543c2.38,0,4.315-0.001,6.251,0c22.493,0.015,44.987,0.031,67.481,0.043
				c9.38,0.005,11.549,2.031,11.553,11.339c0.028,71.314,0.016,142.628,0.018,213.942c0.001,55.652,0.018,111.305-0.027,166.957
				c-0.003,2.785,0.056,5.805-0.943,8.304c-1.743,4.359-5.891,4.771-10.091,4.769c-46.821-0.033-93.642-0.018-140.463-0.021
				c-67.648-0.005-135.297-0.004-202.945-0.035c-9.936-0.005-12.153-2.188-12.155-11.917c-0.02-112.304-0.017-224.607-0.021-336.912
				c-0.001-15.495-0.047-30.991-0.011-46.487c0.016-7.019,2.735-9.932,9.485-9.948c23.994-0.062,47.987-0.031,71.981-0.015
				C194.791,106.16,195.91,106.37,197.498,106.53z M340.402,204.223c-10.152,0-20.307-0.005-30.459,0.001
				c-12.817,0.007-25.634-0.054-38.45,0.063c-6.789,0.063-10.902,5.341-8.773,11.207c1.741,4.797,5.717,5.934,10.432,5.923
				c25.966-0.06,51.933-0.021,77.9-0.021c19.142-0.001,38.284,0.023,57.426-0.035c7.071-0.021,11.63-5.335,9.637-11.136
				c-1.683-4.899-5.548-6.051-10.301-6.034C385.344,204.271,362.873,204.226,340.402,204.223z M340.609,419.318
				c0-0.014,0-0.027,0-0.04c-8.154,0-16.309-0.002-24.463,0c-14.811,0.004-29.622-0.069-44.432,0.052
				c-6.4,0.052-10.008,3.933-9.372,9.563c0.53,4.692,4.115,7.462,10.109,7.474c27.958,0.053,55.917,0.044,83.875,0.046
				c17.307,0.001,34.614,0.015,51.922-0.048c6.939-0.025,11.408-4.759,10.08-10.464c-1.003-4.307-4.237-6.559-9.823-6.567
				C385.875,419.298,363.242,419.318,340.609,419.318z M340.553,275.724c-22.332,0-44.664-0.019-66.996,0.034
				c-1.966,0.005-4.051,0.151-5.872,0.81c-3.91,1.415-5.671,4.501-5.328,8.618c0.348,4.175,2.742,6.691,6.838,7.432
				c1.624,0.293,3.316,0.288,4.977,0.289c35.664,0.031,71.328,0.053,106.991,0.053c9.665,0,19.335,0.086,28.993-0.184
				c5.012-0.141,8.235-3.67,8.328-8.218c0.091-4.472-3.138-8.08-7.942-8.723c-1.476-0.197-2.994-0.104-4.493-0.104
				C384.217,275.726,362.385,275.728,340.553,275.724z M340.422,364.503c0,0.01,0,0.02,0,0.029c22.803,0,45.606,0.028,68.409-0.019
				c6.554-0.013,10.873-4.846,9.509-10.397c-1.052-4.276-4.593-6.577-10.422-6.578c-45.106-0.009-90.214,0.001-135.321,0.021
				c-6.729,0.003-10.434,3.169-10.313,8.694c0.116,5.283,3.757,8.242,10.227,8.245C295.148,364.509,317.785,364.503,340.422,364.503
				z M188.274,282.792c-2.362-2.823-4.088-5.312-6.235-7.358c-3.798-3.621-8.55-3.492-11.996-0.002
				c-3.226,3.268-3.492,8.15-0.207,11.671c4.308,4.617,8.782,9.097,13.426,13.374c3.363,3.098,8.018,3.165,11.298-0.034
				c10.833-10.567,21.547-21.26,32.112-32.095c3.368-3.453,2.975-8.456-0.234-11.681c-3.205-3.22-8.024-3.391-11.717-0.34
				c-1.15,0.95-2.163,2.067-3.219,3.128C204.115,266.871,196.732,274.293,188.274,282.792z M188.235,354.546
				c-1.945-2.45-3.491-4.884-5.504-6.832c-4.259-4.121-9.24-4.194-12.784-0.509c-3.384,3.519-3.227,8.324,0.659,12.454
				c3.648,3.878,7.443,7.622,11.271,11.323c4.861,4.698,9.089,4.732,13.879-0.002c9.943-9.829,19.822-19.724,29.657-29.662
				c1.248-1.26,2.494-2.809,3.005-4.453c1.197-3.851,0.216-7.338-3.283-9.615c-4.104-2.673-7.923-1.775-11.262,1.564
				C205.641,337.047,197.437,345.307,188.235,354.546z M188.485,211.268c-2.277-2.742-3.996-5.239-6.138-7.297
				c-3.81-3.659-9.208-3.577-12.485-0.115c-3.23,3.413-3.15,8.229,0.466,12.062c3.766,3.992,7.705,7.824,11.625,11.669
				c4.693,4.604,9.179,4.658,13.872,0.015c9.935-9.831,19.804-19.729,29.646-29.652c1.146-1.154,2.362-2.509,2.844-3.998
				c1.296-4.001,0.557-7.71-3.222-10.064c-3.853-2.399-7.65-1.936-10.887,1.322C205.895,193.571,197.637,201.987,188.485,211.268z"
				/>
			<path fill-rule="evenodd" clip-rule="evenodd" fill="#0B8442" d="M340.402,204.224c22.471,0.002,44.941,0.047,67.411-0.034
				c4.753-0.017,8.618,1.135,10.301,6.034c1.993,5.801-2.565,11.114-9.637,11.136c-19.142,0.059-38.284,0.034-57.426,0.035
				c-25.967,0.001-51.934-0.038-77.9,0.021c-4.715,0.011-8.69-1.126-10.432-5.923c-2.129-5.866,1.984-11.145,8.773-11.207
				c12.816-0.116,25.633-0.056,38.45-0.063C320.096,204.218,330.25,204.223,340.402,204.224z"/>
			<path fill-rule="evenodd" clip-rule="evenodd" fill="#0B8442" d="M340.609,419.318c22.633,0,45.266-0.021,67.897,0.015
				c5.586,0.009,8.82,2.261,9.823,6.567c1.328,5.705-3.141,10.438-10.08,10.464c-17.308,0.063-34.615,0.049-51.922,0.048
				c-27.959-0.002-55.917,0.007-83.875-0.046c-5.994-0.012-9.579-2.781-10.109-7.474c-0.637-5.63,2.972-9.511,9.372-9.563
				c14.81-0.121,29.621-0.048,44.432-0.052c8.154-0.002,16.309,0,24.463,0C340.609,419.291,340.609,419.305,340.609,419.318z"/>
			<path fill-rule="evenodd" clip-rule="evenodd" fill="#0B8442" d="M340.553,275.726c21.832,0.002,43.664,0,65.496,0.005
				c1.499,0,3.018-0.093,4.493,0.104c4.805,0.643,8.033,4.251,7.942,8.723c-0.093,4.548-3.316,8.077-8.328,8.218
				c-9.658,0.27-19.328,0.184-28.993,0.184c-35.663,0-71.327-0.021-106.991-0.053c-1.661-0.001-3.353,0.004-4.977-0.289
				c-4.096-0.74-6.49-3.257-6.838-7.432c-0.343-4.117,1.418-7.203,5.328-8.618c1.821-0.658,3.906-0.805,5.872-0.81
				C295.889,275.705,318.221,275.724,340.553,275.726z"/>
			<path fill-rule="evenodd" clip-rule="evenodd" fill="#0B8442" d="M340.422,364.503c-22.637,0-45.273,0.006-67.911-0.004
				c-6.47-0.003-10.11-2.962-10.227-8.245c-0.121-5.525,3.583-8.691,10.313-8.694c45.107-0.021,90.214-0.03,135.321-0.021
				c5.829,0.001,9.37,2.302,10.422,6.578c1.364,5.552-2.955,10.385-9.509,10.397c-22.803,0.047-45.606,0.019-68.409,0.019
				C340.422,364.522,340.422,364.513,340.422,364.503z"/>
			<path fill-rule="evenodd" clip-rule="evenodd" fill="#0B8442" d="M188.274,282.792c8.458-8.499,15.841-15.921,23.229-23.337
				c1.056-1.061,2.069-2.178,3.219-3.128c3.693-3.051,8.513-2.88,11.717,0.34c3.209,3.225,3.602,8.228,0.234,11.681
				c-10.565,10.835-21.279,21.527-32.112,32.095c-3.28,3.199-7.935,3.132-11.298,0.034c-4.644-4.277-9.119-8.757-13.426-13.374
				c-3.285-3.521-3.019-8.403,0.207-11.671c3.446-3.49,8.197-3.619,11.996,0.002C184.186,277.48,185.912,279.969,188.274,282.792z"
				/>
			<path fill-rule="evenodd" clip-rule="evenodd" fill="#0B8442" d="M188.235,354.546c9.202-9.239,17.406-17.499,25.639-25.731
				c3.338-3.34,7.157-4.237,11.262-1.564c3.499,2.277,4.48,5.765,3.283,9.615c-0.511,1.645-1.758,3.193-3.005,4.453
				c-9.834,9.938-19.713,19.833-29.657,29.662c-4.79,4.734-9.018,4.7-13.879,0.002c-3.829-3.701-7.624-7.445-11.271-11.323
				c-3.886-4.13-4.043-8.936-0.659-12.454c3.544-3.686,8.525-3.612,12.784,0.509C184.744,349.662,186.29,352.096,188.235,354.546z"
				/>
			<path fill-rule="evenodd" clip-rule="evenodd" fill="#0B8442" d="M188.485,211.268c9.152-9.28,17.41-17.696,25.721-26.06
				c3.237-3.258,7.034-3.722,10.887-1.322c3.779,2.354,4.519,6.063,3.222,10.064c-0.482,1.489-1.699,2.844-2.844,3.998
				c-9.843,9.924-19.711,19.821-29.646,29.652c-4.692,4.644-9.178,4.589-13.872-0.015c-3.92-3.845-7.858-7.677-11.625-11.669
				c-3.616-3.832-3.696-8.648-0.466-12.062c3.277-3.462,8.675-3.544,12.485,0.115C184.489,206.028,186.208,208.525,188.485,211.268z
				"/>
		</g>
		<g>
			<path fill-rule="evenodd" clip-rule="evenodd" fill="#214195" d="M438.308,589.462c-2.034-0.612-4.114-1.107-6.096-1.858
				c-5.413-2.054-9.849-5.441-13.155-10.209c-18.51-26.69-37.086-53.335-55.455-80.121c-8.817-12.856-1.447-31.109,13.532-34.03
				c5.195-1.014,9.842,0.504,13.865,3.872c8.65,7.239,17.239,14.55,25.945,21.72c1.088,0.896,2.755,1.568,4.127,1.524
				c1.96-0.063,2.984-1.95,2.987-4.511c0.006-13.063,0-26.125,0-39.187c0.001-20.188-0.031-40.374,0.017-60.561
				c0.033-13.934,11.278-24.769,25.507-24.699c13.371,0.064,24.368,11.329,24.365,24.96c-0.003,19.149-0.008,38.296-0.011,57.444
				c0,3.499,0.755,4.518,4.123,5.191c15.966,3.198,31.924,6.444,47.915,9.51c11.398,2.185,19.519,11.462,19.156,23.02
				c-0.319,10.149-1.263,20.277-1.955,30.413c-0.652,9.545-1.319,19.088-2.015,28.631c-0.815,11.167-1.395,22.359-2.6,33.486
				c-0.853,7.859-5.78,12.734-13.342,14.939c-0.331,0.096-0.628,0.307-0.939,0.465C495.622,589.462,466.965,589.462,438.308,589.462
				z"/>
		</g>
	</g>
</g>
<g id="IMPORT-FILES" display="none">
	<g display="inline">
		<g>
			<path fill-rule="evenodd" clip-rule="evenodd" fill="#D81F37" d="M225.539,88.842c0-9.693-0.014-18.661,0.004-27.629
				c0.016-7.775,2.797-10.644,10.385-10.646c58.329-0.02,116.658-0.029,174.988-0.029c7.812,0,10.697,3.006,10.684,10.947
				c-0.017,8.953-0.004,17.906-0.004,27.359c2.827,0,5.117,0,7.408,0c22.331,0,44.664-0.081,66.995,0.025
				c17.86,0.085,28.245,10.596,28.246,28.361c0.008,126.49,0.016,252.981-0.045,379.473c-0.002,4.465-0.129,9.085-1.237,13.364
				c-2.889,11.16-12.936,18.359-25.018,18.366c-69.494,0.037-138.988,0.026-208.483,0.031c-45.164,0.004-90.328,0.042-135.491-0.044
				c-4.456-0.009-9.098-0.112-13.328-1.315c-11.169-3.178-17.702-13.199-17.729-26.598c-0.071-34.83-0.019-69.662-0.019-104.493
				c0-91.66-0.018-183.322,0.05-274.982c0.003-4.629,0.105-9.429,1.282-13.852c3.067-11.528,13.077-18.27,26.633-18.331
				c21.665-0.098,43.33-0.015,64.996-0.009C218.844,88.843,221.831,88.842,225.539,88.842z M225.518,106.53
				c-1.588-0.16-2.708-0.37-3.827-0.371c-23.994-0.017-47.987-0.047-71.981,0.015c-6.75,0.017-9.469,2.93-9.485,9.948
				c-0.036,15.496,0.01,30.992,0.011,46.487c0.005,112.305,0.001,224.608,0.021,336.912c0.001,9.729,2.219,11.912,12.155,11.917
				c67.648,0.031,135.297,0.03,202.945,0.035c46.821,0.004,93.642-0.012,140.463,0.021c4.2,0.003,8.348-0.409,10.091-4.769
				c0.999-2.499,0.94-5.519,0.943-8.304c0.045-55.652,0.028-111.305,0.027-166.957c-0.002-71.314,0.011-142.628-0.018-213.942
				c-0.004-9.308-2.173-11.334-11.553-11.339c-22.494-0.012-44.988-0.028-67.481-0.043c-1.936-0.001-3.871,0-6.251,0
				c0,9.618,0.007,18.58-0.002,27.543c-0.008,7.968-2.793,10.757-10.806,10.759c-58.152,0.017-116.304,0.027-174.456,0.027
				c-7.854,0-10.809-3.012-10.8-10.853C225.525,124.662,225.518,115.706,225.518,106.53z M404.36,67.852
				c-54.114,0-107.813,0-161.419,0c0,20.037,0,39.734,0,59.365c54.009,0,107.584,0,161.419,0
				C404.36,107.377,404.36,87.795,404.36,67.852z"/>
			<path fill-rule="evenodd" clip-rule="evenodd" fill="#0C8543" d="M368.422,204.224c22.471,0.002,44.941,0.047,67.411-0.034
				c4.753-0.017,8.618,1.135,10.301,6.034c1.993,5.801-2.565,11.114-9.637,11.136c-19.142,0.059-38.284,0.034-57.426,0.035
				c-25.967,0.001-51.934-0.038-77.9,0.021c-4.715,0.011-8.69-1.126-10.432-5.923c-2.129-5.866,1.984-11.145,8.773-11.207
				c12.816-0.116,25.633-0.056,38.45-0.063C348.115,204.218,358.27,204.223,368.422,204.224z"/>
			<path fill-rule="evenodd" clip-rule="evenodd" fill="#0C8543" d="M368.629,419.318c22.633,0,45.266-0.021,67.897,0.015
				c5.586,0.009,8.82,2.261,9.823,6.567c1.328,5.705-3.141,10.438-10.08,10.464c-17.308,0.063-34.615,0.049-51.922,0.048
				c-27.959-0.002-55.917,0.007-83.875-0.046c-5.994-0.012-9.579-2.781-10.109-7.474c-0.637-5.63,2.972-9.511,9.372-9.563
				c14.81-0.121,29.621-0.048,44.432-0.052c8.154-0.002,16.309,0,24.463,0C368.629,419.291,368.629,419.305,368.629,419.318z"/>
			<path fill-rule="evenodd" clip-rule="evenodd" fill="#0C8543" d="M368.572,275.726c21.832,0.002,43.664,0,65.496,0.005
				c1.499,0,3.018-0.093,4.493,0.104c4.805,0.643,8.033,4.251,7.942,8.723c-0.093,4.548-3.316,8.077-8.328,8.218
				c-9.658,0.27-19.328,0.184-28.993,0.184c-35.663,0-71.327-0.021-106.991-0.053c-1.661-0.001-3.353,0.004-4.977-0.289
				c-4.096-0.74-6.49-3.257-6.838-7.432c-0.343-4.117,1.418-7.203,5.328-8.618c1.821-0.658,3.906-0.805,5.872-0.81
				C323.908,275.705,346.24,275.724,368.572,275.726z"/>
			<path fill-rule="evenodd" clip-rule="evenodd" fill="#0C8543" d="M368.441,364.503c-22.637,0-45.273,0.006-67.911-0.004
				c-6.47-0.003-10.11-2.962-10.227-8.245c-0.121-5.525,3.583-8.691,10.313-8.694c45.107-0.021,90.214-0.03,135.321-0.021
				c5.829,0.001,9.37,2.302,10.422,6.578c1.364,5.552-2.955,10.385-9.509,10.397c-22.803,0.047-45.606,0.019-68.409,0.019
				C368.441,364.522,368.441,364.513,368.441,364.503z"/>
			<path fill-rule="evenodd" clip-rule="evenodd" fill="#0C8543" d="M216.293,282.792c8.458-8.499,15.841-15.921,23.229-23.337
				c1.056-1.061,2.069-2.178,3.219-3.128c3.693-3.051,8.513-2.88,11.717,0.34c3.209,3.225,3.602,8.228,0.234,11.681
				c-10.565,10.835-21.279,21.527-32.112,32.095c-3.28,3.199-7.935,3.132-11.298,0.034c-4.644-4.277-9.119-8.757-13.426-13.374
				c-3.285-3.521-3.019-8.403,0.207-11.671c3.446-3.49,8.197-3.619,11.996,0.002C212.205,277.48,213.931,279.969,216.293,282.792z"
				/>
			<path fill-rule="evenodd" clip-rule="evenodd" fill="#0C8543" d="M216.254,354.546c9.202-9.239,17.406-17.499,25.639-25.731
				c3.338-3.34,7.157-4.237,11.262-1.564c3.499,2.277,4.48,5.765,3.283,9.615c-0.511,1.645-1.758,3.193-3.005,4.453
				c-9.834,9.938-19.713,19.833-29.657,29.662c-4.79,4.734-9.018,4.7-13.879,0.002c-3.829-3.701-7.624-7.445-11.271-11.323
				c-3.886-4.13-4.043-8.936-0.659-12.454c3.544-3.686,8.525-3.612,12.784,0.509C212.764,349.662,214.309,352.096,216.254,354.546z"
				/>
			<path fill-rule="evenodd" clip-rule="evenodd" fill="#0C8543" d="M216.504,211.268c9.152-9.28,17.41-17.696,25.721-26.06
				c3.237-3.258,7.034-3.722,10.887-1.322c3.779,2.354,4.519,6.063,3.222,10.064c-0.482,1.489-1.699,2.844-2.844,3.998
				c-9.843,9.924-19.711,19.821-29.646,29.652c-4.692,4.644-9.178,4.589-13.872-0.015c-3.92-3.845-7.858-7.677-11.625-11.669
				c-3.616-3.832-3.696-8.648-0.466-12.062c3.277-3.462,8.675-3.544,12.485,0.115C212.509,206.028,214.228,208.525,216.504,211.268z
				"/>
		</g>
		<g display="none">
			<path display="inline" fill-rule="evenodd" clip-rule="evenodd" d="M466.327,589.462c-2.034-0.612-4.114-1.107-6.096-1.858
				c-5.413-2.054-9.849-5.441-13.155-10.209c-18.51-26.69-37.086-53.335-55.455-80.121c-8.817-12.856-1.447-31.109,13.532-34.03
				c5.195-1.014,9.842,0.504,13.865,3.872c8.65,7.239,17.239,14.55,25.945,21.72c1.088,0.896,2.755,1.568,4.127,1.524
				c1.96-0.063,2.984-1.95,2.987-4.511c0.006-13.063,0-26.125,0-39.187c0.001-20.188-0.031-40.374,0.017-60.561
				c0.033-13.934,11.278-24.769,25.507-24.699c13.371,0.064,24.368,11.329,24.365,24.96c-0.003,19.149-0.008,38.296-0.011,57.444
				c0,3.499,0.755,4.518,4.123,5.191c15.966,3.198,31.924,6.444,47.915,9.51c11.398,2.185,19.519,11.462,19.156,23.02
				c-0.319,10.149-1.263,20.277-1.955,30.413c-0.652,9.545-1.319,19.088-2.015,28.631c-0.815,11.167-1.395,22.359-2.6,33.486
				c-0.853,7.859-5.78,12.734-13.342,14.939c-0.331,0.096-0.628,0.307-0.939,0.465C523.642,589.462,494.984,589.462,466.327,589.462
				z"/>
		</g>
		<path fill-rule="evenodd" clip-rule="evenodd" fill="#214195" d="M174.507,427.151c0-1.319,0-2.298,0-3.28
			c0-8.658-0.028-17.319,0.009-25.978c0.03-6.983,4.503-9.507,10.65-6.03c38.212,21.626,76.419,43.254,114.626,64.884
			c6.374,3.609,6.329,8.488-0.107,12.127c-38.127,21.583-76.251,43.176-114.416,64.698c-1.613,0.912-3.634,1.684-5.43,1.616
			c-3.428-0.137-5.298-2.872-5.318-7.104c-0.044-8.658-0.015-17.319-0.015-25.982c0-1.086,0-2.168,0-3.71c-1.277,0-2.344,0-3.41,0
			c-31.912,0-63.823,0-95.735,0c-6.77-0.003-8.516-1.73-8.517-8.455c-0.006-18.139-0.017-36.281,0.022-54.42
			c0.004-1.619,0.006-3.372,0.606-4.828c1.266-3.06,4.054-3.566,7.155-3.563c32.098,0.04,64.195,0.025,96.292,0.025
			C172.012,427.151,173.102,427.151,174.507,427.151z"/>
	</g>
</g>
<g id="BACK_ACTION" display="none">
	<g display="inline">
		<g>
			<path fill-rule="evenodd" clip-rule="evenodd" fill="#0C8543" d="M225.539,88.842c0-9.693-0.014-18.661,0.004-27.629
				c0.016-7.775,2.797-10.644,10.385-10.646c58.329-0.02,116.658-0.029,174.988-0.029c7.812,0,10.697,3.006,10.684,10.947
				c-0.017,8.953-0.004,17.906-0.004,27.359c2.827,0,5.117,0,7.408,0c22.331,0,44.664-0.081,66.995,0.025
				c17.86,0.085,28.245,10.596,28.246,28.361c0.008,126.49,0.016,252.981-0.045,379.473c-0.002,4.465-0.129,9.085-1.237,13.364
				c-2.889,11.16-12.936,18.359-25.018,18.366c-69.494,0.037-138.988,0.026-208.483,0.031c-45.164,0.004-90.328,0.042-135.491-0.044
				c-4.456-0.009-9.098-0.112-13.328-1.315c-11.169-3.178-17.702-13.199-17.729-26.598c-0.071-34.83-0.019-69.662-0.019-104.493
				c0-91.66-0.018-183.322,0.05-274.982c0.003-4.629,0.105-9.429,1.282-13.852c3.067-11.528,13.077-18.27,26.633-18.331
				c21.665-0.098,43.33-0.015,64.996-0.009C218.844,88.843,221.831,88.842,225.539,88.842z M225.518,106.53
				c-1.588-0.16-2.708-0.37-3.827-0.371c-23.994-0.017-47.987-0.047-71.981,0.015c-6.75,0.017-9.469,2.93-9.485,9.948
				c-0.036,15.496,0.01,30.992,0.011,46.487c0.005,112.305,0.001,224.608,0.021,336.912c0.001,9.729,2.219,11.912,12.155,11.917
				c67.648,0.031,135.297,0.03,202.945,0.035c46.821,0.004,93.642-0.012,140.463,0.021c4.2,0.003,8.348-0.409,10.091-4.769
				c0.999-2.499,0.94-5.519,0.943-8.304c0.045-55.652,0.028-111.305,0.027-166.957c-0.002-71.314,0.011-142.628-0.018-213.942
				c-0.004-9.308-2.173-11.334-11.553-11.339c-22.494-0.012-44.988-0.028-67.481-0.043c-1.936-0.001-3.871,0-6.251,0
				c0,9.618,0.007,18.58-0.002,27.543c-0.008,7.968-2.793,10.757-10.806,10.759c-58.152,0.017-116.304,0.027-174.456,0.027
				c-7.854,0-10.809-3.012-10.8-10.853C225.525,124.662,225.518,115.706,225.518,106.53z M404.36,67.852
				c-54.114,0-107.813,0-161.419,0c0,20.037,0,39.734,0,59.365c54.009,0,107.584,0,161.419,0
				C404.36,107.377,404.36,87.795,404.36,67.852z"/>
			<g>
				<path fill-rule="evenodd" clip-rule="evenodd" fill="#D81F37" d="M368.422,204.224c22.471,0.002,44.941,0.047,67.411-0.034
					c4.753-0.017,8.618,1.135,10.301,6.034c1.993,5.801-2.565,11.114-9.637,11.136c-19.142,0.059-38.284,0.034-57.426,0.035
					c-25.967,0.001-51.934-0.038-77.9,0.021c-4.715,0.011-8.69-1.126-10.432-5.923c-2.129-5.866,1.984-11.145,8.773-11.207
					c12.816-0.116,25.633-0.056,38.45-0.063C348.115,204.218,358.27,204.223,368.422,204.224z"/>
				<path fill-rule="evenodd" clip-rule="evenodd" fill="#D81F37" d="M368.629,419.318c22.633,0,45.266-0.021,67.897,0.015
					c5.586,0.009,8.82,2.261,9.823,6.567c1.328,5.705-3.141,10.438-10.08,10.464c-17.308,0.063-34.615,0.049-51.922,0.048
					c-27.959-0.002-55.917,0.007-83.875-0.046c-5.994-0.012-9.579-2.781-10.109-7.474c-0.637-5.63,2.972-9.511,9.372-9.563
					c14.81-0.121,29.621-0.048,44.432-0.052c8.154-0.002,16.309,0,24.463,0C368.629,419.291,368.629,419.305,368.629,419.318z"/>
				<path fill-rule="evenodd" clip-rule="evenodd" fill="#D81F37" d="M368.572,275.726c21.832,0.002,43.664,0,65.496,0.005
					c1.499,0,3.018-0.093,4.493,0.104c4.805,0.643,8.033,4.251,7.942,8.723c-0.093,4.548-3.316,8.077-8.328,8.218
					c-9.658,0.27-19.328,0.184-28.993,0.184c-35.663,0-71.327-0.021-106.991-0.053c-1.661-0.001-3.353,0.004-4.977-0.289
					c-4.096-0.74-6.49-3.257-6.838-7.432c-0.343-4.117,1.418-7.203,5.328-8.618c1.821-0.658,3.906-0.805,5.872-0.81
					C323.908,275.705,346.24,275.724,368.572,275.726z"/>
				<path fill-rule="evenodd" clip-rule="evenodd" fill="#D81F37" d="M368.441,364.503c-22.637,0-45.273,0.006-67.911-0.004
					c-6.47-0.003-10.11-2.962-10.227-8.245c-0.121-5.525,3.583-8.691,10.313-8.694c45.107-0.021,90.214-0.03,135.321-0.021
					c5.829,0.001,9.37,2.302,10.422,6.578c1.364,5.552-2.955,10.385-9.509,10.397c-22.803,0.047-45.606,0.019-68.409,0.019
					C368.441,364.522,368.441,364.513,368.441,364.503z"/>
				<path fill-rule="evenodd" clip-rule="evenodd" fill="#D81F37" d="M216.293,282.792c8.458-8.499,15.841-15.921,23.229-23.337
					c1.056-1.061,2.069-2.178,3.219-3.128c3.693-3.051,8.513-2.88,11.717,0.34c3.209,3.225,3.602,8.228,0.234,11.681
					c-10.565,10.835-21.279,21.527-32.112,32.095c-3.28,3.199-7.935,3.132-11.298,0.034c-4.644-4.277-9.119-8.757-13.426-13.374
					c-3.285-3.521-3.019-8.403,0.207-11.671c3.446-3.49,8.197-3.619,11.996,0.002C212.205,277.48,213.931,279.969,216.293,282.792z"
					/>
				<path fill-rule="evenodd" clip-rule="evenodd" fill="#D81F37" d="M216.254,354.546c9.202-9.239,17.406-17.499,25.639-25.731
					c3.338-3.34,7.157-4.237,11.262-1.564c3.499,2.277,4.48,5.765,3.283,9.615c-0.511,1.645-1.758,3.193-3.005,4.453
					c-9.834,9.938-19.713,19.833-29.657,29.662c-4.79,4.734-9.018,4.7-13.879,0.002c-3.829-3.701-7.624-7.445-11.271-11.323
					c-3.886-4.13-4.043-8.936-0.659-12.454c3.544-3.686,8.525-3.612,12.784,0.509C212.764,349.662,214.309,352.096,216.254,354.546z
					"/>
				<path fill-rule="evenodd" clip-rule="evenodd" fill="#D81F37" d="M216.504,211.268c9.152-9.28,17.41-17.696,25.721-26.06
					c3.237-3.258,7.034-3.722,10.887-1.322c3.779,2.354,4.519,6.063,3.222,10.064c-0.482,1.489-1.699,2.844-2.844,3.998
					c-9.843,9.924-19.711,19.821-29.646,29.652c-4.692,4.644-9.178,4.589-13.872-0.015c-3.92-3.845-7.858-7.677-11.625-11.669
					c-3.616-3.832-3.696-8.648-0.466-12.062c3.277-3.462,8.675-3.544,12.485,0.115C212.509,206.028,214.228,208.525,216.504,211.268
					z"/>
			</g>
		</g>
		<g>
			<circle fill-rule="evenodd" clip-rule="evenodd" fill="#214195" cx="170.278" cy="506" r="119.898"/>
			<path fill-rule="evenodd" clip-rule="evenodd" fill="#FFFFFF" d="M179.256,477.42c0-1.06,0-1.845,0-2.634
				c0-6.95,0.022-13.903-0.007-20.854c-0.024-5.606-3.615-7.632-8.55-4.841c-30.676,17.361-61.348,34.724-92.021,52.088
				c-5.117,2.897-5.081,6.814,0.086,9.735c30.608,17.326,61.213,34.661,91.851,51.938c1.295,0.732,2.917,1.352,4.359,1.298
				c2.751-0.11,4.253-2.306,4.27-5.703c0.036-6.951,0.012-13.904,0.012-20.858c0-0.872,0-1.741,0-2.979c1.025,0,1.882,0,2.738,0
				c25.618,0,51.236,0,76.855,0c5.435-0.003,6.836-1.39,6.837-6.788c0.004-14.562,0.014-29.126-0.018-43.688
				c-0.003-1.3-0.005-2.707-0.487-3.876c-1.016-2.456-3.254-2.862-5.744-2.859c-25.768,0.032-51.535,0.021-77.301,0.021
				C181.259,477.42,180.384,477.42,179.256,477.42z"/>
		</g>
	</g>
</g>
<g id="NEW_ACTION" display="none">
	<g display="inline">
		<g>
			<path fill-rule="evenodd" clip-rule="evenodd" fill="#D81F37" d="M225.539,88.842c0-9.693-0.014-18.661,0.004-27.629
				c0.016-7.775,2.797-10.644,10.385-10.646c58.329-0.02,116.658-0.029,174.988-0.029c7.812,0,10.697,3.006,10.684,10.947
				c-0.017,8.953-0.004,17.906-0.004,27.359c2.827,0,5.117,0,7.408,0c22.331,0,44.664-0.081,66.995,0.025
				c17.86,0.085,28.245,10.596,28.246,28.361c0.008,126.49,0.016,252.981-0.045,379.473c-0.002,4.465-0.129,9.085-1.237,13.364
				c-2.889,11.16-12.936,18.359-25.018,18.366c-69.494,0.037-138.988,0.026-208.483,0.031c-45.164,0.004-90.328,0.042-135.491-0.044
				c-4.456-0.009-9.098-0.112-13.328-1.315c-11.169-3.178-17.702-13.199-17.729-26.598c-0.071-34.83-0.019-69.662-0.019-104.493
				c0-91.66-0.018-183.322,0.05-274.982c0.003-4.629,0.105-9.429,1.282-13.852c3.067-11.528,13.077-18.27,26.633-18.331
				c21.665-0.098,43.33-0.015,64.996-0.009C218.844,88.843,221.831,88.842,225.539,88.842z M225.518,106.53
				c-1.588-0.16-2.708-0.37-3.827-0.371c-23.994-0.017-47.987-0.047-71.981,0.015c-6.75,0.017-9.469,2.93-9.485,9.948
				c-0.036,15.496,0.01,30.992,0.011,46.487c0.005,112.305,0.001,224.608,0.021,336.912c0.001,9.729,2.219,11.912,12.155,11.917
				c67.648,0.031,135.297,0.03,202.945,0.035c46.821,0.004,93.642-0.012,140.463,0.021c4.2,0.003,8.348-0.409,10.091-4.769
				c0.999-2.499,0.94-5.519,0.943-8.304c0.045-55.652,0.028-111.305,0.027-166.957c-0.002-71.314,0.011-142.628-0.018-213.942
				c-0.004-9.308-2.173-11.334-11.553-11.339c-22.494-0.012-44.988-0.028-67.481-0.043c-1.936-0.001-3.871,0-6.251,0
				c0,9.618,0.007,18.58-0.002,27.543c-0.008,7.968-2.793,10.757-10.806,10.759c-58.152,0.017-116.304,0.027-174.456,0.027
				c-7.854,0-10.809-3.012-10.8-10.853C225.525,124.662,225.518,115.706,225.518,106.53z M404.36,67.852
				c-54.114,0-107.813,0-161.419,0c0,20.037,0,39.734,0,59.365c54.009,0,107.584,0,161.419,0
				C404.36,107.377,404.36,87.795,404.36,67.852z"/>
			<g>
				<path fill-rule="evenodd" clip-rule="evenodd" fill="#0C8543" d="M368.422,204.224c22.471,0.002,44.941,0.047,67.411-0.034
					c4.753-0.017,8.618,1.135,10.301,6.034c1.993,5.801-2.565,11.114-9.637,11.136c-19.142,0.059-38.284,0.034-57.426,0.035
					c-25.967,0.001-51.934-0.038-77.9,0.021c-4.715,0.011-8.69-1.126-10.432-5.923c-2.129-5.866,1.984-11.145,8.773-11.207
					c12.816-0.116,25.633-0.056,38.45-0.063C348.115,204.218,358.27,204.223,368.422,204.224z"/>
				<path fill-rule="evenodd" clip-rule="evenodd" fill="#0C8543" d="M368.572,275.726c21.832,0.002,43.664,0,65.496,0.005
					c1.499,0,3.018-0.093,4.493,0.104c4.805,0.643,8.033,4.251,7.942,8.723c-0.093,4.548-3.316,8.077-8.328,8.218
					c-9.658,0.27-19.328,0.184-28.993,0.184c-35.663,0-71.327-0.021-106.991-0.053c-1.661-0.001-3.353,0.004-4.977-0.289
					c-4.096-0.74-6.49-3.257-6.838-7.432c-0.343-4.117,1.418-7.203,5.328-8.618c1.821-0.658,3.906-0.805,5.872-0.81
					C323.908,275.705,346.24,275.724,368.572,275.726z"/>
				<path fill-rule="evenodd" clip-rule="evenodd" fill="#0C8543" d="M368.441,364.503c-22.637,0-45.273,0.006-67.911-0.004
					c-6.47-0.003-10.11-2.962-10.227-8.245c-0.121-5.525,3.583-8.691,10.313-8.694c45.107-0.021,90.214-0.03,135.321-0.021
					c5.829,0.001,9.37,2.302,10.422,6.578c1.364,5.552-2.955,10.385-9.509,10.397c-22.803,0.047-45.606,0.019-68.409,0.019
					C368.441,364.522,368.441,364.513,368.441,364.503z"/>
				<path fill-rule="evenodd" clip-rule="evenodd" fill="#0C8543" d="M216.293,282.792c8.458-8.499,15.841-15.921,23.229-23.337
					c1.056-1.061,2.069-2.178,3.219-3.128c3.693-3.051,8.513-2.88,11.717,0.34c3.209,3.225,3.602,8.228,0.234,11.681
					c-10.565,10.835-21.279,21.527-32.112,32.095c-3.28,3.199-7.935,3.132-11.298,0.034c-4.644-4.277-9.119-8.757-13.426-13.374
					c-3.285-3.521-3.019-8.403,0.207-11.671c3.446-3.49,8.197-3.619,11.996,0.002C212.205,277.48,213.931,279.969,216.293,282.792z"
					/>
				<path fill-rule="evenodd" clip-rule="evenodd" fill="#0C8543" d="M216.254,354.546c9.202-9.239,17.406-17.499,25.639-25.731
					c3.338-3.34,7.157-4.237,11.262-1.564c3.499,2.277,4.48,5.765,3.283,9.615c-0.511,1.645-1.758,3.193-3.005,4.453
					c-9.834,9.938-19.713,19.833-29.657,29.662c-4.79,4.734-9.018,4.7-13.879,0.002c-3.829-3.701-7.624-7.445-11.271-11.323
					c-3.886-4.13-4.043-8.936-0.659-12.454c3.544-3.686,8.525-3.612,12.784,0.509C212.764,349.662,214.309,352.096,216.254,354.546z
					"/>
				<path fill-rule="evenodd" clip-rule="evenodd" fill="#0C8543" d="M216.504,211.268c9.152-9.28,17.41-17.696,25.721-26.06
					c3.237-3.258,7.034-3.722,10.887-1.322c3.779,2.354,4.519,6.063,3.222,10.064c-0.482,1.489-1.699,2.844-2.844,3.998
					c-9.843,9.924-19.711,19.821-29.646,29.652c-4.692,4.644-9.178,4.589-13.872-0.015c-3.92-3.845-7.858-7.677-11.625-11.669
					c-3.616-3.832-3.696-8.648-0.466-12.062c3.277-3.462,8.675-3.544,12.485,0.115C212.509,206.028,214.228,208.525,216.504,211.268
					z"/>
			</g>
		</g>
	</g>
	<circle display="inline" fill-rule="evenodd" clip-rule="evenodd" fill="#214195" cx="466.914" cy="506" r="119.898"/>
	<path display="inline" fill-rule="evenodd" clip-rule="evenodd" fill="#FFFFFF" d="M532.465,490.693h-50.244v-50.244
		c0-6.628-5.373-12-12-12h-6.613c-6.627,0-12,5.372-12,12v50.244h-50.244c-6.627,0-12,5.373-12,12v6.612c0,6.628,5.373,12,12,12
		h50.244v50.245c0,6.627,5.373,12,12,12h6.613c6.627,0,12-5.373,12-12v-50.245h50.244c6.627,0,12-5.372,12-12v-6.612
		C544.465,496.066,539.092,490.693,532.465,490.693z"/>
</g>
<g id="SAVE" display="none">
	<g display="inline">
		<path fill-rule="evenodd" clip-rule="evenodd" fill="none" stroke="#D81F37" stroke-width="18" stroke-miterlimit="10" d="
			M319.498,545.02c-58.331,0-116.662,0.006-174.992-0.002c-27.371-0.002-49.479-22.15-49.481-49.564
			c-0.009-116.83-0.015-233.661-0.015-350.491c0-27.798,21.999-49.902,49.659-49.903c98.331-0.004,196.663,0.022,294.993-0.088
			c3.995-0.004,6.738,1.145,9.551,3.976c30.773,30.977,61.727,61.776,92.465,92.79c1.829,1.845,3.171,5.096,3.176,7.695
			c0.158,98.997,0.15,197.994,0.123,296.992c-0.008,25.955-22.571,48.566-48.482,48.584
			C437.495,545.047,378.496,545.02,319.498,545.02z M145.346,145.242c0,33.451,0,66.502,0,99.416c83.404,0,166.449,0,249.406,0
			c0-33.333,0-66.265,0-99.416C311.555,145.242,228.629,145.242,145.346,145.242z M394.89,420.248
			c0.006-41.191-33.458-75.07-74.175-75.094c-41.649-0.025-75.57,33.26-75.595,74.176c-0.025,42.098,33.27,75.59,75.174,75.621
			C361.161,494.98,394.884,461.209,394.89,420.248z"/>
	</g>
	<g id="Layer_8" display="inline">
		<g>
			<path fill-rule="evenodd" clip-rule="evenodd" fill="#214195" d="M414.843,347.16c-1.376,0-2.398,0-3.425,0
				c-9.036,0-18.079,0.029-27.117-0.009c-7.29-0.032-9.925-4.702-6.296-11.119c22.577-39.888,45.154-79.774,67.733-119.658
				c3.767-6.654,8.86-6.605,12.658,0.111c22.53,39.802,45.071,79.599,67.537,119.437c0.954,1.686,1.76,3.795,1.69,5.671
				c-0.143,3.578-2.999,5.529-7.416,5.551c-9.04,0.047-18.083,0.016-27.124,0.016c-1.134,0-2.265,0-3.874,0c0,1.333,0,2.447,0,3.561
				c0,33.313,0,66.626,0,99.937c-0.004,7.068-1.807,8.89-8.826,8.892c-18.936,0.007-37.873,0.019-56.809-0.023
				c-1.689-0.003-3.52-0.005-5.04-0.631c-3.192-1.322-3.723-4.233-3.719-7.47c0.04-33.507,0.026-67.013,0.026-100.519
				C414.843,349.764,414.843,348.627,414.843,347.16z"/>
		</g>
	</g>
</g>
<g id="NOTIFICATION" display="none">
	<g display="inline">
		<path fill-rule="evenodd" clip-rule="evenodd" fill="#214195" d="M187.69,432.036c0-7.553-0.155-14.926,0.105-22.286
			c0.067-1.897,1.023-4.104,2.276-5.566c9.925-11.584,15.487-25.336,19.826-39.648c7.053-23.261,9.536-47.197,9.582-71.397
			c0.038-19.575,3.489-38.225,13.745-55.184c12.175-20.133,30.381-32.474,52.247-39.962c3.412-1.168,6.916-2.068,10.614-3.163
			c0-5.939-0.015-11.844,0.002-17.75c0.041-13.275,10.373-23.997,23.493-24.398c12.876-0.394,23.578,9.345,24.431,22.528
			c0.352,5.443,0.25,10.927,0.105,16.386c-0.063,2.43,0.839,3.233,3.118,3.841c20.837,5.554,38.976,15.62,52.854,32.485
			c11.299,13.728,17.753,29.651,19.465,47.216c1.334,13.682,1.172,27.504,2.239,41.221c2.004,25.774,6.952,50.877,19.189,74.006
			c2.271,4.294,5.448,8.099,7.958,12.279c1.378,2.294,3.028,4.853,3.177,7.375c0.426,7.235,0.149,14.514,0.149,22.018
			C364.059,432.036,276.109,432.036,187.69,432.036z"/>
		<path fill-rule="evenodd" clip-rule="evenodd" fill="#214195" d="M351.129,446.059c4.808,13.4-2.575,30.485-16.24,37.362
			c-11.802,5.938-23.503,5.168-34.089-2.688c-10.627-7.887-14.99-18.772-12.916-32.03c0.25-1.601,0.598-2.689,2.662-2.684
			C310.676,446.084,330.806,446.059,351.129,446.059z"/>
	</g>
	
		<circle display="inline" fill-rule="evenodd" clip-rule="evenodd" fill="none" stroke="#D81F37" stroke-width="18" stroke-miterlimit="10" cx="320" cy="320" r="242.524"/>
</g>
<g id="VALIDATE_DATA" display="none">
	<g display="inline">
		<circle fill-rule="evenodd" clip-rule="evenodd" fill="#214195" cx="320" cy="312.715" r="207.143"/>
		<g>
			<path fill-rule="evenodd" clip-rule="evenodd" fill="#FFFFFF" d="M369.312,242.529c18.845,0.002,37.69,0.04,56.535-0.028
				c3.986-0.014,7.229,0.952,8.639,5.061c1.672,4.865-2.15,9.321-8.083,9.339c-16.052,0.049-32.105,0.029-48.161,0.03
				c-21.777,0.001-43.555-0.032-65.331,0.018c-3.954,0.009-7.288-0.944-8.748-4.967c-1.786-4.92,1.664-9.347,7.357-9.399
				c10.748-0.098,21.497-0.047,32.247-0.053C352.281,242.524,360.798,242.528,369.312,242.529z"/>
			<path fill-rule="evenodd" clip-rule="evenodd" fill="#FFFFFF" d="M369.438,302.496c18.31,0.001,36.619,0,54.93,0.004
				c1.257,0,2.53-0.079,3.768,0.087c4.03,0.539,6.736,3.566,6.661,7.316c-0.078,3.814-2.78,6.774-6.984,6.893
				c-8.1,0.227-16.209,0.153-24.315,0.153c-29.909,0-59.819-0.019-89.729-0.044c-1.394-0.001-2.813,0.003-4.174-0.242
				c-3.436-0.621-5.443-2.731-5.735-6.233c-0.288-3.452,1.188-6.041,4.468-7.228c1.527-0.552,3.275-0.675,4.925-0.679
				C331.979,302.479,350.709,302.494,369.438,302.496z"/>
			<path fill-rule="evenodd" clip-rule="evenodd" fill="#FFFFFF" d="M369.328,376.95c-18.984,0-37.97,0.005-56.955-0.003
				c-5.426-0.003-8.479-2.484-8.576-6.915c-0.102-4.635,3.005-7.29,8.648-7.292c37.83-0.018,75.659-0.025,113.489-0.019
				c4.889,0.001,7.857,1.932,8.74,5.518c1.144,4.656-2.479,8.709-7.976,8.72c-19.124,0.039-38.248,0.016-57.371,0.016
				C369.328,376.966,369.328,376.959,369.328,376.95z"/>
			<path fill-rule="evenodd" clip-rule="evenodd" fill="#FFFFFF" d="M241.727,308.422c7.094-7.128,13.285-13.353,19.481-19.573
				c0.886-0.889,1.734-1.826,2.699-2.623c3.097-2.558,7.139-2.416,9.826,0.285c2.692,2.705,3.021,6.9,0.197,9.796
				c-8.861,9.087-17.847,18.055-26.933,26.917c-2.75,2.683-6.654,2.626-9.475,0.028c-3.896-3.586-7.648-7.343-11.261-11.215
				c-2.755-2.953-2.531-7.048,0.174-9.789c2.89-2.927,6.875-3.035,10.06,0.001C238.297,303.967,239.745,306.054,241.727,308.422z"/>
			<path fill-rule="evenodd" clip-rule="evenodd" fill="#FFFFFF" d="M241.693,368.6c7.717-7.749,14.598-14.676,21.503-21.58
				c2.799-2.801,6.002-3.554,9.444-1.312c2.935,1.909,3.757,4.834,2.753,8.063c-0.429,1.379-1.474,2.678-2.521,3.734
				c-8.248,8.335-16.533,16.634-24.872,24.877c-4.017,3.971-7.563,3.941-11.64,0.001c-3.211-3.104-6.394-6.244-9.453-9.496
				c-3.259-3.463-3.391-7.493-0.553-10.444c2.973-3.092,7.149-3.03,10.722,0.427C238.766,364.504,240.063,366.544,241.693,368.6z"/>
			<path fill-rule="evenodd" clip-rule="evenodd" fill="#FFFFFF" d="M241.903,248.437c7.676-7.783,14.602-14.841,21.571-21.855
				c2.715-2.732,5.899-3.122,9.13-1.109c3.17,1.975,3.79,5.085,2.703,8.441c-0.405,1.249-1.425,2.385-2.386,3.353
				c-8.255,8.323-16.531,16.624-24.864,24.869c-3.935,3.895-7.696,3.849-11.633-0.012c-3.288-3.225-6.591-6.438-9.749-9.787
				c-3.033-3.214-3.101-7.253-0.391-10.116c2.748-2.903,7.275-2.972,10.47,0.097C238.553,244.042,239.993,246.137,241.903,248.437z"
				/>
		</g>
	</g>
	<g display="inline">
		<path fill-rule="evenodd" clip-rule="evenodd" fill="#D81F37" d="M489.84,538.277c-0.866,2.412-1.4,5.017-2.66,7.204
			c-4.91,8.52-12.027,13.732-22.247,13.593c-5.491-0.073-10.516-1.863-14.467-5.697c-8.446-8.195-16.761-16.529-25.007-24.925
			c-5.147-5.24-7.153-11.658-6.268-18.965c0.046-0.377,0.036-0.763,0.063-1.354c-18.489,11.705-37.993,14.256-58.446,6.706
			c-13.904-5.131-24.579-14.409-32.103-27.185c-15.073-25.593-10.178-58.49,11.623-78.666c21.95-20.314,55.232-22.623,79.565-5.387
			c13.609,9.64,22.289,22.69,25.615,39.05c3.315,16.304,0.554,31.698-8.057,46.256c4.069-0.907,7.9-0.955,11.7,0.049
			c3.924,1.035,7.361,2.965,10.238,5.834c7.943,7.923,15.879,15.853,23.796,23.799c3.366,3.379,5.482,7.43,6.315,12.141
			c0.057,0.315,0.224,0.611,0.338,0.915C489.84,533.855,489.84,536.066,489.84,538.277z M383.438,415.104
			c-22.346-0.002-40.43,18.041-40.524,40.434c-0.094,22.162,18.175,40.616,40.461,40.547c23.507-0.072,40.553-19.071,40.548-40.398
			C423.915,433.172,405.91,415.104,383.438,415.104z"/>
		<path fill-rule="evenodd" clip-rule="evenodd" fill="#D81F37" d="M350.487,457.026c0.333-12.079,4.453-20.798,12.776-27.444
			c3.107-2.482,7.219-2.046,9.586,0.918c2.341,2.934,1.763,7.02-1.295,9.554c-6.574,5.451-8.916,12.354-6.958,20.677
			c0.973,4.137-0.843,7.576-4.596,8.586c-3.44,0.927-7.082-0.881-8.002-4.319C351.18,461.934,350.803,458.752,350.487,457.026z"/>
	</g>
</g>
<g id="ERROR" display="none">
	<g display="inline">
		<path fill-rule="evenodd" clip-rule="evenodd" fill="#214195" d="M73.409,463.676c0.702-3.339,1.038-6.81,2.187-9.986
			c1.983-5.484,4.017-11.035,6.814-16.126C146.962,320.062,211.622,202.62,276.256,85.164c5.588-10.154,12.66-18.978,22.825-24.877
			c16.302-9.461,35.324-7.213,49.775,5.645c6.412,5.706,11.28,12.554,15.39,20.024c57.279,104.117,114.575,208.226,171.861,312.339
			c7.745,14.077,15.538,28.129,23.167,42.27c4.386,8.128,7.069,16.856,7.3,26.126c0.534,21.53-11.697,38.526-32.569,44.654
			c-6.267,1.84-12.981,3.019-19.493,3.027c-130.007,0.171-260.014,0.184-390.021,0.044c-14.39-0.016-27.622-4.282-38.231-14.604
			c-7.074-6.884-11.167-15.357-12.393-25.186c-0.059-0.475-0.301-0.926-0.458-1.388C73.409,470.051,73.409,466.862,73.409,463.676z
			 M319.984,477.273c15.349,0,30.699,0,46.047,0c48.731,0,97.463,0.037,146.194-0.07c3.879-0.009,7.875-0.596,11.602-1.665
			c4.785-1.374,6.601-4.739,5.29-9.572c-1.04-3.832-2.496-7.654-4.401-11.134c-21.018-38.391-42.162-76.713-63.27-115.054
			c-43.307-78.663-86.599-157.334-129.965-235.963c-1.843-3.341-4.098-6.555-6.662-9.371c-3.43-3.766-6.147-3.77-9.563-0.047
			c-2.52,2.745-4.738,5.878-6.555,9.137c-10.43,18.712-20.694,37.516-31.025,56.283c-54.239,98.531-108.493,197.055-162.671,295.618
			c-1.75,3.186-3.071,6.698-4.014,10.214c-1.401,5.224,0.414,8.567,5.632,10.021c3.655,1.02,7.571,1.534,11.371,1.539
			C191.99,477.299,255.987,477.273,319.984,477.273z"/>
		<path fill-rule="evenodd" clip-rule="evenodd" fill="#D81F37" d="M341.805,272.64c-0.001,21.131-0.146,42.265,0.055,63.395
			c0.115,12.145-7.983,20.269-16.405,22.608c-13.691,3.805-28.013-6.501-28.052-20.727c-0.117-43.521-0.097-87.042-0.003-130.563
			c0.025-11.624,10.187-21.313,21.983-21.437c11.677-0.123,22.11,9.283,22.262,20.815c0.282,21.547,0.132,43.1,0.161,64.65
			C341.806,271.801,341.805,272.22,341.805,272.64z"/>
		<path fill-rule="evenodd" clip-rule="evenodd" fill="#D81F37" d="M319.837,426.046c-12.277-0.054-22.224-9.978-22.274-22.223
			c-0.051-12.289,10.07-22.346,22.443-22.3c12.459,0.046,22.248,9.958,22.187,22.468
			C342.133,416.281,332.179,426.102,319.837,426.046z"/>
	</g>
</g>
<g id="SUCCESS" display="none">
	<g display="inline">
		<path fill-rule="evenodd" clip-rule="evenodd" fill="#214195" d="M309.716,144.496c6.856,0,13.711,0,20.567,0
			c0.986,0.215,1.961,0.557,2.957,0.627c24.797,1.75,48.258,8.349,69.93,20.46c48.99,27.38,79.043,68.669,89.631,123.903
			c1.152,6.01,1.814,12.113,2.703,18.174c0,8.227,0,16.453,0,24.681c-0.223,0.992-0.574,1.976-0.652,2.979
			c-1.287,16.6-4.746,32.765-11.127,48.109c-24.805,59.641-68.789,96.307-132.195,109.349c-5.658,1.165-11.418,1.829-17.133,2.726
			c-9.598,0-19.195,0-28.793,0c-3.695-0.528-7.396-1.022-11.085-1.591c-35.109-5.41-66.055-19.75-92.339-43.69
			c-29.402-26.781-47.799-59.804-54.918-98.992c-1.137-6.258-1.854-12.592-2.766-18.89c0-8.228,0-16.454,0-24.681
			c0.514-3.938,0.973-7.885,1.549-11.813c4.99-33.999,18.358-64.277,40.944-90.22c28.484-32.72,64.224-52.561,107.21-59.093
			C299.356,145.751,304.543,145.171,309.716,144.496z M320.125,188.559c-73.058,0.131-131.85,59.106-131.732,132.144
			c0.116,72.507,59.341,131.211,132.499,130.922c71.308-0.281,130.556-57.861,130.642-131.353
			C451.617,247.316,392.475,188.43,320.125,188.559z"/>
		<path fill-rule="evenodd" clip-rule="evenodd" fill="#D81F37" d="M298.564,333.2c1.026-1.36,1.735-2.568,2.693-3.528
			c22.833-22.871,45.657-45.75,68.559-68.55c10.52-10.474,26.762-8.882,34.584,3.234c5.578,8.638,4.441,19.836-2.98,27.356
			c-10.189,10.321-20.5,20.521-30.75,30.78c-19.049,19.063-38.096,38.129-57.14,57.196c-8.279,8.29-22.314,8.547-30.609,0.324
			c-14.759-14.631-29.397-29.384-44.071-44.101c-6.289-6.307-8.247-13.912-5.707-22.325c2.516-8.336,8.468-13.422,17-15.101
			c7.464-1.47,14.054,0.739,19.454,6.023c8.731,8.546,17.32,17.238,25.974,25.862C296.29,331.091,297.048,331.771,298.564,333.2z"/>
	</g>
</g>
<g id="PLOT_MODULE" display="none">
	<path display="inline" fill="#214195" d="M315.378,60.963c-56.884,0-103.162,44.084-103.162,98.27
		c0,16.628,4.507,33.085,13.048,47.703c0.099,0.218,0.204,0.433,0.314,0.646l76.702,147.629c2.462,4.742,7.534,7.742,13.086,7.742
		c0,0,0,0,0,0c5.552,0,10.624-3,13.086-7.738l76.732-147.631c0.123-0.236,0.236-0.473,0.346-0.713
		c8.517-14.572,13.01-31.003,13.01-47.639C418.541,105.047,372.263,60.963,315.378,60.963z M315.39,203.693
		c-25.75,0-46.699-19.947-46.699-44.467c0-24.527,20.949-44.482,46.699-44.482c25.749,0,46.696,19.955,46.696,44.482
		C362.086,183.746,341.139,203.693,315.39,203.693z"/>
	<g display="inline">
		<path fill-rule="evenodd" clip-rule="evenodd" fill="#D81F37" d="M240.763,293.063c-16.184,0-31.538,0-47.964,0
			c1.231,2.16,1.77,3.307,2.469,4.304c39.427,56.181,78.896,112.323,118.233,168.587c2.333,3.337,4.146,3.793,7.538,2.225
			c31.582-14.602,63.241-28.985,94.876-43.441c1.133-0.519,2.233-1.133,3.816-1.941c-22.745-23.137-45.208-45.985-68.013-69.182
			c1.726-2.333,3.288-4.441,5.165-6.979c23.59,23.959,46.982,47.718,70.671,71.776c25.239-22.392,50.296-44.625,76.077-67.5
			c-35.604-20.713-70.68-41.119-106.068-61.709c2.788-5.007,5.365-9.636,8.174-14.681c6.61,3.826,13.125,7.583,19.629,11.365
			c31.246,18.166,62.492,36.333,93.732,54.512c7.996,4.653,8.574,11.172,1.502,17.455c-28.486,25.303-56.955,50.631-85.554,75.768
			c-2.894,2.543-6.524,4.114-9.968,5.691c-32.398,14.832-64.85,29.515-97.219,44.43c-2.545,1.173-5.046,3.337-6.796,5.768
			c-17.996,24.987-35.814,50.141-53.72,75.212c-6.121,8.57-10.542,8.404-15.911-0.623c-44.931-75.545-89.84-151.107-134.744-226.674
			c-3.517-5.919-2.889-10.21,2.184-14.192c18.979-14.9,37.967-29.788,57.046-44.52c1.841-1.422,4.32-2.382,6.531-2.453
			c15.532-0.503,31.071-0.757,46.609-0.938c1.134-0.014,2.743,0.834,3.34,1.876C235.125,281.957,237.57,286.927,240.763,293.063z
			 M182.798,294.267c-16.723,13.09-33.241,26.019-50.076,39.196c42.537,71.568,84.784,142.65,127.261,214.118
			c17.222-24.183,33.923-47.635,50.697-71.188C267.944,415.528,225.494,355.072,182.798,294.267z"/>
	</g>
</g>
<g id="IMPORT_PLOT" display="none">
	<path display="inline" fill="#214195" d="M191.586,266.175c10.516,0,19.026-8.516,19.026-19.032c0-1.925-0.587-3.616-1.099-5.307
		c24.263-19.641,67.22-54.115,86.763-69.243c3.1,2.202,6.721,3.72,10.723,3.72c3.409,0,6.405-1.109,9.097-2.621
		c12.648,10.723,33.985,28.852,49.194,41.777c-0.18,1.104-0.695,2.104-0.695,3.208c0,10.511,8.623,19.032,19.135,19.032
		c10.516,0,19.031-8.521,19.031-19.032c0-1.794-0.592-3.519-1.104-5.204l49.194-44.371c2.615,1.382,5.508,2.382,8.613,2.382
		c10.517,0,19.059-8.515,19.059-19.031s-8.542-19.021-19.059-19.021c-10.413,0-18.929,8.504-18.929,19.021
		c0,2.518,0.512,4.927,1.414,7.106c-13.725,12.338-34.986,31.468-48.091,43.398c-3.001-1.903-6.411-3.307-10.13-3.307
		c-4.514,0-8.412,1.795-11.719,4.404c-12.518-10.717-32.854-27.955-47.296-40.184c0.821-2.109,1.311-4.209,1.311-6.492
		c0-10.539-8.516-19.054-18.929-19.054c-10.516,0-19.031,8.515-19.031,19.054c0,2.283,0.489,4.491,1.283,6.492L202.103,231.7
		c-3.001-1.99-6.514-3.508-10.516-3.508c-10.511,0-19.032,8.516-19.032,18.95C172.555,257.659,181.075,266.175,191.586,266.175
		L191.586,266.175z M191.586,266.175"/>
	<g id="Layer_8_copy" display="inline">
		<g>
			<path fill-rule="evenodd" clip-rule="evenodd" fill="#D81F37" d="M342.194,319.729c1.377,0,2.398,0,3.426,0
				c9.035,0,18.078-0.029,27.117,0.009c7.289,0.032,9.924,4.702,6.295,11.119c-22.576,39.888-45.153,79.774-67.733,119.657
				c-3.767,6.654-8.86,6.605-12.658-0.111c-22.53-39.803-45.071-79.6-67.537-119.437c-0.954-1.686-1.76-3.795-1.69-5.671
				c0.143-3.578,2.999-5.529,7.416-5.551c9.04-0.047,18.083-0.016,27.124-0.016c1.134,0,2.265,0,3.874,0c0-1.333,0-2.447,0-3.561
				c0-33.313,0-66.626,0-99.937c0.004-7.068,1.807-8.89,8.826-8.892c18.936-0.007,37.873-0.019,56.809,0.023
				c1.689,0.003,3.52,0.005,5.04,0.631c3.191,1.322,3.723,4.233,3.719,7.47c-0.041,33.507-0.027,67.013-0.027,100.519
				C342.194,317.125,342.194,318.262,342.194,319.729z"/>
		</g>
	</g>
</g>
<g id="CERTIFICATE" display="none">
	<g display="inline">
		<path fill-rule="evenodd" clip-rule="evenodd" fill="#D81F37" d="M443.404,60.417c5.625,3.246,11.9,5.741,16.716,9.921
			c6.723,5.833,8.725,14.217,8.712,23.064c-0.049,33.465-0.02,66.93-0.021,100.395c0,78.087,0.009,156.171-0.009,234.257
			c-0.004,16.444-8.565,28.149-23.493,32.284c-6.326,1.75-6.903,1.473-9.185-4.63c-1.363-3.645-2.668-7.313-4.227-11.592
			c2.145,0,3.811,0.07,5.467-0.011c8.196-0.401,13.415-5.483,13.971-13.596c0.095-1.408,0.071-2.828,0.071-4.242
			c0.002-110.292,0.004-220.586-0.009-330.881c0-2.038-0.038-4.094-0.294-6.112c-0.689-5.505-4.68-9.921-10.11-11.034
			c-2.287-0.468-4.67-0.627-7.011-0.627c-82.959-0.03-165.915-0.03-248.871-0.001c-2.34,0.002-4.725,0.16-7.013,0.62
			c-5.482,1.103-9.454,5.461-10.148,10.982c-0.253,2.018-0.297,4.074-0.297,6.112c-0.013,110.451-0.02,220.903,0.032,331.354
			c0.001,2.944,0.055,6.108,1.087,8.783c2.53,6.561,8.017,8.699,14.717,8.688c28.909-0.049,57.818-0.02,86.728-0.02
			c1.699,0,3.397,0,5.668,0c-1.706,5.419-3.033,10.407-4.948,15.152c-0.439,1.091-2.893,1.929-4.426,1.937
			c-21.524,0.127-43.048,0.1-64.574,0.078c-7.382-0.008-14.776,0.153-22.145-0.204c-16.227-0.795-28.441-13.06-29.479-29.271
			c-0.061-0.94-0.069-1.886-0.069-2.828c-0.004-112.022-0.016-224.044,0.012-336.067c0.003-13.455,5.854-23.511,18.021-29.591
			c2.354-1.177,4.908-1.958,7.37-2.922C264.9,60.417,354.152,60.417,443.404,60.417z"/>
		<path fill-rule="evenodd" clip-rule="evenodd" fill="#214195" d="M400.035,543.132c-7.371-19.618-14.726-39.243-22.122-58.853
			c-4.079-10.816-8.229-21.605-12.014-31.53c-7.985,0.593-15.359,1.139-23.538,1.748c-3.53,11.209-7.375,23.418-11.224,35.623
			c-2.731,8.662-5.409,17.34-8.265,25.961c-0.428,1.29-1.696,2.306-2.575,3.447c-0.94-1.104-2.298-2.063-2.753-3.343
			c-3.503-9.865-6.832-19.792-10.449-30.385c-6.943,4.708-13.521,9.168-20.103,13.625c-1.169,0.792-2.268,1.745-3.538,2.313
			c-1.46,0.657-3.075,0.964-4.623,1.422c-0.054-1.607-0.543-3.353-0.094-4.808c5.351-17.355,10.845-34.67,16.29-51.998
			c1.072-3.413,2.098-6.839,3.206-10.461c-9.645-5.782-15.682-13.927-17.042-25.166c-0.539-4.449-0.678-8.981-1.658-13.331
			c-0.514-2.278-2.156-4.506-3.794-6.292c-12.074-13.164-11.423-33.277,1.86-45.117c3.523-3.141,4.616-6.024,3.896-10.956
			c-3.475-23.829,16.8-41.702,40.332-36.021c1.046,0.252,2.09,0.512,3.37,0.826c4.445-7.619,10.681-13.129,19.149-15.754
			c13.208-4.091,27.071,0.725,35.626,11.892c1.35,1.763,3.745,3.496,5.854,3.78c15.071,2.026,26.977,13.948,28.113,29.052
			c0.328,4.366,2.204,7.191,5.669,9.61c15.654,10.926,18.125,31.756,6.877,46.951c-3.831,5.177-6.04,12.483-6.508,18.998
			c-0.665,9.318-2.512,17.662-8.912,24.541c-1.963,2.106-1.892,3.781-0.952,6.257c10.002,26.358,19.881,52.761,29.796,79.151
			c0.443,1.175,1.178,2.306,1.302,3.507c0.131,1.258-0.31,2.575-0.501,3.862c-1.153-0.219-2.468-0.153-3.439-0.7
			c-6.832-3.849-13.591-7.827-20.378-11.754c-0.669-0.388-1.37-0.722-2.644-1.387c-1.959,6.302-3.787,12.373-5.732,18.408
			c-1.82,5.646-3.764,11.253-5.653,16.879C401.92,543.132,400.978,543.132,400.035,543.132z M408.702,369.514
			c-0.015-32.324-25.92-58.338-58.182-58.418c-32.409-0.082-58.852,26.189-58.842,58.461c0.009,31.98,26.423,58.463,58.414,58.57
			C382.396,428.232,408.718,401.911,408.702,369.514z"/>
		<path fill-rule="evenodd" clip-rule="evenodd" fill="#D81F37" d="M216.408,148.19c0-9.055,0-17.67,0-26.685
			c62.061,0,123.983,0,186.171,0c0,8.833,0,17.566,0,26.685C340.675,148.19,278.757,148.19,216.408,148.19z"/>
		<path fill-rule="evenodd" clip-rule="evenodd" fill="#D81F37" d="M216.506,183.695c62.247,0,123.924,0,185.969,0
			c0,8.955,0,17.797,0,26.943c-61.919,0-123.834,0-185.969,0C216.506,201.606,216.506,192.894,216.506,183.695z"/>
	</g>
</g>
<g id="PRINT" display="none">
	<g display="inline">
		<g>
			<path fill-rule="evenodd" clip-rule="evenodd" fill="#D81F37" d="M159.022,177.278c0-16.074,0-31.376,0-46.678
				c0-6.5-0.065-13,0.007-19.498c0.147-13.337,8.576-21.853,21.972-21.898c28.498-0.096,56.996-0.033,85.494-0.034
				c69.827-0.003,139.656-0.006,209.483-0.008c1.167,0,2.335-0.018,3.5,0.032c12.185,0.522,20.558,9.022,20.612,21.211
				c0.088,19.665,0.017,39.33,0.013,58.995c-0.001,2.315,0,4.629,0,7.566c2.167,0.107,4.075,0.262,5.985,0.287
				c9.993,0.128,20.05-0.451,29.97,0.464c23.46,2.166,39.843,20.453,39.887,44.004c0.092,49.829,0.028,99.658,0.028,149.487
				c0,16.666,0.048,33.331-0.011,49.996c-0.091,25.992-18.731,44.71-44.741,44.928c-10.133,0.086-20.268,0.015-30.756,0.015
				c-0.145,1.854-0.354,3.291-0.354,4.729c-0.014,29.331-0.046,58.662,0.02,87.993c0.033,14.646-7.256,22.099-22.064,22.104
				c-61.161,0.02-122.323,0-183.485,0c-37.164-0.001-74.327,0.019-111.491,0.003c-16.294-0.007-24.108-7.961-24.088-24.287
				c0.035-28.497,0.018-56.994,0.008-85.491c0-1.467-0.133-2.934-0.235-5.045c-8.653,0-17.108,0.282-25.533-0.092
				c-6.435-0.286-13.125-0.454-19.191-2.328c-18.375-5.676-29.846-22.503-29.864-42.773c-0.051-58.996-0.035-117.993,0.007-176.989
				c0.007-9.323-0.527-18.746,0.598-27.95c2.804-22.945,20.395-38.26,43.583-38.71C138.348,177.117,148.329,177.278,159.022,177.278
				z M158.952,425.144c0-2.43,0.001-4.223,0-6.017c-0.006-19.16-0.025-38.32-0.016-57.48c0.007-13.906,8.528-22.545,22.348-22.549
				c97.968-0.025,195.938,0.138,293.904-0.209c14.412-0.051,25.86,7.771,25.174,25.563c-0.72,18.633-0.167,37.315-0.149,55.977
				c0.002,1.447,0.164,2.894,0.277,4.754c9.66,0,18.971-0.193,28.267,0.081c4.691,0.139,6.349-1.283,6.337-6.207
				c-0.146-64.812-0.095-129.624-0.1-194.436c0-6.073-0.298-6.386-6.58-6.382c-18.326,0.012-36.653,0.095-54.98,0.091
				c-113.795-0.024-227.591-0.067-341.386-0.092c-6.729-0.001-6.899,0.214-6.899,7.112c-0.002,35.821-0.001,71.643-0.001,107.464
				c0,28.824-0.002,57.647,0.004,86.471c0.001,2.843-0.441,5.914,3.994,5.88C138.799,425.093,148.454,425.144,158.952,425.144z
				 M458.828,539.77c0-53.278,0-106.16,0-159.229c-86.303,0-172.308,0-258.518,0c0,53.244,0,106.119,0,159.229
				C286.526,539.77,372.422,539.77,458.828,539.77z M458.898,130.564c-86.614,0-172.619,0-258.57,0c0,15.68,0,30.932,0,46.335
				c86.348,0,172.357,0,258.57,0C458.898,161.31,458.898,146.054,458.898,130.564z"/>
		</g>
		<path fill-rule="evenodd" clip-rule="evenodd" fill="#214195" d="M480.068,280.167c-4.639-0.312-9.376-0.135-13.898-1.034
			c-10.422-2.07-17.176-11.638-16.108-22.051c1.031-10.065,9.571-17.916,19.961-18.149c6.495-0.146,12.998-0.132,19.494-0.016
			c12.092,0.218,20.677,8.702,20.75,20.355c0.07,11.255-8.448,19.978-20.182,20.542c-3.325,0.16-6.664,0.024-9.997,0.024
			C480.082,279.948,480.075,280.058,480.068,280.167z"/>
		<path fill-rule="evenodd" clip-rule="evenodd" fill="#214195" d="M330.498,408.92c27.156,0.003,54.313-0.042,81.47,0.028
			c8.666,0.022,15.059,4.17,18.634,11.969c3.396,7.408,2.468,14.67-2.599,21.147c-4.044,5.169-9.553,7.791-16.068,7.798
			c-54.479,0.057-108.96,0.092-163.44-0.007c-11.845-0.021-20.75-9.115-20.733-20.523c0.017-11.491,8.834-20.332,20.769-20.38
			C275.852,408.842,303.175,408.917,330.498,408.92z"/>
		<path fill-rule="evenodd" clip-rule="evenodd" fill="#214195" d="M329.827,517.406c-26.653,0-53.305,0.057-79.958-0.026
			c-11.987-0.037-20.735-7.188-21.928-17.583c-1.457-12.696,7.252-22.853,20.23-23.271c7.655-0.247,15.324-0.07,22.987-0.07
			c46.142,0.002,92.285-0.01,138.427,0.022c11.687,0.009,19.956,5.794,22.313,15.421c3.162,12.912-5.947,25.007-19.619,25.388
			c-13.316,0.37-26.649,0.141-39.976,0.153c-14.159,0.015-28.318,0.004-42.478,0.004
			C329.827,517.431,329.827,517.418,329.827,517.406z"/>
	</g>
</g>
<g id="SCAN" display="none">
	<g display="inline">
		<path fill-rule="evenodd" clip-rule="evenodd" fill="#D81F37" d="M253.489,40c4.344,3.242,9.166,6.004,12.963,9.794
			C371.028,154.183,475.474,258.703,580.06,363.082c5.95,5.938,8.718,12.284,8.653,20.78c-0.299,38.813-0.441,77.633,0.023,116.442
			c0.181,15.065-10.307,21.549-21.608,21.536c-154.76-0.172-309.52-0.127-464.279-0.063c-10.118,0.004-16.445-4.984-20.338-13.837
			c0-44.328,0-88.656,0-132.983c4.412-10.68,12.588-13.976,23.811-13.96c137.12,0.21,274.24,0.137,411.361,0.136
			c2.305,0,4.611,0,8.313,0c-2.621-2.673-4.388-4.505-6.187-6.305c-93.418-93.421-186.675-187.006-280.471-280.047
			C227.548,63.086,227.06,47.325,244.49,40C247.49,40,250.489,40,253.489,40z M119.554,484.7c144.337,0,288.044,0,431.948,0
			c0-28.96,0-57.655,0-86.432c-144.181,0-288.015,0-431.948,0C119.554,427.194,119.554,455.783,119.554,484.7z"/>
		<path fill-rule="evenodd" clip-rule="evenodd" fill="#214195" d="M291.972,303.926c42.154,0,84.308-0.005,126.462,0.003
			c12.049,0.002,20.287,7.596,20.238,18.607c-0.046,10.624-8.429,18.202-20.21,18.202c-83.977,0.003-167.952,0-251.928-0.018
			c-9.775-0.002-16.778-4.577-19.493-12.605c-2.487-7.355-0.462-15.75,6.041-20.054c3.509-2.324,8.237-3.9,12.428-3.929
			c42.152-0.281,84.308-0.171,126.462-0.171C291.972,303.95,291.972,303.938,291.972,303.926z"/>
		<path fill-rule="evenodd" clip-rule="evenodd" fill="#214195" d="M190.443,441.379c0.022,10.13-8.215,18.44-18.3,18.465
			c-9.988,0.024-18.471-8.396-18.501-18.365s8.403-18.418,18.412-18.445C182.15,423.006,190.421,431.258,190.443,441.379z"/>
	</g>
</g>
<g id="SEARCH" display="none">
	<g display="inline">
		<path fill-rule="evenodd" clip-rule="evenodd" fill="#214195" d="M522.492,438.821c-1.959,5.455-3.167,11.346-6.017,16.293
			c-11.105,19.269-27.202,31.059-50.315,30.743c-12.42-0.166-23.783-4.214-32.72-12.886c-19.103-18.535-37.907-37.384-56.558-56.372
			c-11.642-11.852-16.179-26.367-14.175-42.893c0.104-0.853,0.081-1.725,0.141-3.063c-41.816,26.474-85.928,32.242-132.187,15.167
			c-31.447-11.604-55.59-32.589-72.606-61.482c-34.091-57.883-23.019-132.287,26.288-177.918
			c49.645-45.945,124.918-51.167,179.952-12.183c30.78,21.801,50.41,51.319,57.934,88.318c7.498,36.874,1.252,71.692-18.222,104.616
			c9.203-2.052,17.868-2.16,26.462,0.111c8.874,2.341,16.649,6.705,23.156,13.194c17.965,17.919,35.913,35.854,53.818,53.825
			c7.613,7.643,12.399,16.804,14.283,27.458c0.129,0.714,0.506,1.383,0.765,2.07C522.492,428.82,522.492,433.821,522.492,438.821z
			 M281.846,160.241c-50.539-0.005-91.439,40.803-91.653,91.447c-0.212,50.124,41.105,91.861,91.51,91.705
			c53.165-0.164,91.718-43.134,91.706-91.369C373.391,201.105,332.67,160.241,281.846,160.241z"/>
		<path fill-rule="evenodd" clip-rule="evenodd" fill="#D81F37" d="M207.321,255.058c0.753-27.319,10.071-47.039,28.896-62.071
			c7.028-5.614,16.326-4.627,21.681,2.076c5.294,6.635,3.986,15.876-2.929,21.607c-14.869,12.329-20.166,27.94-15.737,46.765
			c2.2,9.355-1.906,17.135-10.394,19.419c-7.781,2.096-16.017-1.992-18.098-9.77C208.887,266.155,208.034,258.96,207.321,255.058z"
			/>
	</g>
</g>
<g id="SEARCH_RESULTS" display="none">
	<path display="inline" fill-rule="evenodd" clip-rule="evenodd" fill="#D81F37" d="M221.975,88.842
		c0-9.693-0.014-18.661,0.004-27.629c0.016-7.775,2.797-10.644,10.385-10.646c58.329-0.02,116.658-0.029,174.988-0.029
		c7.812,0,10.697,3.006,10.684,10.947c-0.017,8.953-0.004,17.906-0.004,27.359c2.827,0,5.117,0,7.408,0
		c22.331,0,44.664-0.081,66.995,0.025c17.86,0.085,28.245,10.596,28.246,28.361c0.008,126.49,0.016,252.981-0.045,379.473
		c-0.002,4.465-0.129,9.085-1.237,13.364c-2.889,11.16-12.936,18.359-25.018,18.366c-69.494,0.037-138.988,0.026-208.483,0.031
		c-45.164,0.004-90.328,0.042-135.491-0.044c-4.456-0.009-9.098-0.112-13.328-1.315c-11.169-3.178-17.702-13.199-17.729-26.598
		c-0.071-34.83-0.019-69.662-0.019-104.493c0-91.66-0.018-183.322,0.05-274.982c0.003-4.629,0.105-9.429,1.282-13.852
		c3.067-11.528,13.077-18.27,26.633-18.331c21.665-0.098,43.33-0.015,64.996-0.009C215.28,88.843,218.267,88.842,221.975,88.842z
		 M221.954,106.53c-1.588-0.16-2.708-0.37-3.827-0.371c-23.994-0.017-47.987-0.047-71.981,0.015c-6.75,0.017-9.469,2.93-9.485,9.948
		c-0.036,15.496,0.01,30.992,0.011,46.487c0.005,112.305,0.001,224.608,0.021,336.912c0.001,9.729,2.219,11.912,12.155,11.917
		c67.648,0.031,135.297,0.03,202.945,0.035c46.821,0.004,93.642-0.012,140.463,0.021c4.2,0.003,8.348-0.409,10.091-4.769
		c0.999-2.499,0.94-5.519,0.943-8.304c0.045-55.652,0.028-111.305,0.027-166.957c-0.002-71.314,0.011-142.628-0.018-213.942
		c-0.004-9.308-2.173-11.334-11.553-11.339c-22.494-0.012-44.988-0.028-67.481-0.043c-1.936-0.001-3.871,0-6.251,0
		c0,9.618,0.007,18.58-0.002,27.543c-0.008,7.968-2.793,10.757-10.806,10.759c-58.152,0.017-116.304,0.027-174.456,0.027
		c-7.854,0-10.809-3.012-10.8-10.853C221.961,124.662,221.954,115.706,221.954,106.53z M400.797,67.852
		c-54.114,0-107.813,0-161.419,0c0,20.037,0,39.734,0,59.365c54.009,0,107.584,0,161.419,0
		C400.797,107.377,400.797,87.795,400.797,67.852z"/>
	<g display="inline">
		<path fill-rule="evenodd" clip-rule="evenodd" fill="#214195" d="M311.81,180.211c5.461,0,10.921,0,16.382,0
			c0.785,0.171,1.563,0.443,2.355,0.499c19.75,1.394,38.438,6.649,55.699,16.297c39.02,21.808,62.957,54.695,71.391,98.688
			c0.918,4.787,1.445,9.649,2.152,14.477c0,6.553,0,13.104,0,19.657c-0.176,0.791-0.457,1.574-0.518,2.374
			c-1.027,13.221-3.781,26.097-8.863,38.319c-19.758,47.503-54.791,76.708-105.295,87.096c-4.506,0.929-9.094,1.457-13.646,2.171
			c-7.645,0-15.289,0-22.934,0c-2.943-0.42-5.891-0.813-8.829-1.267c-27.964-4.31-52.613-15.731-73.548-34.8
			c-23.419-21.331-38.072-47.634-43.743-78.848c-0.905-4.984-1.477-10.029-2.203-15.046c0-6.553,0-13.104,0-19.657
			c0.409-3.138,0.775-6.28,1.234-9.41c3.975-27.08,14.623-51.196,32.612-71.86c22.688-26.062,51.154-41.864,85.394-47.067
			C303.557,181.21,307.689,180.748,311.81,180.211z M320.1,215.307c-58.191,0.104-105.019,47.078-104.925,105.253
			c0.092,57.752,47.265,104.51,105.536,104.279c56.798-0.224,103.989-46.087,104.058-104.622
			C424.834,262.107,377.727,215.204,320.1,215.307z"/>
		<path fill-rule="evenodd" clip-rule="evenodd" fill="#D81F37" d="M302.927,330.514c0.817-1.083,1.381-2.046,2.145-2.81
			c18.186-18.217,36.366-36.44,54.608-54.601c8.379-8.342,21.314-7.074,27.547,2.576c4.443,6.88,3.537,15.8-2.375,21.79
			c-8.115,8.221-16.328,16.345-24.492,24.516c-15.172,15.185-30.344,30.37-45.512,45.558c-6.595,6.603-17.774,6.808-24.381,0.258
			c-11.755-11.653-23.415-23.404-35.103-35.126c-5.009-5.023-6.568-11.081-4.545-17.781c2.004-6.64,6.746-10.691,13.54-12.028
			c5.946-1.171,11.195,0.589,15.495,4.798c6.955,6.807,13.795,13.729,20.688,20.6C301.115,328.834,301.719,329.376,302.927,330.514z
			"/>
	</g>
</g>
<g id="REPORT">
	<path fill-rule="evenodd" clip-rule="evenodd" fill="#214195" d="M221.975,88.842c0-9.693-0.014-18.661,0.004-27.629
		c0.016-7.775,2.797-10.644,10.385-10.646c58.329-0.02,116.658-0.029,174.988-0.029c7.812,0,10.697,3.006,10.684,10.947
		c-0.017,8.953-0.004,17.906-0.004,27.359c2.827,0,5.117,0,7.408,0c22.331,0,44.664-0.081,66.995,0.025
		c17.86,0.085,28.245,10.596,28.246,28.361c0.008,126.49,0.016,252.981-0.045,379.473c-0.002,4.465-0.129,9.085-1.237,13.364
		c-2.889,11.16-12.936,18.359-25.018,18.366c-69.494,0.037-138.988,0.026-208.483,0.031c-45.164,0.004-90.328,0.042-135.491-0.044
		c-4.456-0.009-9.098-0.112-13.328-1.315c-11.169-3.178-17.702-13.199-17.729-26.598c-0.071-34.83-0.019-69.662-0.019-104.493
		c0-91.66-0.018-183.322,0.05-274.982c0.003-4.629,0.105-9.429,1.282-13.852c3.067-11.528,13.077-18.27,26.633-18.331
		c21.665-0.098,43.33-0.015,64.996-0.009C215.28,88.843,218.267,88.842,221.975,88.842z M221.954,106.53
		c-1.588-0.16-2.708-0.37-3.827-0.371c-23.994-0.017-47.987-0.047-71.981,0.015c-6.75,0.017-9.469,2.93-9.485,9.948
		c-0.036,15.496,0.01,30.992,0.011,46.487c0.005,112.305,0.001,224.608,0.021,336.912c0.001,9.729,2.219,11.912,12.155,11.917
		c67.648,0.031,135.297,0.03,202.945,0.035c46.821,0.004,93.642-0.012,140.463,0.021c4.2,0.003,8.348-0.409,10.091-4.769
		c0.999-2.499,0.94-5.519,0.943-8.304c0.045-55.652,0.028-111.305,0.027-166.957c-0.002-71.314,0.011-142.628-0.018-213.942
		c-0.004-9.308-2.173-11.334-11.553-11.339c-22.494-0.012-44.988-0.028-67.481-0.043c-1.936-0.001-3.871,0-6.251,0
		c0,9.618,0.007,18.58-0.002,27.543c-0.008,7.968-2.793,10.757-10.806,10.759c-58.152,0.017-116.304,0.027-174.456,0.027
		c-7.854,0-10.809-3.012-10.8-10.853C221.961,124.662,221.954,115.706,221.954,106.53z M400.797,67.852
		c-54.114,0-107.813,0-161.419,0c0,20.037,0,39.734,0,59.365c54.009,0,107.584,0,161.419,0
		C400.797,107.377,400.797,87.795,400.797,67.852z"/>
	<path fill="#D81F37" d="M175.403,436.057c11.161,0,20.192-9.037,20.192-20.196c0-2.043-0.623-3.838-1.166-5.633
		c25.749-20.843,71.336-57.43,92.076-73.483c3.29,2.338,7.133,3.947,11.38,3.947c3.619,0,6.798-1.178,9.654-2.782
		c13.423,11.38,36.066,30.62,52.207,44.337c-0.19,1.172-0.738,2.232-0.738,3.404c0,11.155,9.152,20.197,20.307,20.197
		c11.16,0,20.197-9.042,20.197-20.197c0-1.904-0.629-3.733-1.171-5.522l52.206-47.088c2.775,1.466,5.846,2.526,9.142,2.526
		c11.159,0,20.226-9.036,20.226-20.197c0-11.16-9.066-20.186-20.226-20.186c-11.052,0-20.089,9.025-20.089,20.186
		c0,2.672,0.543,5.229,1.501,7.542c-14.565,13.094-37.128,33.395-51.036,46.055c-3.185-2.019-6.804-3.508-10.75-3.508
		c-4.789,0-8.928,1.904-12.437,4.674c-13.283-11.373-34.866-29.666-50.192-42.644c0.871-2.24,1.39-4.468,1.39-6.891
		c0-11.184-9.037-20.221-20.087-20.221c-11.161,0-20.197,9.037-20.197,20.221c0,2.423,0.519,4.767,1.362,6.891l-92.59,71.982
		c-3.185-2.112-6.913-3.723-11.161-3.723c-11.154,0-20.197,9.037-20.197,20.111C155.206,427.02,164.249,436.057,175.403,436.057
		L175.403,436.057z M175.403,436.057"/>
	<g>
		<path fill-rule="evenodd" clip-rule="evenodd" fill="#D81F37" d="M369.438,196.14c18.31,0.001,36.619,0,54.93,0.004
			c1.257,0,2.53-0.079,3.768,0.087c4.03,0.539,6.736,3.566,6.661,7.316c-0.078,3.814-2.78,6.774-6.984,6.893
			c-8.1,0.227-16.209,0.153-24.315,0.153c-29.909,0-59.819-0.019-89.729-0.044c-1.394-0.001-2.813,0.003-4.174-0.242
			c-3.436-0.621-5.443-2.731-5.735-6.233c-0.288-3.452,1.188-6.041,4.468-7.228c1.527-0.552,3.275-0.675,4.925-0.679
			C331.979,196.123,350.709,196.138,369.438,196.14z"/>
		<path fill-rule="evenodd" clip-rule="evenodd" fill="#D81F37" d="M369.328,270.595c-18.984,0-37.97,0.005-56.955-0.003
			c-5.426-0.003-8.479-2.484-8.576-6.915c-0.102-4.635,3.005-7.29,8.648-7.292c37.83-0.018,75.659-0.025,113.489-0.019
			c4.889,0.001,7.857,1.932,8.74,5.518c1.144,4.656-2.479,8.709-7.976,8.72c-19.124,0.039-38.248,0.016-57.371,0.016
			C369.328,270.61,369.328,270.604,369.328,270.595z"/>
		<path fill-rule="evenodd" clip-rule="evenodd" fill="#D81F37" d="M241.727,202.067c7.094-7.128,13.285-13.353,19.481-19.573
			c0.886-0.889,1.734-1.826,2.699-2.623c3.097-2.558,7.139-2.416,9.826,0.285c2.692,2.705,3.021,6.9,0.197,9.796
			c-8.861,9.087-17.847,18.055-26.933,26.917c-2.75,2.683-6.654,2.626-9.475,0.028c-3.896-3.586-7.648-7.343-11.261-11.215
			c-2.755-2.953-2.531-7.048,0.174-9.789c2.89-2.927,6.875-3.035,10.06,0.001C238.297,197.612,239.745,199.699,241.727,202.067z"/>
		<path fill-rule="evenodd" clip-rule="evenodd" fill="#D81F37" d="M241.693,262.244c7.717-7.749,14.598-14.676,21.503-21.58
			c2.799-2.801,6.002-3.554,9.444-1.312c2.935,1.909,3.757,4.834,2.753,8.063c-0.429,1.379-1.474,2.678-2.521,3.734
			c-8.248,8.335-16.533,16.634-24.872,24.877c-4.017,3.971-7.563,3.941-11.64,0.001c-3.211-3.104-6.394-6.244-9.453-9.496
			c-3.259-3.463-3.391-7.493-0.553-10.444c2.973-3.092,7.149-3.03,10.722,0.427C238.766,258.148,240.063,260.188,241.693,262.244z"
			/>
	</g>
</g>
<g id="EXPORT_FILE" display="none">
	<g display="inline">
		<path fill-rule="evenodd" clip-rule="evenodd" fill="#D81F37" d="M152,113.659c6.547-15.945,18.344-21.729,35.536-21.451
			c46.265,0.746,92.55,0.428,138.825,0.142c12.398-0.077,21.476,4.477,28.042,14.918c4.7,7.474,10.286,14.401,14.815,21.969
			c3.13,5.231,6.984,6.833,12.939,6.804c45.98-0.224,91.962-0.142,137.945-0.115c25.154,0.015,35.138,10.138,35.141,35.509
			c0.004,11.121,0,22.244,0,34.252c6.351,0,11.961,0.638,17.38-0.112c21.058-2.917,39.031,21.845,29.82,44.016
			c-11.168,26.875-22.119,53.841-33.171,80.766c-12.95,31.545-25.885,63.096-38.873,94.629
			c-6.533,15.861-14.604,21.232-31.766,21.232c-115.546,0.02-231.09,0.027-346.634,0.037C152,335.391,152,224.525,152,113.659z
			 M187.291,417.502c1.966,0.242,2.839,0.443,3.712,0.443c101.704,0.023,203.407-0.035,305.109,0.207
			c5.894,0.014,7.448-2.916,9.213-7.225c22.929-56.059,45.949-112.08,68.905-168.128c0.946-2.31,1.465-4.795,2.489-8.225
			c-3.568-0.268-6.09-0.622-8.613-0.622c-100.525-0.027-201.05,0.029-301.572-0.163c-5.785-0.01-8.264,2.148-10.177,7.197
			c-7.296,19.242-14.963,38.342-22.469,57.504C218.461,337.869,203.047,377.254,187.291,417.502z M180.646,352.119
			c0.364,0.131,0.729,0.264,1.095,0.396c0.854-2.031,1.747-4.047,2.555-6.1c15.618-39.64,31.148-79.318,46.875-118.917
			c6.479-16.313,14.926-21.81,32.3-21.81c83.979-0.003,167.958-0.002,251.938-0.002c3.458,0,6.913,0,10.805,0
			c0-13.98,0-27.049,0-40.973c-3.728,0-6.901,0-10.078,0c-46.557-0.002-93.115-0.034-139.672,0.021
			c-11.397,0.012-20.575-3.867-26.961-13.746c-5.112-7.909-10.877-15.405-15.814-23.417c-3.092-5.017-6.593-7.072-12.74-7.03
			c-43.903,0.301-87.809,0.153-131.715,0.178c-2.828,0.002-5.656,0.255-8.587,0.396
			C180.646,198.655,180.646,275.388,180.646,352.119z"/>
	</g>
	<g display="inline">
		<circle fill-rule="evenodd" clip-rule="evenodd" fill="#214195" cx="170.278" cy="437.072" r="119.898"/>
		<path fill-rule="evenodd" clip-rule="evenodd" fill="#FFFFFF" d="M161.299,408.492c0-1.059,0-1.844,0-2.633
			c0-6.951-0.022-13.904,0.007-20.855c0.024-5.605,3.615-7.631,8.55-4.84c30.676,17.361,61.348,34.723,92.021,52.088
			c5.117,2.896,5.081,6.814-0.086,9.734c-30.608,17.326-61.213,34.662-91.851,51.939c-1.295,0.732-2.917,1.352-4.359,1.297
			c-2.751-0.109-4.253-2.305-4.27-5.703c-0.036-6.951-0.012-13.904-0.012-20.857c0-0.873,0-1.742,0-2.979c-1.025,0-1.882,0-2.738,0
			c-25.618,0-51.236,0-76.855,0c-5.435-0.004-6.836-1.391-6.837-6.789c-0.004-14.561-0.014-29.125,0.018-43.688
			c0.003-1.299,0.005-2.707,0.487-3.875c1.016-2.457,3.254-2.863,5.744-2.859c25.768,0.031,51.535,0.02,77.301,0.02
			C159.297,408.492,160.171,408.492,161.299,408.492z"/>
	</g>
</g>
</svg>
