<?xml version="1.0" encoding="utf-8"?>
<!-- Generator: Adobe Illustrator 16.0.0, SVG Export Plug-In . SVG Version: 6.00 Build 0)  -->
<!DOCTYPE svg PUBLIC "-//W3C//DTD SVG 1.1//EN" "http://www.w3.org/Graphics/SVG/1.1/DTD/svg11.dtd">
<svg version="1.1" id="Layer_1" xmlns="http://www.w3.org/2000/svg" xmlns:xlink="http://www.w3.org/1999/xlink" x="0px" y="0px"
	 width="640px" height="640px" viewBox="0 0 640 640" enable-background="new 0 0 640 640" xml:space="preserve">
<g id="Layer_1_1_">
	<g id="HELP">
		<path fill="#D81F37" d="M309.716,144.496c6.854,0,13.711,0,20.567,0c0.981,0.215,1.961,0.562,2.952,0.627
			c24.802,1.75,48.263,8.354,69.935,20.46c48.985,27.38,79.043,68.669,89.631,123.903c1.147,6.01,1.813,12.113,2.703,18.174
			c0,8.229,0,16.453,0,24.686c-0.228,0.992-0.574,1.976-0.652,2.979c-1.287,16.604-4.746,32.77-11.127,48.109
			c-24.805,59.641-68.789,96.307-132.195,109.349c-5.653,1.165-11.418,1.829-17.133,2.729c-9.598,0-19.19,0-28.793,0
			c-3.695-0.528-7.396-1.022-11.085-1.593c-35.104-5.408-66.055-19.75-92.339-43.688c-29.402-26.781-47.799-59.804-54.918-98.992
			c-1.137-6.258-1.854-12.592-2.766-18.89c0-8.229,0-16.454,0-24.685c0.514-3.938,0.973-7.886,1.549-11.813
			c4.99-33.999,18.354-64.277,40.939-90.225c28.484-32.72,64.229-52.561,107.21-59.093
			C299.356,145.751,304.543,145.171,309.716,144.496z M320.125,188.559c-73.063,0.131-131.854,59.104-131.732,132.144
			c0.116,72.512,59.341,131.211,132.499,130.922c71.313-0.276,130.556-57.856,130.642-131.353
			C451.615,247.316,392.475,188.43,320.125,188.559z"/>
		<g display="none">
			<path display="inline" fill="#214195" d="M260.948,279.284c0-7.604,2.442-15.313,7.327-23.12
				c4.887-7.806,12.015-14.271,21.378-19.396c9.369-5.123,20.301-7.688,32.788-7.688c11.61,0,21.859,2.146,30.748,6.425
				c8.892,4.285,15.752,10.109,20.6,17.479c4.845,7.366,7.267,15.373,7.267,24.02c0,6.811-1.381,12.772-4.146,17.896
				c-2.764,5.125-6.046,9.548-9.85,13.271c-3.804,3.723-10.628,9.985-20.477,18.796c-2.727,2.479-4.907,4.667-6.546,6.546
				c-1.646,1.882-2.862,3.602-3.663,5.163c-0.805,1.561-1.428,3.122-1.862,4.684c-0.442,1.563-1.101,4.307-1.981,8.23
				c-1.521,8.323-6.282,12.484-14.292,12.484c-4.164,0-7.668-1.354-10.51-4.083c-2.842-2.721-4.264-6.765-4.264-12.129
				c0-6.727,1.04-12.552,3.123-17.477c2.082-4.924,4.843-9.248,8.287-12.975c3.438-3.722,8.087-8.146,13.932-13.271
				c5.125-4.483,8.828-7.867,11.11-10.148c2.278-2.282,4.197-4.823,5.763-7.627c1.563-2.801,2.345-5.844,2.345-9.128
				c0-6.405-2.385-11.809-7.146-16.214c-4.771-4.402-10.91-6.605-18.438-6.605c-8.809,0-15.294,2.225-19.457,6.665
				c-4.164,4.444-7.686,10.99-10.564,19.641c-2.727,9.049-7.891,13.568-15.493,13.568c-4.485,0-8.271-1.58-11.354-4.742
				C262.49,286.391,260.948,282.969,260.948,279.284z M319.56,410.922c-4.886,0-9.146-1.585-12.792-4.744
				c-3.645-3.161-5.464-7.585-5.464-13.272c0-5.044,1.759-9.286,5.284-12.729c3.521-3.438,7.846-5.162,12.972-5.162
				c5.043,0,9.287,1.724,12.73,5.162c3.439,3.441,5.165,7.688,5.165,12.729c0,5.605-1.806,10.01-5.405,13.212
				C328.447,409.316,324.282,410.922,319.56,410.922z"/>
		</g>
	</g>
</g>
<g id="Layer_6">
	<g>
		<path fill="#214195" d="M417.514,395.677c-1.421,0.138-2.842,0.391-4.264,0.394c-16.986,0.026-33.976,0.022-50.962,0.005
			c-1.401-0.001-2.805-0.163-4.691-0.278c-0.221-9.892,3.718-17.568,10.95-23.43c16.351-13.247,40.18-6.522,47.526,13.21
			c0.498,1.341,0.961,2.691,1.439,4.038C417.514,391.635,417.514,393.656,417.514,395.677z"/>
		<path fill="#214195" d="M222.486,395.925c-0.034-11.095,4.547-19.471,13.394-25.271c10.584-6.939,21.761-7.108,32.536-0.545
			c9.332,5.686,14.148,14.271,14.279,25.814C262.468,395.925,242.697,395.925,222.486,395.925z"/>
		<path fill="#214195" d="M350.29,278.783c-20.345,0-40.028,0-60.302,0c0.1-10.343,4.147-18.386,12.186-24.186
			c10.448-7.54,21.692-8.246,32.908-1.905C344.838,258.205,349.799,266.892,350.29,278.783z"/>
		<path fill="#214195" d="M325.581,315.59c0,4.035,0.108,8.075-0.04,12.105c-0.098,2.619,0.853,4.22,3.179,5.51
			c7.051,3.909,14.053,7.925,20.907,12.163c1.661,1.027,3.315,2.911,3.802,4.716c0.365,1.361-0.713,4.013-1.922,4.671
			c-1.586,0.862-4.322,1.084-5.884,0.271c-7.018-3.652-13.957-7.518-20.594-11.818c-3.701-2.399-6.453-2.199-10.052,0.125
			c-6.278,4.06-12.891,7.609-19.417,11.281c-3.934,2.212-6.977,1.634-8.581-1.41c-1.458-2.769-0.286-5.665,3.317-7.781
			c6.954-4.084,13.895-8.194,20.955-12.086c2.47-1.362,3.458-3.021,3.399-5.826c-0.148-7.349-0.051-14.702-0.043-22.055
			c0.001-1.152-0.032-2.313,0.087-3.457c0.364-3.454,2.484-5.779,5.262-5.868c2.78-0.086,5.186,2.116,5.383,5.632
			c0.262,4.596,0.063,9.216,0.063,13.827C325.464,315.59,325.522,315.59,325.581,315.59z"/>
		<path fill="#214195" d="M252.875,320.933c9.746,0.058,17.605,7.918,17.599,17.6c-0.008,9.88-7.984,17.7-18.021,17.669
			c-9.966-0.03-17.969-8.055-17.827-17.872C234.769,328.438,242.703,320.875,252.875,320.933z"/>
		<path fill="#214195" d="M387.723,356.232c-9.953,0.038-18.028-7.896-18.01-17.696c0.017-9.72,7.843-17.55,17.588-17.599
			c10.126-0.049,18.118,7.569,18.25,17.397C405.68,348.12,397.639,356.194,387.723,356.232z"/>
		<path fill="#214195" d="M320.014,239.231c-9.856-0.02-17.957-8.13-17.813-17.839c0.146-9.84,8.162-17.531,18.18-17.438
			c9.687,0.09,17.57,7.968,17.599,17.59C338.009,231.279,329.913,239.25,320.014,239.231z"/>
	</g>
</g>
</svg>
