<?xml version="1.0" encoding="utf-8"?>
<!-- Generator: Adobe Illustrator 16.0.0, SVG Export Plug-In . SVG Version: 6.00 Build 0)  -->
<!DOCTYPE svg PUBLIC "-//W3C//DTD SVG 1.1//EN" "http://www.w3.org/Graphics/SVG/1.1/DTD/svg11.dtd">
<svg version="1.1" xmlns="http://www.w3.org/2000/svg" xmlns:xlink="http://www.w3.org/1999/xlink" x="0px" y="0px" width="640px"
	 height="640px" viewBox="0 0 640 640" enable-background="new 0 0 640 640" xml:space="preserve">
<g id="Layer_1">
	<g id="HELP">
		<path fill="#D81F37" d="M309.716,144.496c6.854,0,13.711,0,20.567,0c0.982,0.215,1.961,0.561,2.953,0.627
			c24.801,1.75,48.262,8.353,69.934,20.46c48.986,27.38,79.043,68.669,89.631,123.903c1.148,6.01,1.813,12.113,2.703,18.174
			c0,8.229,0,16.453,0,24.685c-0.227,0.992-0.574,1.976-0.652,2.979c-1.287,16.604-4.746,32.769-11.127,48.109
			c-24.805,59.641-68.789,96.307-132.195,109.349c-5.654,1.165-11.418,1.829-17.133,2.729c-9.598,0-19.191,0-28.793,0
			c-3.695-0.528-7.396-1.022-11.085-1.593c-35.105-5.408-66.055-19.75-92.339-43.688c-29.402-26.781-47.799-59.804-54.918-98.992
			c-1.137-6.258-1.854-12.592-2.766-18.89c0-8.229,0-16.454,0-24.685c0.514-3.938,0.973-7.885,1.549-11.813
			c4.99-33.999,18.354-64.277,40.94-90.224c28.484-32.72,64.228-52.561,107.21-59.093
			C299.356,145.751,304.543,145.171,309.716,144.496z M320.125,188.559c-73.062,0.131-131.854,59.104-131.732,132.144
			c0.116,72.511,59.341,131.211,132.499,130.922c71.312-0.277,130.556-57.857,130.642-131.353
			C451.615,247.316,392.475,188.43,320.125,188.559z"/>
		<g display="none">
			<path display="inline" fill="#214195" d="M260.948,279.284c0-7.604,2.442-15.313,7.327-23.12
				c4.886-7.806,12.014-14.271,21.378-19.396c9.369-5.123,20.3-7.688,32.788-7.688c11.61,0,21.859,2.146,30.748,6.425
				c8.891,4.285,15.752,10.109,20.599,17.479c4.845,7.366,7.267,15.373,7.267,24.02c0,6.81-1.381,12.772-4.146,17.896
				c-2.763,5.125-6.045,9.548-9.849,13.271c-3.804,3.723-10.628,9.986-20.477,18.796c-2.726,2.479-4.907,4.667-6.546,6.546
				c-1.646,1.882-2.862,3.602-3.663,5.163c-0.804,1.561-1.427,3.122-1.862,4.684c-0.442,1.563-1.101,4.307-1.981,8.23
				c-1.521,8.324-6.283,12.485-14.292,12.485c-4.165,0-7.668-1.355-10.51-4.083c-2.842-2.721-4.264-6.765-4.264-12.129
				c0-6.727,1.04-12.552,3.123-17.477c2.082-4.924,4.843-9.248,8.287-12.974c3.439-3.722,8.087-8.146,13.932-13.271
				c5.125-4.483,8.828-7.867,11.11-10.148c2.279-2.282,4.198-4.823,5.763-7.627c1.562-2.801,2.345-5.844,2.345-9.128
				c0-6.405-2.385-11.809-7.146-16.214c-4.77-4.402-10.91-6.605-18.438-6.605c-8.809,0-15.294,2.224-19.457,6.665
				c-4.164,4.444-7.686,10.99-10.565,19.64c-2.726,9.049-7.89,13.569-15.493,13.569c-4.485,0-8.271-1.58-11.353-4.742
				C262.49,286.391,260.948,282.969,260.948,279.284z M319.56,410.921c-4.886,0-9.146-1.585-12.792-4.744
				c-3.645-3.161-5.464-7.585-5.464-13.272c0-5.044,1.759-9.286,5.284-12.729c3.521-3.438,7.846-5.162,12.972-5.162
				c5.043,0,9.287,1.724,12.73,5.162c3.44,3.442,5.165,7.688,5.165,12.729c0,5.605-1.805,10.01-5.405,13.212
				C328.447,409.316,324.282,410.921,319.56,410.921z"/>
		</g>
	</g>
</g>
<g id="Layer_4">
	<g>
		<path fill-rule="evenodd" clip-rule="evenodd" fill="#214195" d="M353.832,352.119c-0.836,0.807-2.252,1.358-3.423,1.403
			c-4.356,0.163-8.729,0.14-13.09,0.024c-1.642-0.044-2.456,0.508-3.184,1.986c-5.347,10.853-13.108,19.686-23.179,26.327
			c-31.416,20.723-72.944,12.37-94.002-18.779c-21.204-31.364-12.127-74.938,19.786-94.981c34.43-21.625,78.994-9.315,97.354,26.941
			c0.793,1.565,1.675,2.048,3.383,2.046c26.812-0.054,53.622-0.024,80.433-0.067c1.603-0.003,2.729,0.449,3.865,1.598
			c8.218,8.314,16.507,16.559,24.774,24.826c0.582,0.583,1.166,1.166,1.737,1.737c-9.562,9.56-18.889,18.889-28.373,28.372
			c-5.621-5.623-11.108-11.11-16.801-16.802c-5.683,5.684-11.213,11.213-16.882,16.882c-5.696-5.695-11.187-11.188-16.911-16.911
			C364.01,342.033,358.986,347.144,353.832,352.119z M236.675,339.297c7.786,7.845,20.287,7.93,28.147,0.193
			c7.756-7.635,7.816-20.411,0.129-28.215c-7.69-7.809-20.301-7.838-28.147-0.064C228.91,319.029,228.853,331.418,236.675,339.297z"
			/>
	</g>
</g>
</svg>
