<?xml version="1.0" encoding="utf-8"?>
<!-- Generator: Adobe Illustrator 16.0.0, SVG Export Plug-In . SVG Version: 6.00 Build 0)  -->
<!DOCTYPE svg PUBLIC "-//W3C//DTD SVG 1.1//EN" "http://www.w3.org/Graphics/SVG/1.1/DTD/svg11.dtd">
<svg version="1.1" id="Layer_1" xmlns="http://www.w3.org/2000/svg" xmlns:xlink="http://www.w3.org/1999/xlink" x="0px" y="0px"
	 width="640px" height="640px" viewBox="0 0 640 640" enable-background="new 0 0 640 640" xml:space="preserve">
<g id="Layer_1_1_">
	<g id="HELP">
		<path fill="#D81F37" d="M309.716,144.496c6.854,0,13.711,0,20.567,0c0.981,0.215,1.961,0.562,2.952,0.627
			c24.802,1.75,48.263,8.354,69.935,20.46c48.985,27.38,79.043,68.669,89.631,123.903c1.147,6.01,1.813,12.113,2.703,18.174
			c0,8.229,0,16.453,0,24.686c-0.228,0.992-0.574,1.976-0.652,2.979c-1.287,16.604-4.746,32.77-11.127,48.109
			c-24.805,59.641-68.789,96.307-132.195,109.349c-5.653,1.165-11.418,1.829-17.133,2.729c-9.598,0-19.19,0-28.793,0
			c-3.695-0.528-7.396-1.022-11.085-1.593c-35.104-5.408-66.055-19.75-92.339-43.688c-29.402-26.781-47.799-59.804-54.918-98.992
			c-1.137-6.258-1.854-12.592-2.766-18.89c0-8.229,0-16.454,0-24.685c0.514-3.938,0.973-7.886,1.549-11.813
			c4.99-33.999,18.354-64.277,40.939-90.225c28.484-32.72,64.229-52.561,107.21-59.093
			C299.356,145.751,304.543,145.171,309.716,144.496z M320.125,188.559c-73.063,0.131-131.854,59.104-131.732,132.144
			c0.116,72.512,59.341,131.211,132.499,130.922c71.313-0.276,130.556-57.856,130.642-131.353
			C451.615,247.316,392.475,188.43,320.125,188.559z"/>
		<g display="none">
			<path display="inline" fill="#214195" d="M260.948,279.284c0-7.604,2.442-15.313,7.327-23.12
				c4.887-7.806,12.015-14.271,21.378-19.396c9.369-5.123,20.301-7.688,32.788-7.688c11.61,0,21.859,2.146,30.748,6.425
				c8.892,4.285,15.752,10.109,20.6,17.479c4.845,7.366,7.267,15.373,7.267,24.02c0,6.811-1.381,12.772-4.146,17.896
				c-2.764,5.125-6.046,9.548-9.85,13.271c-3.804,3.723-10.628,9.985-20.477,18.796c-2.727,2.479-4.907,4.667-6.546,6.546
				c-1.646,1.882-2.862,3.602-3.663,5.163c-0.805,1.561-1.428,3.122-1.862,4.684c-0.442,1.563-1.101,4.307-1.981,8.23
				c-1.521,8.323-6.282,12.484-14.292,12.484c-4.164,0-7.668-1.354-10.51-4.083c-2.842-2.721-4.264-6.765-4.264-12.129
				c0-6.727,1.04-12.552,3.123-17.477c2.082-4.924,4.843-9.248,8.287-12.975c3.438-3.722,8.087-8.146,13.932-13.271
				c5.125-4.483,8.828-7.867,11.11-10.148c2.278-2.282,4.197-4.823,5.763-7.627c1.563-2.801,2.345-5.844,2.345-9.128
				c0-6.405-2.385-11.809-7.146-16.214c-4.771-4.402-10.91-6.605-18.438-6.605c-8.809,0-15.294,2.225-19.457,6.665
				c-4.164,4.444-7.686,10.99-10.564,19.641c-2.727,9.049-7.891,13.568-15.493,13.568c-4.485,0-8.271-1.58-11.354-4.742
				C262.49,286.391,260.948,282.969,260.948,279.284z M319.56,410.922c-4.886,0-9.146-1.585-12.792-4.744
				c-3.645-3.161-5.464-7.585-5.464-13.272c0-5.044,1.759-9.286,5.284-12.729c3.521-3.438,7.846-5.162,12.972-5.162
				c5.043,0,9.287,1.724,12.73,5.162c3.439,3.441,5.165,7.688,5.165,12.729c0,5.605-1.806,10.01-5.405,13.212
				C328.447,409.316,324.282,410.922,319.56,410.922z"/>
		</g>
	</g>
</g>
<g id="Layer_3">
	<g>
		<path fill="#214195" d="M210.673,342.588c4.508-1.605,9.039-2.826,13.18-4.851c2.244-1.097,4.103-3.354,5.636-5.455
			c2.884-3.942,2.212-7.881-0.382-11.928c-2.12-3.309-3.623-7.012-5.356-10.457c9.313-10.701,9.313-10.701,21.822-4.811
			c7.574,3.566,14.469,0.524,17.129-7.527c1.342-4.062,2.741-8.103,4.117-12.157c4.897,0,9.531,0,14.321,0
			c1.593,4.616,3.133,9.142,4.717,13.652c2.184,6.213,10.025,9.279,15.921,6.258c3.979-2.039,7.967-4.061,11.846-6.036
			c0.477,0.257,0.815,0.359,1.047,0.577c9.652,9.123,9.651,9.124,3.996,21.142c-3.595,7.637-0.556,14.634,7.489,17.253
			c0.632,0.205,1.253,0.436,1.88,0.646c11.063,3.711,11.135,3.719,9.938,15.084c-0.131,1.246-1.414,2.887-2.581,3.41
			c-3.617,1.624-7.6,2.476-11.116,4.266c-2.114,1.076-3.962,3.111-5.336,5.123c-2.774,4.059-2.821,8.291,0.413,12.301
			c0.407,0.505,0.613,1.174,0.915,1.767c4.75,9.342,4.33,11.235-4.406,17.432c-0.92,0.652-2.771,0.645-3.909,0.209
			c-3.404-1.301-6.793-2.75-9.953-4.551c-3.027-1.726-5.627-1.322-8.896-0.461c-5.571,1.47-6.722,5.641-8.161,10.104
			c-3.601,11.162-3.669,11.213-15.061,9.992c-1.251-0.133-2.911-1.396-3.423-2.56c-1.668-3.779-2.671-7.854-4.383-11.61
			c-0.796-1.744-2.441-3.274-4.035-4.449c-5.401-3.981-10.299-1.899-15.511,1.06c-8.125,4.615-8.101,4.172-14.992-2.232
			c-3.04-2.824-3.482-5.136-1.237-8.48c1.281-1.907,1.725-4.396,3.074-6.235c3.895-5.313,1.358-10.151-1.132-14.726
			c-0.833-1.528-3.427-2.325-5.374-2.983C209.624,356.883,209.611,356.924,210.673,342.588z M294.539,350.44
			c0.21-11.69-8.461-20.981-19.782-21.199c-11.447-0.219-20.985,8.738-21.203,19.914c-0.219,11.222,8.965,20.828,20.143,21.072
			C284.656,370.467,294.344,361.268,294.539,350.44z"/>
		<path fill="#214195" d="M406.943,238.606c0.367,0.15,0.552,0.18,0.67,0.283c9.529,8.333,9.529,8.334,4.191,19.751
			c-3.48,7.442-0.707,13.85,7.104,16.396c0.474,0.154,0.979,0.206,1.451,0.359c9.573,3.107,9.478,3.107,9.357,13.137
			c-0.03,2.539-0.681,3.983-3.205,4.702c-2.702,0.769-5.308,1.878-7.956,2.835c-7.776,2.808-10.208,9.09-6.406,16.551
			c5.341,10.48,5.342,10.48-3.128,18.572c-0.354,0.34-0.77,0.619-1.391,1.113c-3.938-1.875-7.943-3.824-11.985-5.697
			c-5.42-2.512-12.406,0.484-14.279,6.08c-0.735,2.199-1.454,4.402-2.171,6.607c-0.709,2.186-1.405,4.375-2.104,6.566
			c-0.307,0.112-0.613,0.307-0.927,0.318c-12.257,0.511-12.542,0.597-16.135-11.144c-1.483-4.851-3.9-7.906-8.757-8.76
			c-1.929-0.339-4.031-0.079-5.986,0.282c-1.251,0.229-2.371,1.154-3.558,1.75c-9.251,4.651-9.336,4.725-16.142-3.025
			c-0.94-1.07-1.079-3.437-0.677-4.963c0.623-2.366,2.043-4.52,3.104-6.772c4.188-8.896,1.775-14.605-7.434-17.618
			c-0.629-0.206-1.244-0.455-1.875-0.655c-8.201-2.604-7.965-2.61-8.275-11.373c-0.139-3.919,1.318-5.726,4.851-6.613
			c2.24-0.563,4.409-1.425,6.593-2.205c7.472-2.67,10.07-9.247,6.468-16.338c-0.525-1.036-1.159-2.02-1.642-3.075
			c-4.216-9.223-4.852-5.673,1.938-13.188c2.805-3.104,5.291-3.978,8.846-1.443c1.597,1.139,3.575,1.737,5.377,2.59
			c8.111,3.841,13.982,1.245,16.855-7.446c0.156-0.473,0.408-0.913,0.562-1.387c2.924-8.996,2.923-8.873,12.41-8.884
			c2.964-0.004,4.64,0.782,5.353,3.773c0.534,2.241,1.556,4.365,2.336,6.551c3.188,8.93,8.952,11.239,17.449,6.974
			C400.914,241.663,403.994,240.096,406.943,238.606z M389.406,285.674c-0.021-10.509-8.963-19.438-19.396-19.37
			c-10.301,0.065-19.09,8.832-19.123,19.072c-0.035,10.539,8.691,19.252,19.363,19.337
			C380.424,304.795,389.427,295.846,389.406,285.674z"/>
	</g>
</g>
</svg>
