<?xml version="1.0" encoding="utf-8"?>
<!-- Generator: Adobe Illustrator 16.0.0, SVG Export Plug-In . SVG Version: 6.00 Build 0)  -->
<!DOCTYPE svg PUBLIC "-//W3C//DTD SVG 1.1//EN" "http://www.w3.org/Graphics/SVG/1.1/DTD/svg11.dtd">
<svg version="1.1" id="Layer_1" xmlns="http://www.w3.org/2000/svg" xmlns:xlink="http://www.w3.org/1999/xlink" x="0px" y="0px"
	 width="640px" height="640px" viewBox="0 0 640 640" enable-background="new 0 0 640 640" xml:space="preserve">
<g id="Layer_1_1_">
	<g id="HELP">
		<path fill="#D81F37" d="M309.716,144.496c6.854,0,13.711,0,20.567,0c0.981,0.215,1.961,0.562,2.952,0.627
			c24.802,1.75,48.263,8.354,69.935,20.46c48.985,27.38,79.043,68.669,89.631,123.903c1.147,6.01,1.813,12.113,2.703,18.174
			c0,8.229,0,16.453,0,24.686c-0.228,0.992-0.574,1.976-0.652,2.979c-1.287,16.604-4.746,32.77-11.127,48.109
			c-24.805,59.641-68.789,96.307-132.195,109.349c-5.653,1.165-11.418,1.829-17.133,2.729c-9.598,0-19.19,0-28.793,0
			c-3.695-0.528-7.396-1.022-11.085-1.593c-35.104-5.408-66.055-19.75-92.339-43.688c-29.402-26.781-47.799-59.804-54.918-98.992
			c-1.137-6.258-1.854-12.592-2.766-18.89c0-8.229,0-16.454,0-24.685c0.514-3.938,0.973-7.886,1.549-11.813
			c4.99-33.999,18.354-64.277,40.939-90.225c28.484-32.72,64.229-52.561,107.21-59.093
			C299.356,145.751,304.543,145.171,309.716,144.496z M320.125,188.559c-73.063,0.131-131.854,59.104-131.732,132.144
			c0.116,72.512,59.341,131.211,132.499,130.922c71.313-0.276,130.556-57.856,130.642-131.353
			C451.615,247.316,392.475,188.43,320.125,188.559z"/>
		<g display="none">
			<path display="inline" fill="#214195" d="M260.948,279.284c0-7.604,2.442-15.313,7.327-23.12
				c4.887-7.806,12.015-14.271,21.378-19.396c9.369-5.123,20.301-7.688,32.788-7.688c11.61,0,21.859,2.146,30.748,6.425
				c8.892,4.285,15.752,10.109,20.6,17.479c4.845,7.366,7.267,15.373,7.267,24.02c0,6.811-1.381,12.772-4.146,17.896
				c-2.764,5.125-6.046,9.548-9.85,13.271c-3.804,3.723-10.628,9.985-20.477,18.796c-2.727,2.479-4.907,4.667-6.546,6.546
				c-1.646,1.882-2.862,3.602-3.663,5.163c-0.805,1.561-1.428,3.122-1.862,4.684c-0.442,1.563-1.101,4.307-1.981,8.23
				c-1.521,8.323-6.282,12.484-14.292,12.484c-4.164,0-7.668-1.354-10.51-4.083c-2.842-2.721-4.264-6.765-4.264-12.129
				c0-6.727,1.04-12.552,3.123-17.477c2.082-4.924,4.843-9.248,8.287-12.975c3.438-3.722,8.087-8.146,13.932-13.271
				c5.125-4.483,8.828-7.867,11.11-10.148c2.278-2.282,4.197-4.823,5.763-7.627c1.563-2.801,2.345-5.844,2.345-9.128
				c0-6.405-2.385-11.809-7.146-16.214c-4.771-4.402-10.91-6.605-18.438-6.605c-8.809,0-15.294,2.225-19.457,6.665
				c-4.164,4.444-7.686,10.99-10.564,19.641c-2.727,9.049-7.891,13.568-15.493,13.568c-4.485,0-8.271-1.58-11.354-4.742
				C262.49,286.391,260.948,282.969,260.948,279.284z M319.56,410.922c-4.886,0-9.146-1.585-12.792-4.744
				c-3.645-3.161-5.464-7.585-5.464-13.272c0-5.044,1.759-9.286,5.284-12.729c3.521-3.438,7.846-5.162,12.972-5.162
				c5.043,0,9.287,1.724,12.73,5.162c3.439,3.441,5.165,7.688,5.165,12.729c0,5.605-1.806,10.01-5.405,13.212
				C328.447,409.316,324.282,410.922,319.56,410.922z"/>
		</g>
	</g>
</g>
<g id="Layer_5">
	<g>
		<path fill="#214195" d="M287.773,319.709c9.244,0,18.488-0.107,27.73,0.026c11.646,0.17,20.938,4.966,27.445,14.739
			c3.816,5.732,4.812,12.075,3.769,18.851c-0.871,5.661-1.445,11.366-2.286,17.031c-1.185,7.979-1.504,16.119-4.382,23.789
			c-2.885,7.688-6.924,14.536-13.977,19.173c-4.155,2.731-8.727,4.174-13.727,4.172c-16.029-0.004-32.057-0.066-48.086,0.022
			c-9.978,0.058-17.551-4.324-23.198-12.247c-4.73-6.641-7.28-14.15-8.289-22.229c-0.879-7.046-1.921-14.067-2.837-21.108
			c-0.562-4.321-1.389-8.653-1.438-12.985c-0.071-6.356,2.059-12.137,6.146-17.1c5.654-6.866,12.837-11.001,21.741-11.846
			c3.216-0.303,6.47-0.261,9.707-0.277C273.318,319.683,280.546,319.709,287.773,319.709z"/>
		<path fill="#214195" d="M373.856,357.357c-5.211,0-10.421-0.03-15.63,0.023c-1.292,0.013-1.648-0.446-1.421-1.654
			c2.455-12.963-1.369-24.04-10.335-33.427c-4.427-4.634-9.79-7.985-15.835-10.188c-2.571-0.936-2.901-1.416-2.786-4.232
			c0.442-10.832,8.741-18.439,17.83-20.291c2.172-0.442,4.463-0.403,6.698-0.41c12.879-0.036,25.756-0.102,38.633,0.012
			c8.729,0.077,15.438,3.994,19.934,11.486c2.203,3.669,2.666,7.731,2.117,11.935c-0.744,5.679-1.557,11.351-2.205,17.042
			c-0.827,7.271-2.198,14.347-6.491,20.499c-4.178,5.982-9.73,9.384-17.237,9.224C382.703,357.281,378.279,357.359,373.856,357.357z
			"/>
		<path fill="#214195" d="M256.24,276.753c0.073-14.215,9.068-26.927,22.034-31.002c18.483-5.809,37.729,6.308,40.524,25.633
			c1.842,12.731-2.193,23.316-12.297,31.381c-4.588,3.661-9.929,5.584-15.801,6.171c-15.214,1.521-28.147-8.271-32.666-21.496
			c-0.553-1.616-0.979-3.296-1.251-4.981C256.477,280.577,256.411,278.656,256.24,276.753z"/>
		<path fill="#214195" d="M393.204,256.066c-0.057,13.067-10.165,23.377-22.854,23.305c-12.428-0.07-22.636-10.685-22.402-23.641
			c0.229-12.741,9.743-23.021,22.737-22.986C384.128,232.781,393.412,244.053,393.204,256.066z"/>
	</g>
</g>
</svg>
